<svg width="37" height="36" viewBox="0 0 37 36" fill="none" xmlns="http://www.w3.org/2000/svg">
<path d="M1.68415 31.259C1.20201 29.0089 0.960938 26.1161 0.960938 22.5804C0.960938 19.0447 2.32701 15.2277 5.05915 11.1295C7.87166 7.03125 10.4431 4.25893 12.7734 2.8125C14.1395 3.375 15.4252 4.29911 16.6306 5.58482C15.7467 8.23661 13.2556 11.933 9.15737 16.6741C8.11273 17.8795 7.51005 18.5625 7.34934 18.7232C10.1618 18.7232 12.0904 18.8036 13.1351 18.9643C13.6172 20.4911 13.8583 22.5804 13.8583 25.2322C13.8583 27.884 13.7779 29.7723 13.6172 30.8973C11.8493 31.2991 9.96095 31.5 7.95202 31.5C6.02344 31.5 3.93415 31.4197 1.68415 31.259ZM22.0547 31.259C21.5726 29.0089 21.3315 26.1161 21.3315 22.5804C21.3315 19.0447 22.6976 15.2277 25.4297 11.1295C28.2422 7.03125 30.8136 4.25893 33.144 2.8125C34.5101 3.375 35.7958 4.29911 37.0011 5.58482C36.1172 8.23661 33.586 11.933 29.4074 16.6741C28.4431 17.8795 27.8806 18.5625 27.7199 18.7232C30.5324 18.7232 32.461 18.8036 33.5056 18.9643C33.9878 20.4911 34.2288 22.5804 34.2288 25.2322C34.2288 27.884 34.1485 29.7723 33.9878 30.8973C32.2199 31.2991 30.3315 31.5 28.3226 31.5C26.394 31.5 24.3047 31.4197 22.0547 31.259Z" fill="#22CFD5"/>
</svg>
