<svg width="230" height="31" viewBox="0 0 230 31" fill="none" xmlns="http://www.w3.org/2000/svg">
<path d="M133.957 17.3572H129.154V11.1939L120.481 0.208984H126.387L131.55 7.02513L136.958 0.208984H142.648L133.951 11.1999V17.3631L133.957 17.3572ZM98.1996 17.3572H93.5277V0.208984H100.619L106.226 10.9184L111.928 0.208984H118.924V17.3572H114.276V5.13841L107.783 17.3572H104.644L98.1996 5.13841V17.3572ZM81.1532 13.2064H91.623V17.3572H76.3556V0.208984H81.1592V13.2064H81.1532ZM230 17.3572H228.156V9.69049H211.624V17.3572H209.779V0.208984H211.624V7.88763H228.156V0.208984H230V17.3572ZM207.234 17.3572H192.685C191.972 17.3572 191.158 17.1595 190.577 16.7522C189.996 16.3509 189.529 15.8118 189.181 15.141C188.828 14.4642 188.654 13.7215 188.654 12.9069V4.65924C188.654 3.84466 188.828 3.10195 189.181 2.42513C189.529 1.7543 189.996 1.21523 190.577 0.813932C191.158 0.41263 191.978 0.208984 192.685 0.208984H207.234V2.02383H192.685C192.044 2.02383 191.499 2.27539 191.056 2.7845C190.613 3.28763 190.391 3.91654 190.391 4.65924V12.9069C190.391 13.6496 190.613 14.2725 191.056 14.7876C191.499 15.2967 192.038 15.5543 192.685 15.5543H207.234V17.3572ZM186.085 17.3572H167.403V0.208984H186.085V2.02383H169.2V7.88763H184.042V9.69049H169.2V15.5543H186.085V17.3572ZM156.059 17.3572H154.058V2.02383H145.062V0.208984H165.049V2.02383H156.053V17.3572H156.059ZM56.5241 17.3572H51.2832L59.8723 0.208984H65.9996L74.4269 17.3572H69.1561L67.6348 14.5001H62.8431L59.8902 10.3733H65.9098L62.8611 4.30586C60.7168 8.65429 58.6204 12.9788 56.5181 17.3572H56.5241Z" fill="white"/>
<mask id="mask0_7237_1052" style="mask-type:luminance" maskUnits="userSpaceOnUse" x="12" y="9" width="20" height="8">
<path d="M27.7613 16.6384L31.4569 9.57666H16.2853L12.5957 16.6204L27.7613 16.6384Z" fill="white"/>
</mask>
<g mask="url(#mask0_7237_1052)">
<path d="M31.4569 9.57666H12.5957V16.6384H31.4569V9.57666Z" fill="url(#paint0_linear_7237_1052)"/>
</g>
<path fill-rule="evenodd" clip-rule="evenodd" d="M3.69557 0.208984H36.3568L32.6612 7.2707H0L3.69557 0.208984Z" fill="#1CDCE3"/>
<path fill-rule="evenodd" clip-rule="evenodd" d="M16.2853 9.57666L24.4311 22.9993L20.7355 30.061L12.5957 16.6204L16.2853 9.57666Z" fill="#1CDCE3"/>
<defs>
<linearGradient id="paint0_linear_7237_1052" x1="27.6296" y1="9.85218" x2="13.4522" y2="18.0819" gradientUnits="userSpaceOnUse">
<stop stop-color="#1CDCE3"/>
<stop offset="0.1" stop-color="#1BD6DD"/>
<stop offset="0.24" stop-color="#19C7CD"/>
<stop offset="0.39" stop-color="#16ADB3"/>
<stop offset="0.55" stop-color="#118A8F"/>
<stop offset="0.72" stop-color="#0B5D60"/>
<stop offset="0.89" stop-color="#042627"/>
<stop offset="1"/>
</linearGradient>
</defs>
</svg>
