<svg width="1440" height="521" viewBox="0 0 1440 521" fill="none" xmlns="http://www.w3.org/2000/svg">
<g opacity="0.2">
<path d="M760.553 0.434296L453.959 0.434296L606.622 241.98L760.553 0.434296Z" stroke="black" stroke-dasharray="2 2"/>
<path d="M450.404 0.763885L143.81 0.763885L296.473 242.31L450.404 0.763885Z" stroke="black" stroke-dasharray="2 2"/>
<path d="M1448.31 2.70871L1141.71 2.70871L1294.37 241.98L1448.31 2.70871Z" stroke="black" stroke-dasharray="2 2"/>
<path d="M296.566 242.335L606.8 242.335" stroke="black" stroke-dasharray="2 2"/>
<path d="M989.535 241.525L1294.77 241.525L1141.52 481.251" stroke="black" stroke-dasharray="2 2"/>
<path d="M989.535 241.525L1141.52 481.251" stroke="black" stroke-dasharray="2 2"/>
<path d="M1599.33 241.525L1294.1 241.525L1446.08 481.251L1599.33 241.525Z" stroke="black" stroke-dasharray="2 2"/>
<path d="M306.595 474.77H0L152.663 714.042L306.595 474.77Z" stroke="black" stroke-dasharray="2 2"/>
<path d="M1449.43 481.251H1140.56L1294.35 720.522L1449.43 481.251Z" stroke="black" stroke-dasharray="2 2"/>
</g>
</svg>
