<svg width="18" height="18" viewBox="0 0 18 18" fill="none" xmlns="http://www.w3.org/2000/svg">
<g opacity="0.9">
<path d="M16.1772 8.70743C16.1772 8.68016 16.1747 8.65289 16.1747 8.62314C16.1251 6.7438 15.3515 4.98843 13.9978 3.67438C12.6416 2.36033 10.8491 1.63636 8.95237 1.63636C5.07221 1.63636 1.90609 4.6438 1.74494 8.47934C1.72758 8.57851 1.72758 8.69256 1.72758 8.79421C1.72758 10.0109 2.04433 11.2144 2.6426 12.2866C2.71289 12.4126 2.72974 12.5622 2.6833 12.6988L1.64575 15.751C1.5594 16.005 1.7986 16.2493 2.05439 16.1683L5.27976 15.1473C5.40696 15.107 5.54468 15.121 5.66373 15.1813C6.67622 15.6934 7.8077 15.962 8.95237 15.962C12.9392 15.962 16.1821 12.7463 16.1821 8.79421C16.1821 8.76198 16.1821 8.73223 16.1772 8.70496V8.70743ZM12.5177 11.2785C12.2736 11.8636 11.4935 12.1934 10.9011 12.1934C8.54904 12.1934 5.40444 9.59259 5.40444 7.22231C5.40444 6.62834 5.78697 5.50413 6.5375 5.50413C6.87462 5.50413 7.15636 5.47174 7.30114 5.83636C7.4499 6.17107 7.79948 7.02396 7.83915 7.13553C8.0427 7.44086 7.61611 7.89144 7.40031 8.07024C7.30175 8.16878 7.27331 8.26945 7.33833 8.39752C7.37552 8.46446 7.73254 9.07438 8.31518 9.58512C8.74088 9.97027 9.21313 10.2187 9.72841 10.4529C9.88709 10.5297 9.9689 10.5174 10.0582 10.4083C10.1474 10.3116 10.497 9.91487 10.6111 9.73636C10.74 9.53801 10.8714 9.5752 11.035 9.61983L11.0573 9.62479C11.4712 9.7886 11.8605 10.0161 12.2623 10.2074C12.4482 10.2917 12.5648 10.3463 12.6094 10.4107C12.6664 10.505 12.6639 10.8645 12.5177 11.2785Z" fill="white"/>
</g>
</svg>
