<svg width="32" height="32" viewBox="0 0 32 32" fill="none" xmlns="http://www.w3.org/2000/svg">
<path d="M11.5848 1.1416H19.4149L21.6521 15.4967L19.4149 29.8519H11.5848L9.34766 15.4967L11.5848 1.1416Z" fill="#A19991"/>
<path d="M29.8555 11.5838L29.8555 19.4139L15.5003 21.6511L1.14521 19.4139L1.14521 11.5838L15.5003 9.34668L29.8555 11.5838Z" fill="#A19991"/>
<path d="M22.8827 2.58191L28.4194 8.11861L19.8507 19.8511L8.11817 28.4198L2.58148 22.8831L11.1502 11.1506L22.8827 2.58191Z" fill="#A19991"/>
<path d="M28.422 22.8807L22.8853 28.4174L11.1528 19.8487L2.58408 8.11622L8.12078 2.57952L19.8533 11.1482L28.422 22.8807Z" fill="#A19991"/>
<path d="M18.4459 18.4073C18.4459 18.4073 13.9388 20.1267 12.2195 18.4073C10.5001 16.688 12.2195 12.1809 12.2195 12.1809L22.5029 7.99707L18.4459 18.4073Z" fill="#F1AF7E"/>
<circle cx="15.332" cy="15.2958" r="4.40274" transform="rotate(45 15.332 15.2958)" fill="#2C291F"/>
<path d="M8.77314 21.8537C5.15151 18.232 5.15151 12.3602 8.77314 8.73858C11.8539 5.65779 16.563 5.19771 20.1301 7.35834M24.5998 15.0013C24.5476 13.3509 24.0573 11.7117 23.1287 10.2733" stroke="#2C291F" stroke-linecap="round"/>
<path d="M8.77379 21.8512C12.3954 25.4728 18.2672 25.4728 21.8889 21.8512C23.7747 19.9654 24.6785 17.4695 24.6004 14.9989" stroke="#2C291F" stroke-dasharray="1 2"/>
</svg>
