<svg width="32" height="32" viewBox="0 0 32 32" fill="none" xmlns="http://www.w3.org/2000/svg">
<path d="M24 5L24 27L2 27C0.895432 27 9.84838e-07 26.1046 1.03312e-06 25L1.81993e-06 7C1.86821e-06 5.89543 0.895433 5 2 5L24 5Z" fill="#A19991"/>
<path d="M30 5C31.1046 5 32 5.89543 32 7L32 25C32 26.1046 31.1046 27 30 27L25 27L25 5L30 5Z" fill="#2C291F"/>
<rect x="3" y="7" width="18" height="18" rx="2" fill="#F1AF7E"/>
<path d="M10.3385 20.3385L6.90565 16.9056C6.44562 16.4456 6.5404 15.6758 7.09826 15.341L7.83049 14.9017C8.22397 14.6656 8.72762 14.7276 9.05209 15.0521L10.3543 16.3543C10.72 16.72 11.3042 16.7465 11.7016 16.4154L16.2984 12.5846C16.6958 12.2535 17.28 12.28 17.6457 12.6457L18.2442 13.2442C18.6532 13.6532 18.6309 14.3229 18.1956 14.7039L11.7041 20.3839C11.3079 20.7306 10.7107 20.7107 10.3385 20.3385Z" fill="black"/>
<rect x="27" y="20" width="3" height="3" rx="1" transform="rotate(-90 27 20)" fill="#F1AF7E"/>
<rect x="27" y="25" width="3" height="3" rx="1" transform="rotate(-90 27 25)" fill="#F1AF7E"/>
</svg>
