<svg width="32" height="32" viewBox="0 0 32 32" fill="none" xmlns="http://www.w3.org/2000/svg">
<g clip-path="url(#clip0_7700_186391)">
<path d="M3 32L29 32C30.1046 32 31 31.1046 31 30L31 26.2146C31 24.6316 30.4635 23.0954 29.478 21.8567L25.5246 16.8872C24.576 15.6948 23.1354 15 21.6117 15L10.3883 15C8.86456 15 7.42402 15.6948 6.47542 16.8872L2.52202 21.8566C1.53652 23.0954 0.999999 24.6316 0.999999 26.2146L0.999998 30C0.999998 31.1046 1.89543 32 3 32Z" fill="#A19991"/>
<path d="M13.0085 0.808869C14.6265 0.283151 16.3694 0.283151 17.9874 0.808869C19.6054 1.33459 21.0154 2.35904 22.0154 3.73539C23.0154 5.11174 23.5539 6.76933 23.5539 8.47059C23.5539 10.1719 23.0154 11.8294 22.0154 13.2058C21.0154 14.5821 19.6054 15.6066 17.9874 16.1323C16.3694 16.658 14.6265 16.658 13.0085 16.1323C11.3905 15.6066 9.98046 14.5821 8.98049 13.2058C7.98051 11.8294 7.44192 10.1719 7.44192 8.47059C7.44192 6.76933 7.98051 5.11174 8.98048 3.73539C9.98046 2.35904 11.3905 1.33459 13.0085 0.808869Z" fill="#2C291F"/>
<path d="M26 21.659V34H16L18.3369 29.1785C19.8564 26.0437 22.0336 23.2733 24.7205 21.056C25.2304 20.6351 26 20.9978 26 21.659Z" fill="#F1AF7E"/>
<path d="M8 21.659V34H18L15.6631 29.1785C14.1436 26.0437 11.9664 23.2733 9.27955 21.056C8.76961 20.6351 8 20.9978 8 21.659Z" fill="#F1AF7E"/>
<path d="M4 24.4168V32H17L15.2377 30.2021C12.4186 27.3259 9.04066 25.0571 5.3118 23.5353C4.68555 23.2798 4 23.7404 4 24.4168Z" fill="#2C291F"/>
<path d="M28 24.2483V32H17L18.7275 29.9171C20.9545 27.2319 23.7335 25.0577 26.8756 23.5423C27.3961 23.2913 28 23.6705 28 24.2483Z" fill="#2C291F"/>
</g>
<defs>
<clipPath id="clip0_7700_186391">
<rect width="32" height="32" fill="white"/>
</clipPath>
</defs>
</svg>
