<svg width="32" height="32" viewBox="0 0 32 32" fill="none" xmlns="http://www.w3.org/2000/svg">
<path d="M4 9H27V30C27 31.1046 26.1046 32 25 32H6C4.89543 32 4 31.1046 4 30V9Z" fill="#A19991"/>
<path d="M14.1477 14.6016C15.3511 14.2106 16.6474 14.2106 17.8507 14.6016C19.0541 14.9926 20.1028 15.7545 20.8466 16.7782C21.5903 17.8019 21.9909 19.0347 21.9909 20.3C21.9909 21.5653 21.5903 22.7981 20.8466 23.8218C20.1028 24.8455 19.0541 25.6074 17.8507 25.9984C16.6474 26.3894 15.3511 26.3894 14.1477 25.9984C12.9443 25.6074 11.8956 24.8455 11.1519 23.8218C10.4081 22.7981 10.0076 21.5653 10.0076 20.3C10.0076 19.0347 10.4081 17.8019 11.1519 16.7782C11.8956 15.7545 12.9443 14.9926 14.1477 14.6016Z" fill="#2C291F"/>
<path d="M4 2C4 0.895431 4.89543 0 6 0H25C26.1046 0 27 0.895431 27 2V7H4V2Z" fill="#A19991"/>
<rect x="20.5" y="3" width="2.7" height="2.7" rx="1.35" fill="#2C291F"/>
<rect x="16.8984" y="3" width="1.8" height="1.8" rx="0.9" fill="#2C291F"/>
<path d="M20.3503 10.4072C21.1447 9.24803 22.8553 9.24803 23.6497 10.4072L24.772 12.0447C25.032 12.4241 25.415 12.7023 25.8562 12.8324L27.7604 13.3937C29.1082 13.791 29.6369 15.418 28.7799 16.5317L27.5694 18.105C27.2889 18.4696 27.1426 18.9198 27.1553 19.3796L27.2098 21.364C27.2485 22.7687 25.8645 23.7742 24.5405 23.3034L22.6701 22.6383C22.2367 22.4842 21.7633 22.4842 21.3299 22.6383L19.4595 23.3034C18.1355 23.7742 16.7515 22.7687 16.7902 21.364L16.8447 19.3796C16.8574 18.9198 16.7111 18.4696 16.4306 18.105L15.2201 16.5317C14.3631 15.418 14.8917 13.791 16.2396 13.3937L18.1438 12.8324C18.585 12.7023 18.968 12.4241 19.228 12.0447L20.3503 10.4072Z" fill="#F1AF7E"/>
</svg>
