<svg width="32" height="32" viewBox="0 0 32 32" fill="none" xmlns="http://www.w3.org/2000/svg">
<g clip-path="url(#clip0_7700_186367)">
<ellipse cx="16" cy="15.5" rx="15" ry="14.5" fill="#A19991"/>
<path d="M13 1.29005C13.9693 1.09985 14.9726 1 16 1C24.2843 1 31 7.49187 31 15.5C31 20.2439 28.6433 24.4557 25 27.1011M19.9194 29.5C18.67 29.8261 17.356 30 16 30C7.71573 30 1 23.5081 1 15.5C1 10.5425 3.57372 6.16603 7.5 3.55113" stroke="#2C291F" stroke-linecap="round"/>
<path d="M20 6H12.7337L10.2366 16.9218C10.1155 17.4515 10.518 17.9565 11.0615 17.9565H16.3787L14.38 25.2997C14.2525 25.7679 14.8852 26.0473 15.1453 25.6376L21.0206 16.3868C21.3784 15.8234 20.9737 15.087 20.3064 15.087H16.3787L20 6Z" fill="#F1AF7E"/>
<path d="M3.05057 4.43434C1.23504 6.47682 2.38568 9.05513 3.18794 10.089L5.93513 6.99838L4.05391 10.3776C4.79445 10.5548 6.63388 10.506 8.06719 8.89354C9.50051 7.28105 10.1216 4.22496 10.253 2.89848C8.60866 2.5594 4.8661 2.39185 3.05057 4.43434Z" fill="#2C291F"/>
<path d="M29.3788 27.8048C31.3112 25.8724 30.3139 23.231 29.5737 22.1518L26.6498 25.0758L28.7262 21.8128C27.9974 21.5925 26.1582 21.5331 24.6327 23.0587C23.1072 24.5842 22.3077 27.5986 22.0986 28.915C23.7202 29.3501 27.4465 29.7371 29.3788 27.8048Z" fill="#2C291F"/>
</g>
<defs>
<clipPath id="clip0_7700_186367">
<rect width="32" height="32" fill="white"/>
</clipPath>
</defs>
</svg>
