<svg width="32" height="32" viewBox="0 0 32 32" fill="none" xmlns="http://www.w3.org/2000/svg">
<g clip-path="url(#clip0_7700_186189)">
<path d="M22 0L22 32L4 32C2.89543 32 2 31.1046 2 30L2 2C2 0.89543 2.89543 -8.35087e-07 4 -7.86805e-07L22 0Z" fill="#A19991"/>
<path d="M23 32L23 0L25 2.38498e-08C26.1046 3.70216e-08 27 0.895432 27 2L27 30C27 31.1046 26.1046 32 25 32L23 32Z" fill="#2C291F"/>
<path d="M20.533 29.9349L7.78785 17.1897C7.42187 16.8237 7.26907 16.2957 7.38307 15.7908L8.86202 9.2412C8.98746 8.68567 9.41507 8.24815 9.96758 8.11003L16.7712 6.40912C17.2852 6.28061 17.829 6.43123 18.2037 6.80591L30.9329 19.5351C31.522 20.1242 31.522 21.0793 30.9329 21.6684L22.6663 29.9349C22.0773 30.524 21.1221 30.524 20.533 29.9349Z" fill="#F1AF7E"/>
<rect x="11" y="10.0034" width="1.8" height="1.8" rx="0.9" fill="#2C291F"/>
<path d="M17.7669 23.8898L21.5843 27.9409L25.4017 23.8898C26.223 23.0183 26.223 21.6578 25.4017 20.7863L25.2617 20.6377C24.3685 19.6898 22.8614 19.6898 21.9682 20.6377L21.5843 21.0451L21.2005 20.6377C20.3072 19.6898 18.8002 19.6898 17.9069 20.6377L17.7669 20.7863C16.9457 21.6578 16.9457 23.0183 17.7669 23.8898Z" fill="#2C291F"/>
</g>
<defs>
<clipPath id="clip0_7700_186189">
<rect width="32" height="32" fill="white"/>
</clipPath>
</defs>
</svg>
