<svg width="32" height="32" viewBox="0 0 32 32" fill="none" xmlns="http://www.w3.org/2000/svg">
<g clip-path="url(#clip0_7700_186392)">
<circle cx="16" cy="16" r="16" fill="#F1AF7E"/>
<circle cx="16" cy="16" r="11" fill="#A19991"/>
<path d="M13.8 5.22004C14.5108 5.07575 15.2466 5 16 5C22.0751 5 27 9.92487 27 16C27 19.5988 25.2718 22.794 22.6 24.8008M18.8743 26.6207C17.958 26.868 16.9944 27 16 27C9.92487 27 5 22.0751 5 16C5 12.2391 6.88739 8.91906 9.76667 6.93534" stroke="#2C291F" stroke-linecap="round"/>
<path d="M10.1821 5.75749L8.02916 6.00363C7.61336 6.05117 7.43647 6.55802 7.7324 6.85395L9.63921 8.76076C9.93515 9.0567 10.442 8.87981 10.4895 8.464L10.7357 6.31105C10.7722 5.99141 10.5018 5.72095 10.1821 5.75749Z" fill="#2C291F"/>
<path d="M21.3101 26.7357L23.463 26.4895C23.8788 26.442 24.0557 25.9351 23.7598 25.6392L21.853 23.7324C21.557 23.4365 21.0502 23.6134 21.0027 24.0292L20.7565 26.1821C20.72 26.5018 20.9904 26.7722 21.3101 26.7357Z" fill="#2C291F"/>
<rect x="15" y="8" width="1.8" height="1.8" rx="0.9" fill="#2C291F"/>
<path d="M13.5 13H16V22" stroke="#2C291F" stroke-width="2" stroke-linecap="round" stroke-linejoin="round"/>
</g>
<defs>
<clipPath id="clip0_7700_186392">
<rect width="32" height="32" fill="white"/>
</clipPath>
</defs>
</svg>
