<svg width="32" height="32" viewBox="0 0 32 32" fill="none" xmlns="http://www.w3.org/2000/svg">
<path d="M6 4C6 2.89543 6.89543 2 8 2H11C12.1046 2 13 2.89543 13 4V13H6V4Z" fill="#2C291F"/>
<path d="M2.92246 11.8782C2.98684 10.8229 3.86147 10 4.91875 10H27.0812C28.1385 10 29.0132 10.8229 29.0775 11.8782L30 27H2L2.92246 11.8782Z" fill="#A19991"/>
<path d="M19 8C19 6.89543 19.8954 6 21 6H24C25.1046 6 26 6.89543 26 8V17H19V8Z" fill="#F1AF7E"/>
<path d="M4 2C4 0.89543 4.89543 0 6 0H13C14.1046 0 15 0.895431 15 2V5C15 6.10457 14.1046 7 13 7H6C4.89543 7 4 6.10457 4 5V2Z" fill="#A19991"/>
<path d="M5 15C5 13.8954 5.89543 13 7 13H12C13.1046 13 14 13.8954 14 15V16C14 17.1046 13.1046 18 12 18H7C5.89543 18 5 17.1046 5 16V15Z" fill="#2C291F"/>
<path d="M2 28H30V30C30 31.1046 29.1046 32 28 32H4C2.89543 32 2 31.1046 2 30V28Z" fill="#2C291F"/>
<rect x="5" y="20" width="1.8" height="1.8" rx="0.9" fill="#2C291F"/>
<rect x="8.60156" y="20" width="1.8" height="1.8" rx="0.9" fill="#2C291F"/>
<rect x="12" y="20" width="1.8" height="1.8" rx="0.9" fill="#2C291F"/>
<rect x="5" y="23" width="1.8" height="1.8" rx="0.9" fill="#2C291F"/>
<rect x="8.60156" y="23" width="1.8" height="1.8" rx="0.9" fill="#2C291F"/>
<rect x="12" y="23" width="1.8" height="1.8" rx="0.9" fill="#2C291F"/>
<rect x="18" y="17" width="9" height="1" rx="0.5" fill="#2C291F"/>
</svg>
