<svg width="20" height="19" viewBox="0 0 20 19" fill="none" xmlns="http://www.w3.org/2000/svg">
<path d="M5.16992 15.515V6.64648H15.3121V15.515C15.3121 16.2146 14.745 16.7817 14.0454 16.7817H6.43659C5.73703 16.7817 5.16992 16.2146 5.16992 15.515Z" fill="#AEAEAE"/>
<path d="M6.28581 4.74541H4.53568C4.1859 4.74541 3.90234 5.02896 3.90234 5.37874V6.33122C3.90234 6.681 4.1859 6.96455 4.53568 6.96455H15.9357C16.2855 6.96455 16.569 6.681 16.569 6.33122V5.37874C16.569 5.02896 16.2855 4.74541 15.9357 4.74541H14.1243C13.7768 4.74541 13.4446 4.60267 13.2054 4.3506L12.4547 3.55936C12.2155 3.30729 11.8833 3.16455 11.5358 3.16455H8.87431C8.52684 3.16455 8.19462 3.30729 7.95545 3.55936L7.20467 4.3506C6.9655 4.60267 6.63329 4.74541 6.28581 4.74541Z" fill="#AEAEAE"/>
<path d="M8.31055 7.59766V13.931" stroke="#2C291F" stroke-width="1.26667"/>
<path d="M12.1113 7.59766V13.931" stroke="#2C291F" stroke-width="1.26667"/>
</svg>
