<svg width="36" height="36" viewBox="0 0 36 36" fill="none" xmlns="http://www.w3.org/2000/svg">
<path d="M0.513672 19C0.513672 17.3431 1.85682 16 3.51367 16H12.9708C15.18 16 16.9708 17.7909 16.9708 20V28C16.9708 30.2091 15.18 32 12.9708 32H4.51367C2.30453 32 0.513672 30.2091 0.513672 28V19Z" fill="#DDDADA"/>
<path d="M7.93864 5.49329C8.11826 5.18767 8.44626 5 8.80075 5H12.4087C13.1161 5 13.5999 5.71453 13.3372 6.37139L8.53716 18.3714C8.38529 18.751 8.01759 19 7.60868 19H1.74769C0.974435 19 0.493759 18.1599 0.885578 17.4933L7.93864 5.49329Z" fill="#DDDADA"/>
<path d="M19.543 19C19.543 17.3431 20.8861 16 22.543 16H32.0001C34.2093 16 36.0001 17.7909 36.0001 20V28C36.0001 30.2091 34.2093 32 32.0001 32H23.543C21.3338 32 19.543 30.2091 19.543 28V19Z" fill="#DDDADA"/>
<path d="M26.9679 5.49329C27.1476 5.18767 27.4756 5 27.8301 5H31.438C32.1454 5 32.6292 5.71453 32.3665 6.37139L27.5665 18.3714C27.4146 18.751 27.0469 19 26.638 19H20.777C20.0037 19 19.5231 18.1599 19.9149 17.4933L26.9679 5.49329Z" fill="#DDDADA"/>
</svg>
