<svg width="233" height="429" viewBox="0 0 233 429" fill="none" xmlns="http://www.w3.org/2000/svg">
<g opacity="0.1" clip-path="url(#clip0_7700_151089)">
<mask id="mask0_7700_151089" style="mask-type:alpha" maskUnits="userSpaceOnUse" x="-115" y="3" width="338" height="430">
<path d="M222.422 432.203L1.04559 432.203L-114.998 2.99998L101.422 3L222.422 432.203Z" fill="#ACDFDF"/>
</mask>
<g mask="url(#mask0_7700_151089)">
<path d="M121.313 138.176L110.769 138.176L112.132 143.382L122.676 143.382L121.313 138.176Z" fill="white"/>
<path d="M100.184 138.176L89.6396 138.176L91.0106 143.382L101.555 143.382L100.184 138.176Z" fill="white"/>
<path d="M109.407 132.98L98.8628 132.98L100.225 138.187L110.77 138.187L109.407 132.98Z" fill="white"/>
<path d="M57.9811 138.176L47.437 138.176L48.808 143.382L59.3437 143.382L57.9811 138.176Z" fill="white"/>
<path d="M36.8517 138.176L26.3159 138.176L27.6786 143.382L38.2227 143.382L36.8517 138.176Z" fill="white"/>
<path d="M46.0743 132.98L35.5303 132.98L36.9012 138.187L47.4453 138.187L46.0743 132.98Z" fill="white"/>
<path d="M121.313 183.77L110.769 183.77L112.132 188.976L122.676 188.976L121.313 183.77Z" fill="white"/>
<path d="M100.184 183.77L89.6396 183.77L91.0106 188.976L101.555 188.976L100.184 183.77Z" fill="white"/>
<path d="M109.407 178.574L98.8628 178.574L100.225 183.78L110.77 183.78L109.407 178.574Z" fill="white"/>
<path d="M57.985 183.77L47.4409 183.77L48.8119 188.976L59.3477 188.976L57.985 183.77Z" fill="white"/>
<path d="M36.8556 183.77L26.3198 183.77L27.6825 188.976L38.2266 188.976L36.8556 183.77Z" fill="white"/>
<path d="M46.0782 178.574L35.5342 178.574L36.9051 183.78L47.4492 183.78L46.0782 178.574Z" fill="white"/>
<path d="M57.9715 138.177L68.5156 138.177L67.153 132.98L56.6089 132.98L57.9715 138.177Z" fill="white"/>
<path d="M79.1005 138.177L89.6445 138.177L88.2736 132.98L77.7295 132.98L79.1005 138.177Z" fill="white"/>
<path d="M69.8778 143.372L80.4219 143.372L79.0592 138.176L68.5151 138.176L69.8778 143.372Z" fill="white"/>
<path d="M-5.34876 138.177L5.19531 138.177L3.82434 132.98L-6.71974 132.98L-5.34876 138.177Z" fill="white"/>
<path d="M15.7723 138.177L26.3164 138.177L24.9537 132.98L14.4097 132.98L15.7723 138.177Z" fill="white"/>
<path d="M6.55798 143.372L17.0937 143.372L15.7311 138.176L5.18701 138.176L6.55798 143.372Z" fill="white"/>
<path d="M57.9755 183.77L68.5195 183.77L67.1569 178.574L56.6128 178.574L57.9755 183.77Z" fill="white"/>
<path d="M79.1044 183.77L89.6484 183.77L88.2775 178.574L77.7334 178.574L79.1044 183.77Z" fill="white"/>
<path d="M69.8817 188.966L80.4258 188.966L79.0631 183.77L68.519 183.77L69.8817 188.966Z" fill="white"/>
<path d="M-5.34876 183.77L5.19531 183.77L3.82434 178.574L-6.71974 178.574L-5.34876 183.77Z" fill="white"/>
<path d="M15.7723 183.77L26.3164 183.77L24.9537 178.574L14.4097 178.574L15.7723 183.77Z" fill="white"/>
<path d="M6.55798 188.966L17.0937 188.966L15.7311 183.77L5.18701 183.77L6.55798 188.966Z" fill="white"/>
<path d="M121.313 122.98L110.769 122.98L112.132 128.177L122.676 128.177L121.313 122.98Z" fill="white"/>
<path d="M100.184 122.98L89.6396 122.98L91.0106 128.177L101.555 128.177L100.184 122.98Z" fill="white"/>
<path d="M109.407 117.785L98.8628 117.785L100.225 122.981L110.77 122.981L109.407 117.785Z" fill="white"/>
<path d="M57.9811 122.98L47.437 122.98L48.808 128.177L59.3437 128.177L57.9811 122.98Z" fill="white"/>
<path d="M36.8517 122.98L26.3159 122.98L27.6786 128.177L38.2227 128.177L36.8517 122.98Z" fill="white"/>
<path d="M46.0743 117.785L35.5303 117.785L36.9012 122.981L47.4453 122.981L46.0743 117.785Z" fill="white"/>
<path d="M121.313 168.574L110.769 168.574L112.132 173.77L122.676 173.77L121.313 168.574Z" fill="white"/>
<path d="M100.184 168.574L89.6396 168.574L91.0106 173.77L101.555 173.77L100.184 168.574Z" fill="white"/>
<path d="M109.407 163.379L98.8628 163.379L100.225 168.575L110.77 168.575L109.407 163.379Z" fill="white"/>
<path d="M57.9811 168.574L47.437 168.574L48.808 173.77L59.3437 173.77L57.9811 168.574Z" fill="white"/>
<path d="M36.8556 168.574L26.3198 168.574L27.6825 173.77L38.2266 173.77L36.8556 168.574Z" fill="white"/>
<path d="M46.0782 163.379L35.5342 163.379L36.9051 168.575L47.4492 168.575L46.0782 163.379Z" fill="white"/>
<path d="M57.9755 153.382L68.5195 153.382L67.1569 148.176L56.6128 148.176L57.9755 153.382Z" fill="white"/>
<path d="M79.1044 153.382L89.6484 153.382L88.2775 148.176L77.7334 148.176L79.1044 153.382Z" fill="white"/>
<path d="M69.8817 158.577L80.4258 158.577L79.0631 153.371L68.519 153.371L69.8817 158.577Z" fill="white"/>
<path d="M-5.34876 153.382L5.19531 153.382L3.82434 148.176L-6.71974 148.176L-5.34876 153.382Z" fill="white"/>
<path d="M15.7723 153.382L26.3164 153.382L24.9537 148.176L14.4097 148.176L15.7723 153.382Z" fill="white"/>
<path d="M6.55798 158.577L17.0937 158.577L15.7311 153.371L5.18701 153.371L6.55798 158.577Z" fill="white"/>
<path d="M57.9755 198.976L68.5195 198.976L67.1569 193.77L56.6128 193.77L57.9755 198.976Z" fill="white"/>
<path d="M79.1044 198.976L89.6484 198.976L88.2775 193.77L77.7334 193.77L79.1044 198.976Z" fill="white"/>
<path d="M69.8817 204.171L80.4258 204.171L79.0631 198.965L68.519 198.965L69.8817 204.171Z" fill="white"/>
<path d="M-5.34876 198.976L5.19531 198.976L3.82434 193.77L-6.71974 193.77L-5.34876 198.976Z" fill="white"/>
<path d="M15.7723 198.976L26.3164 198.976L24.9537 193.77L14.4097 193.77L15.7723 198.976Z" fill="white"/>
<path d="M6.55798 204.171L17.0937 204.171L15.7311 198.965L5.18701 198.965L6.55798 204.171Z" fill="white"/>
<path d="M121.313 153.383L110.769 153.383L112.132 158.579L122.676 158.579L121.313 153.383Z" fill="white"/>
<path d="M100.184 153.383L89.6396 153.383L91.0106 158.579L101.555 158.579L100.184 153.383Z" fill="white"/>
<path d="M109.407 148.184L98.8628 148.184L100.225 153.38L110.77 153.38L109.407 148.184Z" fill="white"/>
<path d="M57.985 153.383L47.4409 153.383L48.8119 158.579L59.3477 158.579L57.985 153.383Z" fill="white"/>
<path d="M36.8517 153.383L26.3159 153.383L27.6786 158.579L38.2227 158.579L36.8517 153.383Z" fill="white"/>
<path d="M46.0743 148.184L35.5303 148.184L36.9012 153.38L47.4453 153.38L46.0743 148.184Z" fill="white"/>
<path d="M121.313 198.977L110.769 198.977L112.132 204.173L122.676 204.173L121.313 198.977Z" fill="white"/>
<path d="M100.184 198.977L89.6396 198.977L91.0106 204.173L101.555 204.173L100.184 198.977Z" fill="white"/>
<path d="M109.407 193.777L98.8628 193.777L100.225 198.973L110.77 198.973L109.407 193.777Z" fill="white"/>
<path d="M57.985 198.977L47.4409 198.977L48.8119 204.173L59.3477 204.173L57.985 198.977Z" fill="white"/>
<path d="M36.8556 198.977L26.3198 198.977L27.6825 204.173L38.2266 204.173L36.8556 198.977Z" fill="white"/>
<path d="M46.0782 193.777L35.5342 193.777L36.9051 198.973L47.4492 198.973L46.0782 193.777Z" fill="white"/>
<path d="M57.9755 122.981L68.5195 122.981L67.1569 117.785L56.6128 117.785L57.9755 122.981Z" fill="white"/>
<path d="M79.1044 122.981L89.6484 122.981L88.2775 117.785L77.7334 117.785L79.1044 122.981Z" fill="white"/>
<path d="M69.8778 128.177L80.4219 128.177L79.0592 122.98L68.5151 122.98L69.8778 128.177Z" fill="white"/>
<path d="M-5.34876 122.981L5.19531 122.981L3.82434 117.785L-6.71974 117.785L-5.34876 122.981Z" fill="white"/>
<path d="M15.7723 122.981L26.3164 122.981L24.9537 117.785L14.4097 117.785L15.7723 122.981Z" fill="white"/>
<path d="M6.55798 128.177L17.0937 128.177L15.7311 122.98L5.18701 122.98L6.55798 128.177Z" fill="white"/>
<path d="M57.9715 168.575L68.5156 168.575L67.153 163.379L56.6089 163.379L57.9715 168.575Z" fill="white"/>
<path d="M79.1005 168.575L89.6445 168.575L88.2736 163.379L77.7295 163.379L79.1005 168.575Z" fill="white"/>
<path d="M69.8778 173.77L80.4219 173.77L79.0592 168.574L68.5151 168.574L69.8778 173.77Z" fill="white"/>
<path d="M-5.34876 168.575L5.19531 168.575L3.82434 163.379L-6.71974 163.379L-5.34876 168.575Z" fill="white"/>
<path d="M15.7723 168.575L26.3164 168.575L24.9537 163.379L14.4097 163.379L15.7723 168.575Z" fill="white"/>
<path d="M6.55798 173.77L17.0937 173.77L15.7311 168.574L5.18701 168.574L6.55798 173.77Z" fill="white"/>
<path d="M121.313 229.363L110.769 229.363L112.132 234.569L122.676 234.569L121.313 229.363Z" fill="white"/>
<path d="M100.184 229.363L89.6396 229.363L91.0106 234.569L101.555 234.569L100.184 229.363Z" fill="white"/>
<path d="M109.407 224.168L98.8628 224.168L100.225 229.374L110.77 229.374L109.407 224.168Z" fill="white"/>
<path d="M57.985 229.363L47.4409 229.363L48.8119 234.569L59.3477 234.569L57.985 229.363Z" fill="white"/>
<path d="M36.8517 229.363L26.3159 229.363L27.6786 234.569L38.2227 234.569L36.8517 229.363Z" fill="white"/>
<path d="M46.0743 224.168L35.5303 224.168L36.9012 229.374L47.4453 229.374L46.0743 224.168Z" fill="white"/>
<path d="M121.313 274.957L110.769 274.957L112.132 280.163L122.676 280.163L121.313 274.957Z" fill="white"/>
<path d="M100.184 274.957L89.6396 274.957L91.0106 280.163L101.555 280.163L100.184 274.957Z" fill="white"/>
<path d="M109.407 269.762L98.8628 269.762L100.225 274.968L110.77 274.968L109.407 269.762Z" fill="white"/>
<path d="M57.985 274.957L47.4409 274.957L48.8119 280.163L59.3477 280.163L57.985 274.957Z" fill="white"/>
<path d="M36.8556 274.957L26.3198 274.957L27.6825 280.163L38.2266 280.163L36.8556 274.957Z" fill="white"/>
<path d="M46.0782 269.762L35.5342 269.762L36.9051 274.968L47.4492 274.968L46.0782 269.762Z" fill="white"/>
<path d="M57.9715 229.364L68.5156 229.364L67.153 224.168L56.6089 224.168L57.9715 229.364Z" fill="white"/>
<path d="M79.1044 229.364L89.6484 229.364L88.2775 224.168L77.7334 224.168L79.1044 229.364Z" fill="white"/>
<path d="M69.8817 234.559L80.4258 234.559L79.0631 229.363L68.519 229.363L69.8817 234.559Z" fill="white"/>
<path d="M-5.34876 229.364L5.19531 229.364L3.82434 224.168L-6.71974 224.168L-5.34876 229.364Z" fill="white"/>
<path d="M15.7723 229.364L26.3164 229.364L24.9537 224.168L14.4097 224.168L15.7723 229.364Z" fill="white"/>
<path d="M6.55798 234.559L17.0937 234.559L15.7311 229.363L5.18701 229.363L6.55798 234.559Z" fill="white"/>
<path d="M57.9715 274.958L68.5156 274.958L67.153 269.762L56.6089 269.762L57.9715 274.958Z" fill="white"/>
<path d="M79.1005 274.958L89.6445 274.958L88.2736 269.762L77.7295 269.762L79.1005 274.958Z" fill="white"/>
<path d="M69.8817 280.153L80.4258 280.153L79.0631 274.957L68.519 274.957L69.8817 280.153Z" fill="white"/>
<path d="M-5.34876 274.958L5.19531 274.958L3.82434 269.762L-6.71974 269.762L-5.34876 274.958Z" fill="white"/>
<path d="M15.7723 274.958L26.3164 274.958L24.9537 269.762L14.4097 269.762L15.7723 274.958Z" fill="white"/>
<path d="M6.55798 280.153L17.0937 280.153L15.7311 274.957L5.18701 274.957L6.55798 280.153Z" fill="white"/>
<path d="M121.313 214.172L110.769 214.172L112.132 219.368L122.676 219.368L121.313 214.172Z" fill="white"/>
<path d="M100.184 214.168L89.6396 214.168L91.0106 219.364L101.555 219.364L100.184 214.168Z" fill="white"/>
<path d="M109.407 208.973L98.8628 208.973L100.225 214.169L110.77 214.169L109.407 208.973Z" fill="white"/>
<path d="M57.9811 214.172L47.437 214.172L48.808 219.368L59.3437 219.368L57.9811 214.172Z" fill="white"/>
<path d="M36.8517 214.172L26.3159 214.172L27.6786 219.368L38.2227 219.368L36.8517 214.172Z" fill="white"/>
<path d="M46.0743 208.973L35.5303 208.973L36.9012 214.169L47.4453 214.169L46.0743 208.973Z" fill="white"/>
<path d="M121.313 259.766L110.769 259.766L112.132 264.962L122.676 264.962L121.313 259.766Z" fill="white"/>
<path d="M100.184 259.762L89.6396 259.762L91.0106 264.958L101.555 264.958L100.184 259.762Z" fill="white"/>
<path d="M109.407 254.566L98.8628 254.566L100.225 259.762L110.77 259.762L109.407 254.566Z" fill="white"/>
<path d="M57.9811 259.762L47.437 259.762L48.808 264.958L59.3437 264.958L57.9811 259.762Z" fill="white"/>
<path d="M36.8556 259.762L26.3198 259.762L27.6825 264.958L38.2266 264.958L36.8556 259.762Z" fill="white"/>
<path d="M46.0782 254.566L35.5342 254.566L36.9051 259.762L47.4492 259.762L46.0782 254.566Z" fill="white"/>
<path d="M57.9755 244.569L68.5195 244.569L67.1569 239.363L56.6128 239.363L57.9755 244.569Z" fill="white"/>
<path d="M79.1044 244.569L89.6484 244.569L88.2775 239.363L77.7334 239.363L79.1044 244.569Z" fill="white"/>
<path d="M69.8817 249.765L80.4258 249.765L79.0631 244.559L68.519 244.559L69.8817 249.765Z" fill="white"/>
<path d="M-5.34876 244.569L5.19531 244.569L3.82434 239.363L-6.71974 239.363L-5.34876 244.569Z" fill="white"/>
<path d="M15.7723 244.569L26.3164 244.569L24.9537 239.363L14.4097 239.363L15.7723 244.569Z" fill="white"/>
<path d="M6.55798 249.765L17.0937 249.765L15.7311 244.559L5.18701 244.559L6.55798 249.765Z" fill="white"/>
<path d="M57.9755 290.163L68.5195 290.163L67.1569 284.957L56.6128 284.957L57.9755 290.163Z" fill="white"/>
<path d="M79.1044 290.163L89.6484 290.163L88.2775 284.957L77.7334 284.957L79.1044 290.163Z" fill="white"/>
<path d="M69.8817 295.359L80.4258 295.359L79.0631 290.152L68.519 290.152L69.8817 295.359Z" fill="white"/>
<path d="M-5.34876 290.163L5.19531 290.163L3.82434 284.957L-6.71974 284.957L-5.34876 290.163Z" fill="white"/>
<path d="M15.7723 290.163L26.3164 290.163L24.9537 284.957L14.4097 284.957L15.7723 290.163Z" fill="white"/>
<path d="M6.55798 295.359L17.0937 295.359L15.7311 290.152L5.18701 290.152L6.55798 295.359Z" fill="white"/>
<path d="M121.313 244.57L110.769 244.57L112.132 249.766L122.676 249.766L121.313 244.57Z" fill="white"/>
<path d="M100.184 244.57L89.6396 244.57L91.0106 249.766L101.555 249.766L100.184 244.57Z" fill="white"/>
<path d="M109.407 239.371L98.8628 239.371L100.225 244.567L110.77 244.567L109.407 239.371Z" fill="white"/>
<path d="M57.9845 244.57L47.4404 244.57L48.8114 249.766L59.3555 249.766L57.9845 244.57Z" fill="white"/>
<path d="M36.86 244.57L26.3159 244.57L27.6786 249.766L38.2227 249.766L36.86 244.57Z" fill="white"/>
<path d="M46.0743 239.371L35.5303 239.371L36.9012 244.567L47.4453 244.567L46.0743 239.371Z" fill="white"/>
<path d="M121.313 290.164L110.769 290.164L112.132 295.36L122.676 295.36L121.313 290.164Z" fill="white"/>
<path d="M100.184 290.164L89.6396 290.164L91.0106 295.36L101.555 295.36L100.184 290.164Z" fill="white"/>
<path d="M109.407 284.965L98.8628 284.965L100.225 290.161L110.77 290.161L109.407 284.965Z" fill="white"/>
<path d="M57.985 290.164L47.4409 290.164L48.8119 295.36L59.3477 295.36L57.985 290.164Z" fill="white"/>
<path d="M36.8556 290.164L26.3198 290.164L27.6825 295.36L38.2266 295.36L36.8556 290.164Z" fill="white"/>
<path d="M46.0782 284.969L35.5342 284.969L36.9051 290.165L47.4492 290.165L46.0782 284.969Z" fill="white"/>
<path d="M57.9715 214.169L68.5156 214.169L67.153 208.973L56.6089 208.973L57.9715 214.169Z" fill="white"/>
<path d="M79.1005 214.169L89.6445 214.169L88.2736 208.973L77.7295 208.973L79.1005 214.169Z" fill="white"/>
<path d="M69.8778 219.368L80.4219 219.368L79.0592 214.172L68.5151 214.172L69.8778 219.368Z" fill="white"/>
<path d="M-5.34876 214.169L5.19531 214.169L3.82434 208.973L-6.71974 208.973L-5.34876 214.169Z" fill="white"/>
<path d="M15.7723 214.169L26.3164 214.169L24.9537 208.973L14.4097 208.973L15.7723 214.169Z" fill="white"/>
<path d="M6.55798 219.368L17.0937 219.368L15.7311 214.172L5.18701 214.172L6.55798 219.368Z" fill="white"/>
<path d="M57.9715 259.762L68.5156 259.762L67.153 254.566L56.6089 254.566L57.9715 259.762Z" fill="white"/>
<path d="M79.1005 259.762L89.6445 259.762L88.2736 254.566L77.7295 254.566L79.1005 259.762Z" fill="white"/>
<path d="M69.8778 264.958L80.4219 264.958L79.0509 259.762L68.5151 259.762L69.8778 264.958Z" fill="white"/>
<path d="M-5.34876 259.762L5.19531 259.762L3.82434 254.566L-6.71974 254.566L-5.34876 259.762Z" fill="white"/>
<path d="M15.7723 259.762L26.3164 259.762L24.9537 254.566L14.4097 254.566L15.7723 259.762Z" fill="white"/>
<path d="M6.55798 264.958L17.0937 264.958L15.7311 259.762L5.18701 259.762L6.55798 264.958Z" fill="white"/>
<path d="M121.317 2.98437L110.773 2.98437L112.136 8.19053L122.68 8.19053L121.317 2.98437Z" fill="white"/>
<path d="M100.188 2.98437L89.6435 2.98437L91.0145 8.19053L101.559 8.19053L100.188 2.98437Z" fill="white"/>
<path d="M57.9889 2.98437L47.4448 2.98437L48.8158 8.19053L59.3516 8.19053L57.9889 2.98437Z" fill="white"/>
<path d="M36.8595 2.98437L26.3237 2.98437L27.6864 8.19053L38.2305 8.19053L36.8595 2.98437Z" fill="white"/>
<path d="M69.8856 8.18045L80.4297 8.18045L79.067 2.98437L68.5229 2.98437L69.8856 8.18045Z" fill="white"/>
<path d="M6.56189 8.18045L17.0977 8.18045L15.735 2.98437L5.19092 2.98437L6.56189 8.18045Z" fill="white"/>
<path d="M57.9794 18.1905L68.5234 18.1905L67.1608 12.9844L56.6167 12.9844L57.9794 18.1905Z" fill="white"/>
<path d="M79.1083 18.1905L89.6523 18.1905L88.2814 12.9844L77.7373 12.9844L79.1083 18.1905Z" fill="white"/>
<path d="M69.8856 23.3858L80.4297 23.3859L79.067 18.1797L68.5229 18.1797L69.8856 23.3858Z" fill="white"/>
<path d="M-5.34486 18.1905L5.19922 18.1905L3.82824 12.9844L-6.71583 12.9844L-5.34486 18.1905Z" fill="white"/>
<path d="M15.7762 18.1905L26.3203 18.1905L24.9576 12.9844L14.4136 12.9844L15.7762 18.1905Z" fill="white"/>
<path d="M6.56189 23.3858L17.0977 23.3859L15.735 18.1797L5.19092 18.1797L6.56189 23.3858Z" fill="white"/>
<path d="M121.317 18.1914L110.773 18.1914L112.136 23.3875L122.68 23.3875L121.317 18.1914Z" fill="white"/>
<path d="M100.188 18.1914L89.6435 18.1914L91.0145 23.3875L101.559 23.3875L100.188 18.1914Z" fill="white"/>
<path d="M109.411 12.9922L98.8667 12.9922L100.229 18.1883L110.773 18.1883L109.411 12.9922Z" fill="white"/>
<path d="M57.9889 18.1914L47.4448 18.1914L48.8158 23.3875L59.3516 23.3875L57.9889 18.1914Z" fill="white"/>
<path d="M36.8595 18.1914L26.3237 18.1914L27.6864 23.3875L38.2305 23.3875L36.8595 18.1914Z" fill="white"/>
<path d="M46.0821 12.9922L35.5381 12.9922L36.909 18.1883L47.4531 18.1883L46.0821 12.9922Z" fill="white"/>
<path d="M121.317 48.5781L110.773 48.5781L112.136 53.7843L122.68 53.7843L121.317 48.5781Z" fill="white"/>
<path d="M100.188 48.5781L89.6435 48.5781L91.0145 53.7843L101.559 53.7843L100.188 48.5781Z" fill="white"/>
<path d="M109.411 43.3828L98.8667 43.3828L100.229 48.589L110.773 48.589L109.411 43.3828Z" fill="white"/>
<path d="M57.9889 48.5781L47.4448 48.5781L48.8158 53.7843L59.3516 53.7843L57.9889 48.5781Z" fill="white"/>
<path d="M36.8556 48.5781L26.3198 48.5781L27.6825 53.7843L38.2266 53.7843L36.8556 48.5781Z" fill="white"/>
<path d="M46.0782 43.3828L35.5342 43.3828L36.9051 48.589L47.4492 48.589L46.0782 43.3828Z" fill="white"/>
<path d="M121.317 94.1719L110.773 94.1719L112.136 99.378L122.68 99.378L121.317 94.1719Z" fill="white"/>
<path d="M100.188 94.1719L89.6435 94.1719L91.0145 99.378L101.559 99.378L100.188 94.1719Z" fill="white"/>
<path d="M109.411 88.9766L98.8667 88.9766L100.229 94.1827L110.773 94.1827L109.411 88.9766Z" fill="white"/>
<path d="M57.9889 94.1719L47.4448 94.1719L48.8158 99.378L59.3516 99.378L57.9889 94.1719Z" fill="white"/>
<path d="M36.8595 94.1719L26.3237 94.1719L27.6864 99.378L38.2305 99.378L36.8595 94.1719Z" fill="white"/>
<path d="M46.0821 88.9766L35.5381 88.9766L36.909 94.1827L47.4531 94.1827L46.0821 88.9766Z" fill="white"/>
<path d="M57.9755 48.5789L68.5195 48.5789L67.1569 43.3828L56.6128 43.3828L57.9755 48.5789Z" fill="white"/>
<path d="M79.1083 48.5789L89.6523 48.5789L88.2814 43.3828L77.7373 43.3828L79.1083 48.5789Z" fill="white"/>
<path d="M69.8856 53.7742L80.4297 53.7742L79.067 48.5781L68.5229 48.5781L69.8856 53.7742Z" fill="white"/>
<path d="M-5.34486 48.5789L5.19922 48.5789L3.82824 43.3828L-6.71583 43.3828L-5.34486 48.5789Z" fill="white"/>
<path d="M15.7762 48.5789L26.3203 48.5789L24.9576 43.3828L14.4136 43.3828L15.7762 48.5789Z" fill="white"/>
<path d="M6.56189 53.7742L17.0977 53.7742L15.735 48.5781L5.19092 48.5781L6.56189 53.7742Z" fill="white"/>
<path d="M57.9755 94.1726L68.5195 94.1726L67.1569 88.9766L56.6128 88.9766L57.9755 94.1726Z" fill="white"/>
<path d="M79.1044 94.1726L89.6484 94.1726L88.2775 88.9766L77.7334 88.9766L79.1044 94.1726Z" fill="white"/>
<path d="M69.8856 99.3679L80.4297 99.3679L79.067 94.1719L68.5229 94.1719L69.8856 99.3679Z" fill="white"/>
<path d="M-5.34486 94.1726L5.19922 94.1726L3.82824 88.9766L-6.71583 88.9766L-5.34486 94.1726Z" fill="white"/>
<path d="M15.7762 94.1726L26.3203 94.1726L24.9576 88.9766L14.4136 88.9766L15.7762 94.1726Z" fill="white"/>
<path d="M6.56189 99.3679L17.0977 99.3679L15.735 94.1719L5.19092 94.1719L6.56189 99.3679Z" fill="white"/>
<path d="M121.317 33.3867L110.773 33.3867L112.136 38.5828L122.68 38.5828L121.317 33.3867Z" fill="white"/>
<path d="M100.188 33.3828L89.6435 33.3828L91.0145 38.5789L101.559 38.5789L100.188 33.3828Z" fill="white"/>
<path d="M109.411 28.1875L98.8667 28.1875L100.229 33.3836L110.773 33.3836L109.411 28.1875Z" fill="white"/>
<path d="M57.985 33.3867L47.4409 33.3867L48.8119 38.5828L59.3477 38.5828L57.985 33.3867Z" fill="white"/>
<path d="M36.8556 33.3867L26.3198 33.3867L27.6825 38.5828L38.2266 38.5828L36.8556 33.3867Z" fill="white"/>
<path d="M46.0782 28.1875L35.5342 28.1875L36.9051 33.3836L47.4492 33.3836L46.0782 28.1875Z" fill="white"/>
<path d="M121.317 78.9805L110.773 78.9805L112.136 84.1765L122.68 84.1765L121.317 78.9805Z" fill="white"/>
<path d="M100.188 78.9766L89.6435 78.9766L91.0145 84.1726L101.559 84.1726L100.188 78.9766Z" fill="white"/>
<path d="M109.411 73.7812L98.8667 73.7812L100.229 78.9773L110.773 78.9773L109.411 73.7812Z" fill="white"/>
<path d="M57.985 78.9766L47.4409 78.9766L48.8119 84.1726L59.3477 84.1726L57.985 78.9766Z" fill="white"/>
<path d="M36.8595 78.9766L26.3237 78.9766L27.6864 84.1726L38.2305 84.1726L36.8595 78.9766Z" fill="white"/>
<path d="M46.0821 73.7812L35.5381 73.7812L36.909 78.9773L47.4531 78.9773L46.0821 73.7812Z" fill="white"/>
<path d="M57.9794 63.7843L68.5234 63.7843L67.1608 58.5781L56.6167 58.5781L57.9794 63.7843Z" fill="white"/>
<path d="M79.1083 63.7843L89.6523 63.7843L88.2814 58.5781L77.7373 58.5781L79.1083 63.7843Z" fill="white"/>
<path d="M69.8856 68.9796L80.4297 68.9796L79.067 63.7734L68.5229 63.7734L69.8856 68.9796Z" fill="white"/>
<path d="M-5.34486 63.7843L5.19922 63.7843L3.82824 58.5781L-6.71583 58.5781L-5.34486 63.7843Z" fill="white"/>
<path d="M15.7762 63.7843L26.3203 63.7843L24.9576 58.5781L14.4136 58.5781L15.7762 63.7843Z" fill="white"/>
<path d="M6.56189 68.9796L17.0977 68.9796L15.735 63.7734L5.19092 63.7734L6.56189 68.9796Z" fill="white"/>
<path d="M57.9794 109.378L68.5234 109.378L67.1608 104.172L56.6167 104.172L57.9794 109.378Z" fill="white"/>
<path d="M79.1083 109.378L89.6523 109.378L88.2814 104.172L77.7373 104.172L79.1083 109.378Z" fill="white"/>
<path d="M69.8856 114.573L80.4297 114.573L79.067 109.367L68.5229 109.367L69.8856 114.573Z" fill="white"/>
<path d="M-5.34486 109.378L5.19922 109.378L3.82824 104.172L-6.71583 104.172L-5.34486 109.378Z" fill="white"/>
<path d="M15.7762 109.378L26.3203 109.378L24.9576 104.172L14.4136 104.172L15.7762 109.378Z" fill="white"/>
<path d="M6.56189 114.573L17.0977 114.573L15.735 109.367L5.19092 109.367L6.56189 114.573Z" fill="white"/>
<path d="M121.317 63.7852L110.773 63.7852L112.136 68.9812L122.68 68.9812L121.317 63.7852Z" fill="white"/>
<path d="M100.188 63.7852L89.6435 63.7852L91.0145 68.9812L101.559 68.9812L100.188 63.7852Z" fill="white"/>
<path d="M109.411 58.5859L98.8667 58.5859L100.229 63.782L110.773 63.782L109.411 58.5859Z" fill="white"/>
<path d="M57.9884 63.7852L47.4443 63.7852L48.8153 68.9812L59.3594 68.9812L57.9884 63.7852Z" fill="white"/>
<path d="M36.8639 63.7852L26.3198 63.7852L27.6825 68.9812L38.2266 68.9812L36.8639 63.7852Z" fill="white"/>
<path d="M46.0782 58.5859L35.5342 58.5859L36.9051 63.782L47.4492 63.782L46.0782 58.5859Z" fill="white"/>
<path d="M121.317 109.379L110.773 109.379L112.136 114.575L122.68 114.575L121.317 109.379Z" fill="white"/>
<path d="M100.188 109.379L89.6435 109.379L91.0145 114.575L101.559 114.575L100.188 109.379Z" fill="white"/>
<path d="M109.411 104.18L98.8667 104.18L100.229 109.376L110.773 109.376L109.411 104.18Z" fill="white"/>
<path d="M57.9889 109.379L47.4448 109.379L48.8158 114.575L59.3516 114.575L57.9889 109.379Z" fill="white"/>
<path d="M36.8595 109.379L26.3237 109.379L27.6864 114.575L38.2305 114.575L36.8595 109.379Z" fill="white"/>
<path d="M46.0821 104.184L35.5381 104.184L36.909 109.38L47.4531 109.38L46.0821 104.184Z" fill="white"/>
<path d="M57.9755 33.3836L68.5195 33.3836L67.1569 28.1875L56.6128 28.1875L57.9755 33.3836Z" fill="white"/>
<path d="M79.1044 33.3836L89.6484 33.3836L88.2775 28.1875L77.7334 28.1875L79.1044 33.3836Z" fill="white"/>
<path d="M69.8817 38.5828L80.4258 38.5828L79.0631 33.3867L68.519 33.3867L69.8817 38.5828Z" fill="white"/>
<path d="M-5.34486 33.3836L5.19922 33.3836L3.82824 28.1875L-6.71583 28.1875L-5.34486 33.3836Z" fill="white"/>
<path d="M15.7762 33.3836L26.3203 33.3836L24.9576 28.1875L14.4136 28.1875L15.7762 33.3836Z" fill="white"/>
<path d="M6.56189 38.5828L17.0977 38.5828L15.735 33.3867L5.19092 33.3867L6.56189 38.5828Z" fill="white"/>
<path d="M57.9755 78.9773L68.5195 78.9773L67.1569 73.7812L56.6128 73.7812L57.9755 78.9773Z" fill="white"/>
<path d="M79.1044 78.9773L89.6484 78.9773L88.2775 73.7812L77.7334 73.7812L79.1044 78.9773Z" fill="white"/>
<path d="M69.8817 84.1726L80.4258 84.1726L79.0548 78.9766L68.519 78.9766L69.8817 84.1726Z" fill="white"/>
<path d="M-5.34486 78.9773L5.19922 78.9773L3.82824 73.7812L-6.71583 73.7812L-5.34486 78.9773Z" fill="white"/>
<path d="M15.7762 78.9773L26.3203 78.9773L24.9576 73.7812L14.4136 73.7812L15.7762 78.9773Z" fill="white"/>
<path d="M6.56189 84.1726L17.0977 84.1726L15.735 78.9766L5.19092 78.9766L6.56189 84.1726Z" fill="white"/>
<path d="M121.317 290.301L110.773 290.301L112.136 295.507L122.68 295.507L121.317 290.301Z" fill="white"/>
<path d="M100.188 290.301L89.6435 290.301L91.0145 295.507L101.559 295.507L100.188 290.301Z" fill="white"/>
<path d="M109.411 285.105L98.8667 285.105L100.229 290.312L110.773 290.312L109.411 285.105Z" fill="white"/>
<path d="M57.985 290.301L47.4409 290.301L48.8119 295.507L59.3477 295.507L57.985 290.301Z" fill="white"/>
<path d="M36.8556 290.301L26.3198 290.301L27.6825 295.507L38.2266 295.507L36.8556 290.301Z" fill="white"/>
<path d="M46.0782 285.105L35.5342 285.105L36.9051 290.312L47.4492 290.312L46.0782 285.105Z" fill="white"/>
<path d="M121.317 335.895L110.773 335.895L112.136 341.101L122.68 341.101L121.317 335.895Z" fill="white"/>
<path d="M100.188 335.895L89.6435 335.895L91.0145 341.101L101.559 341.101L100.188 335.895Z" fill="white"/>
<path d="M109.411 330.699L98.8667 330.699L100.229 335.905L110.773 335.905L109.411 330.699Z" fill="white"/>
<path d="M57.9889 335.895L47.4448 335.895L48.8158 341.101L59.3516 341.101L57.9889 335.895Z" fill="white"/>
<path d="M36.8556 335.895L26.3198 335.895L27.6825 341.101L38.2266 341.101L36.8556 335.895Z" fill="white"/>
<path d="M46.0821 330.699L35.5381 330.699L36.909 335.905L47.4531 335.905L46.0821 330.699Z" fill="white"/>
<path d="M57.9755 290.302L68.5195 290.302L67.1569 285.105L56.6128 285.105L57.9755 290.302Z" fill="white"/>
<path d="M79.1044 290.302L89.6484 290.302L88.2775 285.105L77.7334 285.105L79.1044 290.302Z" fill="white"/>
<path d="M69.8817 295.497L80.4258 295.497L79.0631 290.301L68.519 290.301L69.8817 295.497Z" fill="white"/>
<path d="M-5.34486 290.302L5.19922 290.302L3.82824 285.105L-6.71583 285.105L-5.34486 290.302Z" fill="white"/>
<path d="M15.7762 290.302L26.3203 290.302L24.9576 285.105L14.4136 285.105L15.7762 290.302Z" fill="white"/>
<path d="M6.56189 295.497L17.0977 295.497L15.735 290.301L5.19092 290.301L6.56189 295.497Z" fill="white"/>
<path d="M57.9794 335.895L68.5234 335.895L67.1608 330.699L56.6167 330.699L57.9794 335.895Z" fill="white"/>
<path d="M79.1083 335.895L89.6523 335.895L88.2814 330.699L77.7373 330.699L79.1083 335.895Z" fill="white"/>
<path d="M69.8856 341.091L80.4297 341.091L79.067 335.895L68.5229 335.895L69.8856 341.091Z" fill="white"/>
<path d="M-5.34486 335.895L5.19922 335.895L3.82824 330.699L-6.71583 330.699L-5.34486 335.895Z" fill="white"/>
<path d="M15.7762 335.895L26.3203 335.895L24.9576 330.699L14.4136 330.699L15.7762 335.895Z" fill="white"/>
<path d="M6.56189 341.091L17.0977 341.091L15.735 335.895L5.19092 335.895L6.56189 341.091Z" fill="white"/>
<path d="M121.317 275.105L110.773 275.105L112.136 280.302L122.68 280.302L121.317 275.105Z" fill="white"/>
<path d="M100.188 275.105L89.6435 275.105L91.0145 280.302L101.559 280.302L100.188 275.105Z" fill="white"/>
<path d="M109.411 269.91L98.8667 269.91L100.229 275.106L110.773 275.106L109.411 269.91Z" fill="white"/>
<path d="M57.985 275.105L47.4409 275.105L48.8119 280.302L59.3477 280.302L57.985 275.105Z" fill="white"/>
<path d="M36.8556 275.105L26.3198 275.105L27.6825 280.302L38.2266 280.302L36.8556 275.105Z" fill="white"/>
<path d="M46.0821 269.91L35.5381 269.91L36.909 275.106L47.4531 275.106L46.0821 269.91Z" fill="white"/>
<path d="M121.317 320.699L110.773 320.699L112.136 325.895L122.68 325.895L121.317 320.699Z" fill="white"/>
<path d="M100.188 320.699L89.6435 320.699L91.0145 325.895L101.559 325.895L100.188 320.699Z" fill="white"/>
<path d="M109.411 315.504L98.8667 315.504L100.229 320.7L110.773 320.7L109.411 315.504Z" fill="white"/>
<path d="M57.985 320.699L47.4409 320.699L48.8119 325.895L59.3477 325.895L57.985 320.699Z" fill="white"/>
<path d="M36.8595 320.699L26.3237 320.699L27.6864 325.895L38.2305 325.895L36.8595 320.699Z" fill="white"/>
<path d="M46.0821 315.504L35.5381 315.504L36.909 320.7L47.4531 320.7L46.0821 315.504Z" fill="white"/>
<path d="M57.9794 305.503L68.5234 305.503L67.1608 300.297L56.6167 300.297L57.9794 305.503Z" fill="white"/>
<path d="M79.1083 305.507L89.6523 305.507L88.2814 300.301L77.7373 300.301L79.1083 305.507Z" fill="white"/>
<path d="M69.8856 310.702L80.4297 310.702L79.067 305.496L68.5229 305.496L69.8856 310.702Z" fill="white"/>
<path d="M-5.34486 305.507L5.19922 305.507L3.82824 300.301L-6.71583 300.301L-5.34486 305.507Z" fill="white"/>
<path d="M15.7762 305.503L26.3203 305.503L24.9576 300.297L14.4136 300.297L15.7762 305.503Z" fill="white"/>
<path d="M6.56189 310.702L17.0977 310.702L15.735 305.496L5.19092 305.496L6.56189 310.702Z" fill="white"/>
<path d="M57.9794 351.101L68.5234 351.101L67.1608 345.895L56.6167 345.895L57.9794 351.101Z" fill="white"/>
<path d="M79.1083 351.101L89.6523 351.101L88.2814 345.895L77.7373 345.895L79.1083 351.101Z" fill="white"/>
<path d="M69.8856 356.296L80.4297 356.296L79.067 351.09L68.5229 351.09L69.8856 356.296Z" fill="white"/>
<path d="M-5.34486 351.101L5.19922 351.101L3.82824 345.895L-6.71583 345.895L-5.34486 351.101Z" fill="white"/>
<path d="M15.7762 351.101L26.3203 351.101L24.9576 345.895L14.4136 345.895L15.7762 351.101Z" fill="white"/>
<path d="M6.56189 356.296L17.0977 356.296L15.735 351.09L5.19092 351.09L6.56189 356.296Z" fill="white"/>
<path d="M121.317 305.508L110.773 305.508L112.136 310.704L122.68 310.704L121.317 305.508Z" fill="white"/>
<path d="M100.188 305.504L89.6435 305.504L91.0145 310.7L101.559 310.7L100.188 305.504Z" fill="white"/>
<path d="M109.411 300.309L98.8667 300.309L100.229 305.505L110.773 305.505L109.411 300.309Z" fill="white"/>
<path d="M57.9889 305.504L47.4448 305.504L48.8158 310.7L59.3516 310.7L57.9889 305.504Z" fill="white"/>
<path d="M36.8556 305.504L26.3198 305.504L27.6825 310.7L38.2266 310.7L36.8556 305.504Z" fill="white"/>
<path d="M46.0782 300.309L35.5342 300.309L36.9051 305.505L47.4492 305.505L46.0782 300.309Z" fill="white"/>
<path d="M121.317 351.102L110.773 351.102L112.136 356.298L122.68 356.298L121.317 351.102Z" fill="white"/>
<path d="M100.188 351.098L89.6435 351.098L91.0145 356.294L101.559 356.294L100.188 351.098Z" fill="white"/>
<path d="M109.411 345.902L98.8667 345.902L100.229 351.098L110.773 351.098L109.411 345.902Z" fill="white"/>
<path d="M57.9889 351.102L47.4448 351.102L48.8158 356.298L59.3516 356.298L57.9889 351.102Z" fill="white"/>
<path d="M36.8595 351.102L26.3237 351.102L27.6864 356.298L38.2305 356.298L36.8595 351.102Z" fill="white"/>
<path d="M46.0821 345.902L35.5381 345.902L36.909 351.098L47.4531 351.098L46.0821 345.902Z" fill="white"/>
<path d="M57.9794 275.106L68.5234 275.106L67.1608 269.91L56.6167 269.91L57.9794 275.106Z" fill="white"/>
<path d="M79.1083 275.106L89.6523 275.106L88.2814 269.91L77.7373 269.91L79.1083 275.106Z" fill="white"/>
<path d="M69.8817 280.302L80.4258 280.302L79.0631 275.105L68.519 275.105L69.8817 280.302Z" fill="white"/>
<path d="M-5.34486 275.106L5.19922 275.106L3.82824 269.91L-6.71583 269.91L-5.34486 275.106Z" fill="white"/>
<path d="M15.7762 275.106L26.3203 275.106L24.9576 269.91L14.4136 269.91L15.7762 275.106Z" fill="white"/>
<path d="M6.56189 280.302L17.0977 280.302L15.735 275.105L5.19092 275.105L6.56189 280.302Z" fill="white"/>
<path d="M57.9794 320.7L68.5234 320.7L67.1608 315.504L56.6167 315.504L57.9794 320.7Z" fill="white"/>
<path d="M79.1083 320.7L89.6523 320.7L88.2814 315.504L77.7373 315.504L79.1083 320.7Z" fill="white"/>
<path d="M69.8817 325.895L80.4258 325.895L79.0631 320.699L68.519 320.699L69.8817 325.895Z" fill="white"/>
<path d="M-5.34486 320.7L5.19922 320.7L3.82824 315.504L-6.71583 315.504L-5.34486 320.7Z" fill="white"/>
<path d="M15.7762 320.7L26.3203 320.7L24.9576 315.504L14.4136 315.504L15.7762 320.7Z" fill="white"/>
<path d="M6.56189 325.895L17.0977 325.895L15.735 320.699L5.19092 320.699L6.56189 325.895Z" fill="white"/>
<path d="M121.317 381.488L110.773 381.488L112.136 386.694L122.68 386.694L121.317 381.488Z" fill="white"/>
<path d="M100.188 381.488L89.6435 381.488L91.0145 386.694L101.559 386.694L100.188 381.488Z" fill="white"/>
<path d="M109.411 376.293L98.8667 376.293L100.229 381.499L110.773 381.499L109.411 376.293Z" fill="white"/>
<path d="M57.9889 381.488L47.4448 381.488L48.8158 386.694L59.3516 386.694L57.9889 381.488Z" fill="white"/>
<path d="M36.8556 381.488L26.3198 381.488L27.6825 386.694L38.2266 386.694L36.8556 381.488Z" fill="white"/>
<path d="M46.0782 376.293L35.5342 376.293L36.9051 381.499L47.4492 381.499L46.0782 376.293Z" fill="white"/>
<path d="M121.317 427.086L110.773 427.086L112.136 432.292L122.68 432.292L121.317 427.086Z" fill="white"/>
<path d="M100.188 427.082L89.6435 427.082L91.0145 432.288L101.559 432.288L100.188 427.082Z" fill="white"/>
<path d="M109.411 421.887L98.8667 421.887L100.229 427.093L110.773 427.093L109.411 421.887Z" fill="white"/>
<path d="M57.9889 427.082L47.4448 427.082L48.8158 432.288L59.3516 432.288L57.9889 427.082Z" fill="white"/>
<path d="M36.8595 427.082L26.3237 427.082L27.6864 432.288L38.2305 432.288L36.8595 427.082Z" fill="white"/>
<path d="M46.0821 421.887L35.5381 421.887L36.909 427.093L47.4531 427.093L46.0821 421.887Z" fill="white"/>
<path d="M57.9794 381.489L68.5234 381.489L67.1608 376.293L56.6167 376.293L57.9794 381.489Z" fill="white"/>
<path d="M79.1083 381.489L89.6523 381.489L88.2814 376.293L77.7373 376.293L79.1083 381.489Z" fill="white"/>
<path d="M69.8856 386.684L80.4297 386.684L79.067 381.488L68.5229 381.488L69.8856 386.684Z" fill="white"/>
<path d="M-5.34486 381.489L5.19922 381.489L3.82824 376.293L-6.71583 376.293L-5.34486 381.489Z" fill="white"/>
<path d="M15.7762 381.489L26.3203 381.489L24.9576 376.293L14.4136 376.293L15.7762 381.489Z" fill="white"/>
<path d="M6.56189 386.684L17.0977 386.684L15.735 381.488L5.19092 381.488L6.56189 386.684Z" fill="white"/>
<path d="M57.9794 427.083L68.5234 427.083L67.1608 421.887L56.6167 421.887L57.9794 427.083Z" fill="white"/>
<path d="M79.1044 427.083L89.6484 427.083L88.2775 421.887L77.7334 421.887L79.1044 427.083Z" fill="white"/>
<path d="M69.8856 432.278L80.4297 432.278L79.067 427.082L68.5229 427.082L69.8856 432.278Z" fill="white"/>
<path d="M-5.34486 427.083L5.19922 427.083L3.82824 421.887L-6.71583 421.887L-5.34486 427.083Z" fill="white"/>
<path d="M15.7762 427.083L26.3203 427.083L24.9576 421.887L14.4136 421.887L15.7762 427.083Z" fill="white"/>
<path d="M6.56189 432.278L17.0977 432.278L15.735 427.082L5.19092 427.082L6.56189 432.278Z" fill="white"/>
<path d="M121.317 366.293L110.773 366.293L112.136 371.489L122.68 371.489L121.317 366.293Z" fill="white"/>
<path d="M100.188 366.293L89.6435 366.293L91.0145 371.489L101.559 371.489L100.188 366.293Z" fill="white"/>
<path d="M109.411 361.098L98.8667 361.098L100.229 366.294L110.773 366.294L109.411 361.098Z" fill="white"/>
<path d="M57.985 366.293L47.4409 366.293L48.8119 371.489L59.3477 371.489L57.985 366.293Z" fill="white"/>
<path d="M36.8556 366.293L26.3198 366.293L27.6825 371.489L38.2266 371.489L36.8556 366.293Z" fill="white"/>
<path d="M46.0782 361.098L35.5342 361.098L36.9051 366.294L47.4492 366.294L46.0782 361.098Z" fill="white"/>
<path d="M121.317 411.891L110.773 411.891L112.136 417.087L122.68 417.087L121.317 411.891Z" fill="white"/>
<path d="M100.188 411.887L89.6435 411.887L91.0145 417.083L101.559 417.083L100.188 411.887Z" fill="white"/>
<path d="M109.411 406.691L98.8667 406.691L100.229 411.887L110.773 411.887L109.411 406.691Z" fill="white"/>
<path d="M57.985 411.891L47.4409 411.891L48.8119 417.087L59.3477 417.087L57.985 411.891Z" fill="white"/>
<path d="M36.8595 411.891L26.3237 411.891L27.6864 417.087L38.2305 417.087L36.8595 411.891Z" fill="white"/>
<path d="M46.0821 406.691L35.5381 406.691L36.909 411.887L47.4531 411.887L46.0821 406.691Z" fill="white"/>
<path d="M57.9794 396.694L68.5234 396.694L67.1608 391.488L56.6167 391.488L57.9794 396.694Z" fill="white"/>
<path d="M79.1083 396.694L89.6523 396.694L88.2814 391.488L77.7373 391.488L79.1083 396.694Z" fill="white"/>
<path d="M69.8856 401.89L80.4297 401.89L79.067 396.684L68.5229 396.684L69.8856 401.89Z" fill="white"/>
<path d="M-5.34486 396.694L5.19922 396.694L3.82824 391.488L-6.71583 391.488L-5.34486 396.694Z" fill="white"/>
<path d="M15.7762 396.694L26.3203 396.694L24.9576 391.488L14.4136 391.488L15.7762 396.694Z" fill="white"/>
<path d="M6.56189 401.89L17.0977 401.89L15.735 396.684L5.19092 396.684L6.56189 401.89Z" fill="white"/>
<path d="M121.317 396.695L110.773 396.695L112.136 401.891L122.68 401.891L121.317 396.695Z" fill="white"/>
<path d="M100.188 396.691L89.6435 396.691L91.0145 401.887L101.559 401.887L100.188 396.691Z" fill="white"/>
<path d="M109.411 391.496L98.8667 391.496L100.229 396.692L110.773 396.692L109.411 391.496Z" fill="white"/>
<path d="M57.9884 396.691L47.4443 396.691L48.8153 401.887L59.3594 401.887L57.9884 396.691Z" fill="white"/>
<path d="M36.8639 396.695L26.3198 396.695L27.6825 401.891L38.2266 401.891L36.8639 396.695Z" fill="white"/>
<path d="M46.0782 391.5L35.5342 391.5L36.9051 396.696L47.4492 396.696L46.0782 391.5Z" fill="white"/>
<path d="M57.9755 366.294L68.5195 366.294L67.1569 361.098L56.6128 361.098L57.9755 366.294Z" fill="white"/>
<path d="M79.1044 366.294L89.6484 366.294L88.2775 361.098L77.7334 361.098L79.1044 366.294Z" fill="white"/>
<path d="M69.8817 371.489L80.4258 371.489L79.0631 366.293L68.519 366.293L69.8817 371.489Z" fill="white"/>
<path d="M-5.34486 366.294L5.19922 366.294L3.82824 361.098L-6.71583 361.098L-5.34486 366.294Z" fill="white"/>
<path d="M15.7762 366.294L26.3203 366.294L24.9576 361.098L14.4136 361.098L15.7762 366.294Z" fill="white"/>
<path d="M6.56189 371.489L17.0977 371.489L15.735 366.293L5.19092 366.293L6.56189 371.489Z" fill="white"/>
<path d="M57.9755 411.887L68.5195 411.887L67.1569 406.691L56.6128 406.691L57.9755 411.887Z" fill="white"/>
<path d="M79.1044 411.887L89.6484 411.887L88.2775 406.691L77.7334 406.691L79.1044 411.887Z" fill="white"/>
<path d="M69.8817 417.087L80.4258 417.087L79.0548 411.891L68.519 411.891L69.8817 417.087Z" fill="white"/>
<path d="M-5.34486 411.887L5.19922 411.887L3.82824 406.691L-6.71583 406.691L-5.34486 411.887Z" fill="white"/>
<path d="M15.7762 411.887L26.3203 411.887L24.9576 406.691L14.4136 406.691L15.7762 411.887Z" fill="white"/>
<path d="M6.56189 417.087L17.0977 417.087L15.735 411.891L5.19092 411.891L6.56189 417.087Z" fill="white"/>
<path d="M226.84 138.176L216.296 138.176L217.659 143.382L228.203 143.382L226.84 138.176Z" fill="white"/>
<path d="M205.711 138.176L195.167 138.176L196.538 143.382L207.082 143.382L205.711 138.176Z" fill="white"/>
<path d="M214.934 132.98L204.39 132.98L205.753 138.187L216.297 138.187L214.934 132.98Z" fill="white"/>
<path d="M163.508 138.176L152.964 138.176L154.335 143.382L164.871 143.382L163.508 138.176Z" fill="white"/>
<path d="M142.379 138.176L131.843 138.176L133.206 143.382L143.75 143.382L142.379 138.176Z" fill="white"/>
<path d="M151.602 132.98L141.058 132.98L142.429 138.187L152.973 138.187L151.602 132.98Z" fill="white"/>
<path d="M226.84 183.77L216.296 183.77L217.659 188.976L228.203 188.976L226.84 183.77Z" fill="white"/>
<path d="M205.711 183.77L195.167 183.77L196.538 188.976L207.082 188.976L205.711 183.77Z" fill="white"/>
<path d="M214.934 178.574L204.39 178.574L205.753 183.78L216.297 183.78L214.934 178.574Z" fill="white"/>
<path d="M163.512 183.77L152.968 183.77L154.339 188.976L164.875 188.976L163.512 183.77Z" fill="white"/>
<path d="M142.383 183.77L131.847 183.77L133.21 188.976L143.754 188.976L142.383 183.77Z" fill="white"/>
<path d="M151.606 178.574L141.062 178.574L142.432 183.78L152.977 183.78L151.606 178.574Z" fill="white"/>
<path d="M163.499 138.177L174.043 138.177L172.68 132.98L162.136 132.98L163.499 138.177Z" fill="white"/>
<path d="M184.628 138.177L195.172 138.177L193.801 132.98L183.257 132.98L184.628 138.177Z" fill="white"/>
<path d="M175.405 143.372L185.949 143.372L184.587 138.176L174.042 138.176L175.405 143.372Z" fill="white"/>
<path d="M100.179 138.177L110.723 138.177L109.352 132.98L98.8076 132.98L100.179 138.177Z" fill="white"/>
<path d="M121.3 138.177L131.844 138.177L130.481 132.98L119.937 132.98L121.3 138.177Z" fill="white"/>
<path d="M112.085 143.372L122.621 143.372L121.258 138.176L110.714 138.176L112.085 143.372Z" fill="white"/>
<path d="M163.499 183.77L174.043 183.77L172.68 178.574L162.136 178.574L163.499 183.77Z" fill="white"/>
<path d="M184.632 183.77L195.176 183.77L193.805 178.574L183.261 178.574L184.632 183.77Z" fill="white"/>
<path d="M175.409 188.966L185.953 188.966L184.59 183.77L174.046 183.77L175.409 188.966Z" fill="white"/>
<path d="M100.179 183.77L110.723 183.77L109.352 178.574L98.8076 178.574L100.179 183.77Z" fill="white"/>
<path d="M121.3 183.77L131.844 183.77L130.481 178.574L119.937 178.574L121.3 183.77Z" fill="white"/>
<path d="M112.085 188.966L122.621 188.966L121.258 183.77L110.714 183.77L112.085 188.966Z" fill="white"/>
<path d="M226.84 122.98L216.296 122.98L217.659 128.177L228.203 128.177L226.84 122.98Z" fill="white"/>
<path d="M205.711 122.98L195.167 122.98L196.538 128.177L207.082 128.177L205.711 122.98Z" fill="white"/>
<path d="M214.934 117.785L204.39 117.785L205.753 122.981L216.297 122.981L214.934 117.785Z" fill="white"/>
<path d="M163.508 122.98L152.964 122.98L154.335 128.177L164.871 128.177L163.508 122.98Z" fill="white"/>
<path d="M142.379 122.98L131.843 122.98L133.206 128.177L143.75 128.177L142.379 122.98Z" fill="white"/>
<path d="M151.606 117.785L141.062 117.785L142.432 122.981L152.977 122.981L151.606 117.785Z" fill="white"/>
<path d="M226.84 168.574L216.296 168.574L217.659 173.77L228.203 173.77L226.84 168.574Z" fill="white"/>
<path d="M205.711 168.574L195.167 168.574L196.538 173.77L207.082 173.77L205.711 168.574Z" fill="white"/>
<path d="M214.934 163.379L204.39 163.379L205.753 168.575L216.297 168.575L214.934 163.379Z" fill="white"/>
<path d="M163.508 168.574L152.964 168.574L154.335 173.77L164.871 173.77L163.508 168.574Z" fill="white"/>
<path d="M142.383 168.574L131.847 168.574L133.21 173.77L143.754 173.77L142.383 168.574Z" fill="white"/>
<path d="M151.606 163.379L141.062 163.379L142.432 168.575L152.977 168.575L151.606 163.379Z" fill="white"/>
<path d="M163.503 153.382L174.047 153.382L172.684 148.176L162.14 148.176L163.503 153.382Z" fill="white"/>
<path d="M184.632 153.382L195.176 153.382L193.805 148.176L183.261 148.176L184.632 153.382Z" fill="white"/>
<path d="M175.409 158.577L185.953 158.577L184.59 153.371L174.046 153.371L175.409 158.577Z" fill="white"/>
<path d="M100.179 153.382L110.723 153.382L109.352 148.176L98.8076 148.176L100.179 153.382Z" fill="white"/>
<path d="M121.3 153.382L131.844 153.382L130.481 148.176L119.937 148.176L121.3 153.382Z" fill="white"/>
<path d="M112.085 158.577L122.621 158.577L121.258 153.371L110.714 153.371L112.085 158.577Z" fill="white"/>
<path d="M163.503 198.976L174.047 198.976L172.684 193.77L162.14 193.77L163.503 198.976Z" fill="white"/>
<path d="M184.632 198.976L195.176 198.976L193.805 193.77L183.261 193.77L184.632 198.976Z" fill="white"/>
<path d="M175.409 204.171L185.953 204.171L184.59 198.965L174.046 198.965L175.409 204.171Z" fill="white"/>
<path d="M100.179 198.976L110.723 198.976L109.352 193.77L98.8076 193.77L100.179 198.976Z" fill="white"/>
<path d="M121.3 198.976L131.844 198.976L130.481 193.77L119.937 193.77L121.3 198.976Z" fill="white"/>
<path d="M112.085 204.171L122.621 204.171L121.258 198.965L110.714 198.965L112.085 204.171Z" fill="white"/>
<path d="M226.84 153.383L216.296 153.383L217.659 158.579L228.203 158.579L226.84 153.383Z" fill="white"/>
<path d="M205.711 153.383L195.167 153.383L196.538 158.579L207.082 158.579L205.711 153.383Z" fill="white"/>
<path d="M214.934 148.184L204.39 148.184L205.753 153.38L216.297 153.38L214.934 148.184Z" fill="white"/>
<path d="M163.512 153.383L152.968 153.383L154.339 158.579L164.875 158.579L163.512 153.383Z" fill="white"/>
<path d="M142.379 153.379L131.843 153.379L133.206 158.575L143.75 158.575L142.379 153.379Z" fill="white"/>
<path d="M151.602 148.184L141.058 148.184L142.429 153.38L152.973 153.38L151.602 148.184Z" fill="white"/>
<path d="M226.84 198.977L216.296 198.977L217.659 204.173L228.203 204.173L226.84 198.977Z" fill="white"/>
<path d="M205.711 198.977L195.167 198.977L196.538 204.173L207.082 204.173L205.711 198.977Z" fill="white"/>
<path d="M214.934 193.777L204.39 193.777L205.753 198.973L216.297 198.973L214.934 193.777Z" fill="white"/>
<path d="M163.512 198.977L152.968 198.977L154.339 204.173L164.875 204.173L163.512 198.977Z" fill="white"/>
<path d="M142.383 198.977L131.847 198.977L133.21 204.173L143.754 204.173L142.383 198.977Z" fill="white"/>
<path d="M151.606 193.777L141.062 193.777L142.432 198.973L152.977 198.973L151.606 193.777Z" fill="white"/>
<path d="M163.503 122.981L174.047 122.981L172.684 117.785L162.14 117.785L163.503 122.981Z" fill="white"/>
<path d="M184.632 122.981L195.176 122.981L193.805 117.785L183.261 117.785L184.632 122.981Z" fill="white"/>
<path d="M175.405 128.177L185.949 128.177L184.587 122.98L174.042 122.98L175.405 128.177Z" fill="white"/>
<path d="M100.179 122.981L110.723 122.981L109.352 117.785L98.8076 117.785L100.179 122.981Z" fill="white"/>
<path d="M121.3 122.981L131.844 122.981L130.481 117.785L119.937 117.785L121.3 122.981Z" fill="white"/>
<path d="M112.085 128.177L122.621 128.177L121.258 122.98L110.714 122.98L112.085 128.177Z" fill="white"/>
<path d="M163.499 168.575L174.043 168.575L172.68 163.379L162.136 163.379L163.499 168.575Z" fill="white"/>
<path d="M184.628 168.575L195.172 168.575L193.801 163.379L183.257 163.379L184.628 168.575Z" fill="white"/>
<path d="M175.405 173.77L185.949 173.77L184.587 168.574L174.042 168.574L175.405 173.77Z" fill="white"/>
<path d="M100.179 168.575L110.723 168.575L109.352 163.379L98.8076 163.379L100.179 168.575Z" fill="white"/>
<path d="M121.3 168.575L131.844 168.575L130.481 163.379L119.937 163.379L121.3 168.575Z" fill="white"/>
<path d="M112.085 173.77L122.621 173.77L121.258 168.574L110.714 168.574L112.085 173.77Z" fill="white"/>
<path d="M226.84 229.363L216.296 229.363L217.659 234.569L228.203 234.569L226.84 229.363Z" fill="white"/>
<path d="M205.711 229.363L195.167 229.363L196.538 234.569L207.082 234.569L205.711 229.363Z" fill="white"/>
<path d="M214.934 224.168L204.39 224.168L205.753 229.374L216.297 229.374L214.934 224.168Z" fill="white"/>
<path d="M163.512 229.363L152.968 229.363L154.339 234.569L164.875 234.569L163.512 229.363Z" fill="white"/>
<path d="M142.379 229.363L131.843 229.363L133.206 234.569L143.75 234.569L142.379 229.363Z" fill="white"/>
<path d="M151.602 224.168L141.058 224.168L142.429 229.374L152.973 229.374L151.602 224.168Z" fill="white"/>
<path d="M226.84 274.957L216.296 274.957L217.659 280.163L228.203 280.163L226.84 274.957Z" fill="white"/>
<path d="M205.711 274.957L195.167 274.957L196.538 280.163L207.082 280.163L205.711 274.957Z" fill="white"/>
<path d="M214.934 269.762L204.39 269.762L205.753 274.968L216.297 274.968L214.934 269.762Z" fill="white"/>
<path d="M163.512 274.957L152.968 274.957L154.339 280.163L164.875 280.163L163.512 274.957Z" fill="white"/>
<path d="M142.383 274.957L131.847 274.957L133.21 280.163L143.754 280.163L142.383 274.957Z" fill="white"/>
<path d="M151.606 269.762L141.062 269.762L142.432 274.968L152.977 274.968L151.606 269.762Z" fill="white"/>
<path d="M163.499 229.364L174.043 229.364L172.68 224.168L162.136 224.168L163.499 229.364Z" fill="white"/>
<path d="M184.632 229.364L195.176 229.364L193.805 224.168L183.261 224.168L184.632 229.364Z" fill="white"/>
<path d="M175.409 234.559L185.953 234.559L184.59 229.363L174.046 229.363L175.409 234.559Z" fill="white"/>
<path d="M100.179 229.364L110.723 229.364L109.352 224.168L98.8076 224.168L100.179 229.364Z" fill="white"/>
<path d="M121.3 229.364L131.844 229.364L130.481 224.168L119.937 224.168L121.3 229.364Z" fill="white"/>
<path d="M112.085 234.559L122.621 234.559L121.258 229.363L110.714 229.363L112.085 234.559Z" fill="white"/>
<path d="M163.499 274.958L174.043 274.958L172.68 269.762L162.136 269.762L163.499 274.958Z" fill="white"/>
<path d="M184.628 274.958L195.172 274.958L193.801 269.762L183.257 269.762L184.628 274.958Z" fill="white"/>
<path d="M175.409 280.153L185.953 280.153L184.59 274.957L174.046 274.957L175.409 280.153Z" fill="white"/>
<path d="M100.179 274.958L110.723 274.958L109.352 269.762L98.8076 269.762L100.179 274.958Z" fill="white"/>
<path d="M121.3 274.958L131.844 274.958L130.481 269.762L119.937 269.762L121.3 274.958Z" fill="white"/>
<path d="M112.085 280.153L122.621 280.153L121.258 274.957L110.714 274.957L112.085 280.153Z" fill="white"/>
<path d="M226.84 214.172L216.296 214.172L217.659 219.368L228.203 219.368L226.84 214.172Z" fill="white"/>
<path d="M205.711 214.168L195.167 214.168L196.538 219.364L207.082 219.364L205.711 214.168Z" fill="white"/>
<path d="M214.934 208.973L204.39 208.973L205.753 214.169L216.297 214.169L214.934 208.973Z" fill="white"/>
<path d="M163.508 214.172L152.964 214.172L154.335 219.368L164.871 219.368L163.508 214.172Z" fill="white"/>
<path d="M142.379 214.168L131.843 214.168L133.206 219.364L143.75 219.364L142.379 214.168Z" fill="white"/>
<path d="M151.602 208.973L141.058 208.973L142.429 214.169L152.973 214.169L151.602 208.973Z" fill="white"/>
<path d="M226.84 259.766L216.296 259.766L217.659 264.962L228.203 264.962L226.84 259.766Z" fill="white"/>
<path d="M205.711 259.762L195.167 259.762L196.538 264.958L207.082 264.958L205.711 259.762Z" fill="white"/>
<path d="M214.934 254.566L204.39 254.566L205.753 259.762L216.297 259.762L214.934 254.566Z" fill="white"/>
<path d="M163.508 259.762L152.964 259.762L154.335 264.958L164.871 264.958L163.508 259.762Z" fill="white"/>
<path d="M142.383 259.762L131.847 259.762L133.21 264.958L143.754 264.958L142.383 259.762Z" fill="white"/>
<path d="M151.606 254.566L141.062 254.566L142.432 259.762L152.977 259.762L151.606 254.566Z" fill="white"/>
<path d="M163.499 244.569L174.043 244.569L172.68 239.363L162.136 239.363L163.499 244.569Z" fill="white"/>
<path d="M184.632 244.569L195.176 244.569L193.805 239.363L183.261 239.363L184.632 244.569Z" fill="white"/>
<path d="M175.409 249.765L185.953 249.765L184.59 244.559L174.046 244.559L175.409 249.765Z" fill="white"/>
<path d="M100.179 244.569L110.723 244.569L109.352 239.363L98.8076 239.363L100.179 244.569Z" fill="white"/>
<path d="M121.3 244.569L131.844 244.569L130.481 239.363L119.937 239.363L121.3 244.569Z" fill="white"/>
<path d="M112.085 249.765L122.621 249.765L121.258 244.559L110.714 244.559L112.085 249.765Z" fill="white"/>
<path d="M163.499 290.163L174.043 290.163L172.68 284.957L162.136 284.957L163.499 290.163Z" fill="white"/>
<path d="M184.632 290.163L195.176 290.163L193.805 284.957L183.261 284.957L184.632 290.163Z" fill="white"/>
<path d="M175.409 295.359L185.953 295.359L184.59 290.152L174.046 290.152L175.409 295.359Z" fill="white"/>
<path d="M100.179 290.163L110.723 290.163L109.352 284.957L98.8076 284.957L100.179 290.163Z" fill="white"/>
<path d="M121.3 290.163L131.844 290.163L130.481 284.957L119.937 284.957L121.3 290.163Z" fill="white"/>
<path d="M112.085 295.359L122.621 295.359L121.258 290.152L110.714 290.152L112.085 295.359Z" fill="white"/>
<path d="M226.84 244.57L216.296 244.57L217.659 249.766L228.203 249.766L226.84 244.57Z" fill="white"/>
<path d="M205.711 244.57L195.167 244.57L196.538 249.766L207.082 249.766L205.711 244.57Z" fill="white"/>
<path d="M214.934 239.371L204.39 239.371L205.753 244.567L216.297 244.567L214.934 239.371Z" fill="white"/>
<path d="M163.512 244.57L152.968 244.57L154.339 249.766L164.883 249.766L163.512 244.57Z" fill="white"/>
<path d="M142.387 244.57L131.843 244.57L133.206 249.766L143.75 249.766L142.387 244.57Z" fill="white"/>
<path d="M151.602 239.371L141.058 239.371L142.429 244.567L152.973 244.567L151.602 239.371Z" fill="white"/>
<path d="M226.84 290.164L216.296 290.164L217.659 295.36L228.203 295.36L226.84 290.164Z" fill="white"/>
<path d="M205.711 290.164L195.167 290.164L196.538 295.36L207.082 295.36L205.711 290.164Z" fill="white"/>
<path d="M214.934 284.965L204.39 284.965L205.753 290.161L216.297 290.161L214.934 284.965Z" fill="white"/>
<path d="M163.512 290.164L152.968 290.164L154.339 295.36L164.875 295.36L163.512 290.164Z" fill="white"/>
<path d="M142.379 290.164L131.843 290.164L133.206 295.36L143.75 295.36L142.379 290.164Z" fill="white"/>
<path d="M151.606 284.969L141.062 284.969L142.432 290.165L152.977 290.165L151.606 284.969Z" fill="white"/>
<path d="M163.499 214.169L174.043 214.169L172.68 208.973L162.136 208.973L163.499 214.169Z" fill="white"/>
<path d="M184.628 214.169L195.172 214.169L193.801 208.973L183.257 208.973L184.628 214.169Z" fill="white"/>
<path d="M175.405 219.368L185.949 219.368L184.587 214.172L174.042 214.172L175.405 219.368Z" fill="white"/>
<path d="M100.179 214.169L110.723 214.169L109.352 208.973L98.8076 208.973L100.179 214.169Z" fill="white"/>
<path d="M121.3 214.169L131.844 214.169L130.481 208.973L119.937 208.973L121.3 214.169Z" fill="white"/>
<path d="M112.085 219.368L122.621 219.368L121.258 214.172L110.714 214.172L112.085 219.368Z" fill="white"/>
<path d="M163.499 259.762L174.043 259.762L172.68 254.566L162.136 254.566L163.499 259.762Z" fill="white"/>
<path d="M184.628 259.762L195.172 259.762L193.801 254.566L183.257 254.566L184.628 259.762Z" fill="white"/>
<path d="M175.405 264.958L185.949 264.958L184.578 259.762L174.042 259.762L175.405 264.958Z" fill="white"/>
<path d="M100.179 259.762L110.723 259.762L109.352 254.566L98.8076 254.566L100.179 259.762Z" fill="white"/>
<path d="M121.3 259.762L131.844 259.762L130.481 254.566L119.937 254.566L121.3 259.762Z" fill="white"/>
<path d="M112.085 264.958L122.621 264.958L121.258 259.762L110.714 259.762L112.085 264.958Z" fill="white"/>
<path d="M226.84 2.98437L216.296 2.98437L217.659 8.19053L228.203 8.19053L226.84 2.98437Z" fill="white"/>
<path d="M205.711 2.98437L195.167 2.98437L196.538 8.19053L207.082 8.19053L205.711 2.98437Z" fill="white"/>
<path d="M163.512 2.98437L152.968 2.98437L154.339 8.19053L164.875 8.19053L163.512 2.98437Z" fill="white"/>
<path d="M142.383 2.98437L131.847 2.98437L133.21 8.19053L143.754 8.19053L142.383 2.98437Z" fill="white"/>
<path d="M175.409 8.18045L185.953 8.18045L184.59 2.98437L174.046 2.98437L175.409 8.18045Z" fill="white"/>
<path d="M112.085 8.18045L122.621 8.18045L121.258 2.98437L110.714 2.98437L112.085 8.18045Z" fill="white"/>
<path d="M163.503 18.1905L174.047 18.1905L172.684 12.9844L162.14 12.9844L163.503 18.1905Z" fill="white"/>
<path d="M184.632 18.1905L195.176 18.1905L193.805 12.9844L183.261 12.9844L184.632 18.1905Z" fill="white"/>
<path d="M175.409 23.3858L185.953 23.3859L184.59 18.1797L174.046 18.1797L175.409 23.3858Z" fill="white"/>
<path d="M100.179 18.1905L110.723 18.1905L109.352 12.9844L98.8076 12.9844L100.179 18.1905Z" fill="white"/>
<path d="M121.3 18.1905L131.844 18.1905L130.481 12.9844L119.937 12.9844L121.3 18.1905Z" fill="white"/>
<path d="M112.085 23.3858L122.621 23.3859L121.258 18.1797L110.714 18.1797L112.085 23.3858Z" fill="white"/>
<path d="M226.84 18.1914L216.296 18.1914L217.659 23.3875L228.203 23.3875L226.84 18.1914Z" fill="white"/>
<path d="M205.711 18.1914L195.167 18.1914L196.538 23.3875L207.082 23.3875L205.711 18.1914Z" fill="white"/>
<path d="M214.934 12.9922L204.39 12.9922L205.753 18.1883L216.297 18.1883L214.934 12.9922Z" fill="white"/>
<path d="M163.512 18.1914L152.968 18.1914L154.339 23.3875L164.875 23.3875L163.512 18.1914Z" fill="white"/>
<path d="M142.383 18.1914L131.847 18.1914L133.21 23.3875L143.754 23.3875L142.383 18.1914Z" fill="white"/>
<path d="M151.606 12.9922L141.062 12.9922L142.432 18.1883L152.977 18.1883L151.606 12.9922Z" fill="white"/>
<path d="M226.84 48.5781L216.296 48.5781L217.659 53.7843L228.203 53.7843L226.84 48.5781Z" fill="white"/>
<path d="M205.711 48.5781L195.167 48.5781L196.538 53.7843L207.082 53.7843L205.711 48.5781Z" fill="white"/>
<path d="M214.934 43.3828L204.39 43.3828L205.753 48.589L216.297 48.589L214.934 43.3828Z" fill="white"/>
<path d="M163.512 48.5781L152.968 48.5781L154.339 53.7843L164.875 53.7843L163.512 48.5781Z" fill="white"/>
<path d="M142.379 48.5781L131.843 48.5781L133.206 53.7843L143.75 53.7843L142.379 48.5781Z" fill="white"/>
<path d="M151.602 43.3828L141.058 43.3828L142.429 48.589L152.973 48.589L151.602 43.3828Z" fill="white"/>
<path d="M226.84 94.1719L216.296 94.1719L217.659 99.378L228.203 99.378L226.84 94.1719Z" fill="white"/>
<path d="M205.711 94.1719L195.167 94.1719L196.538 99.378L207.082 99.378L205.711 94.1719Z" fill="white"/>
<path d="M214.934 88.9766L204.39 88.9766L205.753 94.1827L216.297 94.1827L214.934 88.9766Z" fill="white"/>
<path d="M163.512 94.1719L152.968 94.1719L154.339 99.378L164.875 99.378L163.512 94.1719Z" fill="white"/>
<path d="M142.383 94.1719L131.847 94.1719L133.21 99.378L143.754 99.378L142.383 94.1719Z" fill="white"/>
<path d="M151.606 88.9766L141.062 88.9766L142.432 94.1827L152.977 94.1827L151.606 88.9766Z" fill="white"/>
<path d="M163.499 48.5789L174.043 48.5789L172.68 43.3828L162.136 43.3828L163.499 48.5789Z" fill="white"/>
<path d="M184.632 48.5789L195.176 48.5789L193.805 43.3828L183.261 43.3828L184.632 48.5789Z" fill="white"/>
<path d="M175.409 53.7742L185.953 53.7742L184.59 48.5781L174.046 48.5781L175.409 53.7742Z" fill="white"/>
<path d="M100.179 48.5789L110.723 48.5789L109.352 43.3828L98.8076 43.3828L100.179 48.5789Z" fill="white"/>
<path d="M121.3 48.5789L131.844 48.5789L130.481 43.3828L119.937 43.3828L121.3 48.5789Z" fill="white"/>
<path d="M112.085 53.7742L122.621 53.7742L121.258 48.5781L110.714 48.5781L112.085 53.7742Z" fill="white"/>
<path d="M163.499 94.1726L174.043 94.1726L172.68 88.9766L162.136 88.9766L163.499 94.1726Z" fill="white"/>
<path d="M184.628 94.1726L195.172 94.1726L193.801 88.9766L183.257 88.9766L184.628 94.1726Z" fill="white"/>
<path d="M175.409 99.3679L185.953 99.3679L184.59 94.1719L174.046 94.1719L175.409 99.3679Z" fill="white"/>
<path d="M100.179 94.1726L110.723 94.1726L109.352 88.9766L98.8076 88.9766L100.179 94.1726Z" fill="white"/>
<path d="M121.3 94.1726L131.844 94.1726L130.481 88.9766L119.937 88.9766L121.3 94.1726Z" fill="white"/>
<path d="M112.085 99.3679L122.621 99.3679L121.258 94.1719L110.714 94.1719L112.085 99.3679Z" fill="white"/>
<path d="M226.84 33.3867L216.296 33.3867L217.659 38.5828L228.203 38.5828L226.84 33.3867Z" fill="white"/>
<path d="M205.711 33.3828L195.167 33.3828L196.538 38.5789L207.082 38.5789L205.711 33.3828Z" fill="white"/>
<path d="M214.934 28.1875L204.39 28.1875L205.753 33.3836L216.297 33.3836L214.934 28.1875Z" fill="white"/>
<path d="M163.508 33.3867L152.964 33.3867L154.335 38.5828L164.871 38.5828L163.508 33.3867Z" fill="white"/>
<path d="M142.379 33.3828L131.843 33.3828L133.206 38.5789L143.75 38.5789L142.379 33.3828Z" fill="white"/>
<path d="M151.602 28.1875L141.058 28.1875L142.429 33.3836L152.973 33.3836L151.602 28.1875Z" fill="white"/>
<path d="M226.84 78.9805L216.296 78.9805L217.659 84.1765L228.203 84.1765L226.84 78.9805Z" fill="white"/>
<path d="M205.711 78.9766L195.167 78.9766L196.538 84.1726L207.082 84.1726L205.711 78.9766Z" fill="white"/>
<path d="M214.934 73.7812L204.39 73.7812L205.753 78.9773L216.297 78.9773L214.934 73.7812Z" fill="white"/>
<path d="M163.508 78.9766L152.964 78.9766L154.335 84.1726L164.871 84.1726L163.508 78.9766Z" fill="white"/>
<path d="M142.383 78.9766L131.847 78.9766L133.21 84.1726L143.754 84.1726L142.383 78.9766Z" fill="white"/>
<path d="M151.606 73.7812L141.062 73.7812L142.432 78.9773L152.977 78.9773L151.606 73.7812Z" fill="white"/>
<path d="M163.499 63.7843L174.043 63.7843L172.68 58.5781L162.136 58.5781L163.499 63.7843Z" fill="white"/>
<path d="M184.632 63.7843L195.176 63.7843L193.805 58.5781L183.261 58.5781L184.632 63.7843Z" fill="white"/>
<path d="M175.409 68.9796L185.953 68.9796L184.59 63.7734L174.046 63.7734L175.409 68.9796Z" fill="white"/>
<path d="M100.179 63.7843L110.723 63.7843L109.352 58.5781L98.8076 58.5781L100.179 63.7843Z" fill="white"/>
<path d="M121.3 63.7843L131.844 63.7843L130.481 58.5781L119.937 58.5781L121.3 63.7843Z" fill="white"/>
<path d="M112.085 68.9796L122.621 68.9796L121.258 63.7734L110.714 63.7734L112.085 68.9796Z" fill="white"/>
<path d="M163.499 109.378L174.043 109.378L172.68 104.172L162.136 104.172L163.499 109.378Z" fill="white"/>
<path d="M184.632 109.378L195.176 109.378L193.805 104.172L183.261 104.172L184.632 109.378Z" fill="white"/>
<path d="M175.409 114.573L185.953 114.573L184.59 109.367L174.046 109.367L175.409 114.573Z" fill="white"/>
<path d="M100.179 109.378L110.723 109.378L109.352 104.172L98.8076 104.172L100.179 109.378Z" fill="white"/>
<path d="M121.3 109.378L131.844 109.378L130.481 104.172L119.937 104.172L121.3 109.378Z" fill="white"/>
<path d="M112.085 114.573L122.621 114.573L121.258 109.367L110.714 109.367L112.085 114.573Z" fill="white"/>
<path d="M226.84 63.7852L216.296 63.7852L217.659 68.9812L228.203 68.9812L226.84 63.7852Z" fill="white"/>
<path d="M205.711 63.7852L195.167 63.7852L196.538 68.9812L207.082 68.9812L205.711 63.7852Z" fill="white"/>
<path d="M214.934 58.5859L204.39 58.5859L205.753 63.782L216.297 63.782L214.934 58.5859Z" fill="white"/>
<path d="M163.512 63.7852L152.968 63.7852L154.339 68.9812L164.883 68.9812L163.512 63.7852Z" fill="white"/>
<path d="M142.387 63.7852L131.843 63.7852L133.206 68.9812L143.75 68.9812L142.387 63.7852Z" fill="white"/>
<path d="M151.602 58.5859L141.058 58.5859L142.429 63.782L152.973 63.782L151.602 58.5859Z" fill="white"/>
<path d="M226.84 109.379L216.296 109.379L217.659 114.575L228.203 114.575L226.84 109.379Z" fill="white"/>
<path d="M205.711 109.379L195.167 109.379L196.538 114.575L207.082 114.575L205.711 109.379Z" fill="white"/>
<path d="M214.934 104.18L204.39 104.18L205.753 109.376L216.297 109.376L214.934 104.18Z" fill="white"/>
<path d="M163.512 109.379L152.968 109.379L154.339 114.575L164.875 114.575L163.512 109.379Z" fill="white"/>
<path d="M142.379 109.379L131.843 109.379L133.206 114.575L143.75 114.575L142.379 109.379Z" fill="white"/>
<path d="M151.606 104.184L141.062 104.184L142.432 109.38L152.977 109.38L151.606 104.184Z" fill="white"/>
<path d="M163.499 33.3836L174.043 33.3836L172.68 28.1875L162.136 28.1875L163.499 33.3836Z" fill="white"/>
<path d="M184.628 33.3836L195.172 33.3836L193.801 28.1875L183.257 28.1875L184.628 33.3836Z" fill="white"/>
<path d="M175.405 38.5828L185.949 38.5828L184.587 33.3867L174.042 33.3867L175.405 38.5828Z" fill="white"/>
<path d="M100.179 33.3836L110.723 33.3836L109.352 28.1875L98.8076 28.1875L100.179 33.3836Z" fill="white"/>
<path d="M121.3 33.3836L131.844 33.3836L130.481 28.1875L119.937 28.1875L121.3 33.3836Z" fill="white"/>
<path d="M112.085 38.5828L122.621 38.5828L121.258 33.3867L110.714 33.3867L112.085 38.5828Z" fill="white"/>
<path d="M163.499 78.9773L174.043 78.9773L172.68 73.7812L162.136 73.7812L163.499 78.9773Z" fill="white"/>
<path d="M184.628 78.9773L195.172 78.9773L193.801 73.7812L183.257 73.7812L184.628 78.9773Z" fill="white"/>
<path d="M175.405 84.1726L185.949 84.1726L184.578 78.9766L174.042 78.9766L175.405 84.1726Z" fill="white"/>
<path d="M100.179 78.9773L110.723 78.9773L109.352 73.7812L98.8076 73.7812L100.179 78.9773Z" fill="white"/>
<path d="M121.3 78.9773L131.844 78.9773L130.481 73.7812L119.937 73.7812L121.3 78.9773Z" fill="white"/>
<path d="M112.085 84.1726L122.621 84.1726L121.258 78.9766L110.714 78.9766L112.085 84.1726Z" fill="white"/>
<path d="M226.84 290.305L216.296 290.305L217.659 295.511L228.203 295.511L226.84 290.305Z" fill="white"/>
<path d="M205.711 290.305L195.167 290.305L196.538 295.511L207.082 295.511L205.711 290.305Z" fill="white"/>
<path d="M214.934 285.109L204.39 285.109L205.753 290.316L216.297 290.316L214.934 285.109Z" fill="white"/>
<path d="M163.508 290.305L152.964 290.305L154.335 295.511L164.871 295.511L163.508 290.305Z" fill="white"/>
<path d="M142.379 290.305L131.843 290.305L133.206 295.511L143.75 295.511L142.379 290.305Z" fill="white"/>
<path d="M151.602 285.109L141.058 285.109L142.429 290.316L152.973 290.316L151.602 285.109Z" fill="white"/>
<path d="M226.84 335.898L216.296 335.898L217.659 341.105L228.203 341.105L226.84 335.898Z" fill="white"/>
<path d="M205.711 335.898L195.167 335.898L196.538 341.105L207.082 341.105L205.711 335.898Z" fill="white"/>
<path d="M214.934 330.703L204.39 330.703L205.753 335.909L216.297 335.909L214.934 330.703Z" fill="white"/>
<path d="M163.512 335.898L152.968 335.898L154.339 341.105L164.875 341.105L163.512 335.898Z" fill="white"/>
<path d="M142.379 335.898L131.843 335.898L133.206 341.105L143.75 341.105L142.379 335.898Z" fill="white"/>
<path d="M151.606 330.703L141.062 330.703L142.432 335.909L152.977 335.909L151.606 330.703Z" fill="white"/>
<path d="M163.499 290.305L174.043 290.305L172.68 285.109L162.136 285.109L163.499 290.305Z" fill="white"/>
<path d="M184.628 290.305L195.172 290.305L193.801 285.109L183.257 285.109L184.628 290.305Z" fill="white"/>
<path d="M175.409 295.501L185.953 295.501L184.59 290.305L174.046 290.305L175.409 295.501Z" fill="white"/>
<path d="M100.179 290.305L110.723 290.305L109.352 285.109L98.8076 285.109L100.179 290.305Z" fill="white"/>
<path d="M121.3 290.305L131.844 290.305L130.481 285.109L119.937 285.109L121.3 290.305Z" fill="white"/>
<path d="M112.085 295.501L122.621 295.501L121.258 290.305L110.714 290.305L112.085 295.501Z" fill="white"/>
<path d="M163.499 335.899L174.043 335.899L172.68 330.703L162.136 330.703L163.499 335.899Z" fill="white"/>
<path d="M184.632 335.899L195.176 335.899L193.805 330.703L183.261 330.703L184.632 335.899Z" fill="white"/>
<path d="M175.409 341.095L185.953 341.095L184.59 335.898L174.046 335.898L175.409 341.095Z" fill="white"/>
<path d="M100.179 335.899L110.723 335.899L109.352 330.703L98.8076 330.703L100.179 335.899Z" fill="white"/>
<path d="M121.3 335.899L131.844 335.899L130.481 330.703L119.937 330.703L121.3 335.899Z" fill="white"/>
<path d="M112.085 341.095L122.621 341.095L121.258 335.898L110.714 335.898L112.085 341.095Z" fill="white"/>
<path d="M226.84 275.109L216.296 275.109L217.659 280.305L228.203 280.305L226.84 275.109Z" fill="white"/>
<path d="M205.711 275.109L195.167 275.109L196.538 280.305L207.082 280.305L205.711 275.109Z" fill="white"/>
<path d="M214.934 269.914L204.39 269.914L205.753 275.11L216.297 275.11L214.934 269.914Z" fill="white"/>
<path d="M163.508 275.109L152.964 275.109L154.335 280.305L164.871 280.305L163.508 275.109Z" fill="white"/>
<path d="M142.379 275.109L131.843 275.109L133.206 280.305L143.75 280.305L142.379 275.109Z" fill="white"/>
<path d="M151.606 269.914L141.062 269.914L142.432 275.11L152.977 275.11L151.606 269.914Z" fill="white"/>
<path d="M226.84 320.703L216.296 320.703L217.659 325.899L228.203 325.899L226.84 320.703Z" fill="white"/>
<path d="M205.711 320.703L195.167 320.703L196.538 325.899L207.082 325.899L205.711 320.703Z" fill="white"/>
<path d="M214.934 315.508L204.39 315.508L205.753 320.704L216.297 320.704L214.934 315.508Z" fill="white"/>
<path d="M163.508 320.703L152.964 320.703L154.335 325.899L164.871 325.899L163.508 320.703Z" fill="white"/>
<path d="M142.383 320.703L131.847 320.703L133.21 325.899L143.754 325.899L142.383 320.703Z" fill="white"/>
<path d="M151.606 315.508L141.062 315.508L142.432 320.704L152.977 320.704L151.606 315.508Z" fill="white"/>
<path d="M163.503 305.507L174.047 305.507L172.684 300.301L162.14 300.301L163.503 305.507Z" fill="white"/>
<path d="M184.632 305.511L195.176 305.511L193.805 300.305L183.261 300.305L184.632 305.511Z" fill="white"/>
<path d="M175.409 310.706L185.953 310.706L184.59 305.5L174.046 305.5L175.409 310.706Z" fill="white"/>
<path d="M100.179 305.511L110.723 305.511L109.352 300.305L98.8076 300.305L100.179 305.511Z" fill="white"/>
<path d="M121.3 305.507L131.844 305.507L130.481 300.301L119.937 300.301L121.3 305.507Z" fill="white"/>
<path d="M112.085 310.706L122.621 310.706L121.258 305.5L110.714 305.5L112.085 310.706Z" fill="white"/>
<path d="M163.499 351.105L174.043 351.105L172.68 345.898L162.136 345.898L163.499 351.105Z" fill="white"/>
<path d="M184.632 351.105L195.176 351.105L193.805 345.898L183.261 345.898L184.632 351.105Z" fill="white"/>
<path d="M175.409 356.3L185.953 356.3L184.59 351.094L174.046 351.094L175.409 356.3Z" fill="white"/>
<path d="M100.179 351.105L110.723 351.105L109.352 345.898L98.8076 345.898L100.179 351.105Z" fill="white"/>
<path d="M121.3 351.105L131.844 351.105L130.481 345.898L119.937 345.898L121.3 351.105Z" fill="white"/>
<path d="M112.085 356.3L122.621 356.3L121.258 351.094L110.714 351.094L112.085 356.3Z" fill="white"/>
<path d="M226.84 305.508L216.296 305.508L217.659 310.704L228.203 310.704L226.84 305.508Z" fill="white"/>
<path d="M205.711 305.508L195.167 305.508L196.538 310.704L207.082 310.704L205.711 305.508Z" fill="white"/>
<path d="M214.934 300.312L204.39 300.312L205.753 305.509L216.297 305.509L214.934 300.312Z" fill="white"/>
<path d="M163.512 305.508L152.968 305.508L154.339 310.704L164.875 310.704L163.512 305.508Z" fill="white"/>
<path d="M142.379 305.508L131.843 305.508L133.206 310.704L143.75 310.704L142.379 305.508Z" fill="white"/>
<path d="M151.602 300.312L141.058 300.312L142.429 305.509L152.973 305.509L151.602 300.312Z" fill="white"/>
<path d="M226.84 351.105L216.296 351.105L217.659 356.302L228.203 356.302L226.84 351.105Z" fill="white"/>
<path d="M205.711 351.102L195.167 351.102L196.538 356.298L207.082 356.298L205.711 351.102Z" fill="white"/>
<path d="M214.934 345.906L204.39 345.906L205.753 351.102L216.297 351.102L214.934 345.906Z" fill="white"/>
<path d="M163.512 351.105L152.968 351.105L154.339 356.302L164.875 356.302L163.512 351.105Z" fill="white"/>
<path d="M142.383 351.102L131.847 351.102L133.21 356.298L143.754 356.298L142.383 351.102Z" fill="white"/>
<path d="M151.606 345.906L141.062 345.906L142.432 351.102L152.977 351.102L151.606 345.906Z" fill="white"/>
<path d="M163.503 275.11L174.047 275.11L172.684 269.914L162.14 269.914L163.503 275.11Z" fill="white"/>
<path d="M184.632 275.11L195.176 275.11L193.805 269.914L183.261 269.914L184.632 275.11Z" fill="white"/>
<path d="M175.405 280.305L185.949 280.305L184.587 275.109L174.042 275.109L175.405 280.305Z" fill="white"/>
<path d="M100.179 275.11L110.723 275.11L109.352 269.914L98.8076 269.914L100.179 275.11Z" fill="white"/>
<path d="M121.3 275.11L131.844 275.11L130.481 269.914L119.937 269.914L121.3 275.11Z" fill="white"/>
<path d="M112.085 280.305L122.621 280.305L121.258 275.109L110.714 275.109L112.085 280.305Z" fill="white"/>
<path d="M163.499 320.704L174.043 320.704L172.68 315.508L162.136 315.508L163.499 320.704Z" fill="white"/>
<path d="M184.632 320.704L195.176 320.704L193.805 315.508L183.261 315.508L184.632 320.704Z" fill="white"/>
<path d="M175.405 325.899L185.949 325.899L184.587 320.703L174.042 320.703L175.405 325.899Z" fill="white"/>
<path d="M100.179 320.704L110.723 320.704L109.352 315.508L98.8076 315.508L100.179 320.704Z" fill="white"/>
<path d="M121.3 320.704L131.844 320.704L130.481 315.508L119.937 315.508L121.3 320.704Z" fill="white"/>
<path d="M112.085 325.899L122.621 325.899L121.258 320.703L110.714 320.703L112.085 325.899Z" fill="white"/>
<path d="M226.84 381.492L216.296 381.492L217.659 386.698L228.203 386.698L226.84 381.492Z" fill="white"/>
<path d="M205.711 381.492L195.167 381.492L196.538 386.698L207.082 386.698L205.711 381.492Z" fill="white"/>
<path d="M214.934 376.297L204.39 376.297L205.753 381.503L216.297 381.503L214.934 376.297Z" fill="white"/>
<path d="M163.512 381.492L152.968 381.492L154.339 386.698L164.875 386.698L163.512 381.492Z" fill="white"/>
<path d="M142.379 381.492L131.843 381.492L133.206 386.698L143.75 386.698L142.379 381.492Z" fill="white"/>
<path d="M151.602 376.297L141.058 376.297L142.429 381.503L152.973 381.503L151.602 376.297Z" fill="white"/>
<path d="M226.84 427.086L216.296 427.086L217.659 432.292L228.203 432.292L226.84 427.086Z" fill="white"/>
<path d="M205.711 427.086L195.167 427.086L196.538 432.292L207.082 432.292L205.711 427.086Z" fill="white"/>
<path d="M214.934 421.891L204.39 421.891L205.753 427.097L216.297 427.097L214.934 421.891Z" fill="white"/>
<path d="M163.512 427.086L152.968 427.086L154.339 432.292L164.875 432.292L163.512 427.086Z" fill="white"/>
<path d="M142.383 427.086L131.847 427.086L133.21 432.292L143.754 432.292L142.383 427.086Z" fill="white"/>
<path d="M151.606 421.891L141.062 421.891L142.432 427.097L152.977 427.097L151.606 421.891Z" fill="white"/>
<path d="M163.499 381.493L174.043 381.493L172.68 376.297L162.136 376.297L163.499 381.493Z" fill="white"/>
<path d="M184.632 381.493L195.176 381.493L193.805 376.297L183.261 376.297L184.632 381.493Z" fill="white"/>
<path d="M175.409 386.688L185.953 386.688L184.59 381.492L174.046 381.492L175.409 386.688Z" fill="white"/>
<path d="M100.179 381.493L110.723 381.493L109.352 376.297L98.8076 376.297L100.179 381.493Z" fill="white"/>
<path d="M121.3 381.493L131.844 381.493L130.481 376.297L119.937 376.297L121.3 381.493Z" fill="white"/>
<path d="M112.085 386.688L122.621 386.688L121.258 381.492L110.714 381.492L112.085 386.688Z" fill="white"/>
<path d="M163.499 427.087L174.043 427.087L172.68 421.891L162.136 421.891L163.499 427.087Z" fill="white"/>
<path d="M184.628 427.087L195.172 427.087L193.801 421.891L183.257 421.891L184.628 427.087Z" fill="white"/>
<path d="M175.409 432.282L185.953 432.282L184.59 427.086L174.046 427.086L175.409 432.282Z" fill="white"/>
<path d="M100.179 427.087L110.723 427.087L109.352 421.891L98.8076 421.891L100.179 427.087Z" fill="white"/>
<path d="M121.3 427.087L131.844 427.087L130.481 421.891L119.937 421.891L121.3 427.087Z" fill="white"/>
<path d="M112.085 432.282L122.621 432.282L121.258 427.086L110.714 427.086L112.085 432.282Z" fill="white"/>
<path d="M226.84 366.297L216.296 366.297L217.659 371.493L228.203 371.493L226.84 366.297Z" fill="white"/>
<path d="M205.711 366.297L195.167 366.297L196.538 371.493L207.082 371.493L205.711 366.297Z" fill="white"/>
<path d="M214.934 361.102L204.39 361.102L205.753 366.298L216.297 366.298L214.934 361.102Z" fill="white"/>
<path d="M163.508 366.297L152.964 366.297L154.335 371.493L164.871 371.493L163.508 366.297Z" fill="white"/>
<path d="M142.379 366.297L131.843 366.297L133.206 371.493L143.75 371.493L142.379 366.297Z" fill="white"/>
<path d="M151.602 361.102L141.058 361.102L142.429 366.298L152.973 366.298L151.602 361.102Z" fill="white"/>
<path d="M226.84 411.895L216.296 411.895L217.659 417.091L228.203 417.091L226.84 411.895Z" fill="white"/>
<path d="M205.711 411.891L195.167 411.891L196.538 417.087L207.082 417.087L205.711 411.891Z" fill="white"/>
<path d="M214.934 406.695L204.39 406.695L205.753 411.891L216.297 411.891L214.934 406.695Z" fill="white"/>
<path d="M163.508 411.895L152.964 411.895L154.335 417.091L164.871 417.091L163.508 411.895Z" fill="white"/>
<path d="M142.383 411.891L131.847 411.891L133.21 417.087L143.754 417.087L142.383 411.891Z" fill="white"/>
<path d="M151.606 406.695L141.062 406.695L142.432 411.891L152.977 411.891L151.606 406.695Z" fill="white"/>
<path d="M163.499 396.698L174.043 396.698L172.68 391.492L162.136 391.492L163.499 396.698Z" fill="white"/>
<path d="M184.632 396.698L195.176 396.698L193.805 391.492L183.261 391.492L184.632 396.698Z" fill="white"/>
<path d="M175.409 401.894L185.953 401.894L184.59 396.687L174.046 396.687L175.409 401.894Z" fill="white"/>
<path d="M100.179 396.698L110.723 396.698L109.352 391.492L98.8076 391.492L100.179 396.698Z" fill="white"/>
<path d="M121.3 396.698L131.844 396.698L130.481 391.492L119.937 391.492L121.3 396.698Z" fill="white"/>
<path d="M112.085 401.894L122.621 401.894L121.258 396.687L110.714 396.687L112.085 401.894Z" fill="white"/>
<path d="M226.84 396.699L216.296 396.699L217.659 401.895L228.203 401.895L226.84 396.699Z" fill="white"/>
<path d="M205.711 396.695L195.167 396.695L196.538 401.891L207.082 401.891L205.711 396.695Z" fill="white"/>
<path d="M214.934 391.5L204.39 391.5L205.753 396.696L216.297 396.696L214.934 391.5Z" fill="white"/>
<path d="M163.512 396.695L152.968 396.695L154.339 401.891L164.883 401.891L163.512 396.695Z" fill="white"/>
<path d="M142.387 396.699L131.843 396.699L133.206 401.895L143.75 401.895L142.387 396.699Z" fill="white"/>
<path d="M151.602 391.504L141.058 391.504L142.429 396.7L152.973 396.7L151.602 391.504Z" fill="white"/>
<path d="M163.499 366.298L174.043 366.298L172.68 361.102L162.136 361.102L163.499 366.298Z" fill="white"/>
<path d="M184.628 366.298L195.172 366.298L193.801 361.102L183.257 361.102L184.628 366.298Z" fill="white"/>
<path d="M175.405 371.493L185.949 371.493L184.587 366.297L174.042 366.297L175.405 371.493Z" fill="white"/>
<path d="M100.179 366.298L110.723 366.298L109.352 361.102L98.8076 361.102L100.179 366.298Z" fill="white"/>
<path d="M121.3 366.298L131.844 366.298L130.481 361.102L119.937 361.102L121.3 366.298Z" fill="white"/>
<path d="M112.085 371.493L122.621 371.493L121.258 366.297L110.714 366.297L112.085 371.493Z" fill="white"/>
<path d="M163.499 411.891L174.043 411.891L172.68 406.695L162.136 406.695L163.499 411.891Z" fill="white"/>
<path d="M184.628 411.891L195.172 411.891L193.801 406.695L183.257 406.695L184.628 411.891Z" fill="white"/>
<path d="M175.405 417.091L185.949 417.091L184.578 411.895L174.042 411.895L175.405 417.091Z" fill="white"/>
<path d="M100.179 411.891L110.723 411.891L109.352 406.695L98.8076 406.695L100.179 411.891Z" fill="white"/>
<path d="M121.3 411.891L131.844 411.891L130.481 406.695L119.937 406.695L121.3 411.891Z" fill="white"/>
<path d="M112.085 417.091L122.621 417.091L121.258 411.895L110.714 411.895L112.085 417.091Z" fill="white"/>
</g>
</g>
<defs>
<clipPath id="clip0_7700_151089">
<rect width="233" height="429" fill="white"/>
</clipPath>
</defs>
</svg>
