<svg width="20" height="20" viewBox="0 0 20 20" fill="none" xmlns="http://www.w3.org/2000/svg">
<path d="M2 7.90597C2 7.01837 2.71954 6.29883 3.60714 6.29883H16.4643C17.3519 6.29883 18.0714 7.01837 18.0714 7.90597V10.7768C18.0714 12.552 16.6323 13.9911 14.8571 13.9911H5.21428C3.43908 13.9911 2 12.552 2 10.7768V7.90597Z" fill="#F1AF7E"/>
<path d="M2 6.28573C2 5.39813 2.71954 4.67859 3.60714 4.67859H16.4643C17.3519 4.67859 18.0714 5.39813 18.0714 6.28573V7.1566C18.0714 8.9318 16.6323 10.3709 14.8571 10.3709H5.21428C3.43908 10.3709 2 8.9318 2 7.1566V6.28573Z" fill="#6C645C"/>
<path d="M12.7146 7.89286V3.60714C12.7146 2.71954 11.995 2 11.1074 2H8.96456C8.07696 2 7.35742 2.71954 7.35742 3.60714V7.89286" stroke="#6C645C" stroke-width="1.875"/>
<path d="M2 9.43335H2.04444C2.29948 10.9536 3.62161 11.6431 5.21429 11.6431H8.42857V12.7146C8.42857 13.0104 8.66842 13.2503 8.96428 13.2503H10.5714C10.8673 13.2503 11.1071 13.0104 11.1071 12.7146V11.6431H14.8571C16.4498 11.6431 17.7719 10.9536 18.027 9.43335H18.0714V14.8574C18.0714 16.0409 17.112 17.0003 15.9286 17.0003H4.14286C2.95939 17.0003 2 16.0409 2 14.8574V9.43335Z" fill="#6C645C"/>
</svg>
