<svg width="22" height="27" viewBox="0 0 22 27" fill="none" xmlns="http://www.w3.org/2000/svg">
<path d="M21.6861 25.6148V9.31426C21.6861 8.63102 21.1322 8.07715 20.449 8.07715H16.3427H12.8149H1.54961C0.866375 8.07715 0.3125 8.63102 0.3125 9.31426V25.6148C0.3125 26.298 0.866376 26.8519 1.54962 26.8519H20.449C21.1322 26.8519 21.6861 26.298 21.6861 25.6148Z" fill="#A19991"/>
<path d="M7.33984 9.4834V4.80859C7.33984 2.78658 8.979 1.14742 11.001 1.14742V1.14742C13.023 1.14742 14.6622 2.78658 14.6622 4.80859V9.4834" stroke="#2C291F" stroke-width="1.5" stroke-linecap="round"/>
<path d="M6.79874 17.8868C7.01133 17.8984 7.20873 17.9096 7.40664 17.9197C7.75236 17.9369 7.99683 17.783 8.15172 17.4778C8.16235 17.4571 8.17349 17.4368 8.1831 17.4156C8.28029 17.2004 8.3795 16.9863 8.47314 16.7697C8.60828 16.4564 8.73989 16.1415 8.87149 15.8267C8.88718 15.7898 8.9049 15.765 8.95045 15.773C9.1185 15.8029 9.28553 15.8353 9.43688 15.9214C9.53305 15.976 9.58215 16.0595 9.60189 16.1623C9.63377 16.3268 9.6191 16.4903 9.58265 16.6518C9.4799 17.1058 9.27288 17.5102 8.98689 17.8741C8.85833 18.0381 8.71053 18.1834 8.50401 18.2482C8.41594 18.2755 8.32483 18.2943 8.23423 18.312C8.0105 18.3555 7.78678 18.3818 7.55596 18.3606C7.35046 18.3418 7.14293 18.3444 6.93642 18.3449C6.79267 18.3449 6.66916 18.4016 6.57957 18.5185C6.54262 18.5666 6.50314 18.6157 6.47834 18.6703C6.38976 18.8637 6.30675 19.0596 6.22272 19.2545C6.21513 19.2722 6.21311 19.2929 6.20703 19.3177C6.23436 19.3177 6.2536 19.3172 6.27233 19.3177C6.53148 19.3279 6.79165 19.3289 7.0498 19.3506C7.45827 19.3856 7.8627 19.3582 8.2651 19.2909C8.65029 19.2266 9.01878 19.1102 9.35437 18.9067C9.73045 18.6784 10.019 18.3616 10.2457 17.9901C10.4882 17.5927 10.6395 17.1569 10.7514 16.7074C10.8187 16.4371 10.8683 16.1653 10.8304 15.8824C10.7828 15.5276 10.6011 15.2811 10.2791 15.1282C10.0007 14.9961 9.7011 14.945 9.40195 14.9009C8.97677 14.8407 8.54704 14.8655 8.11933 14.865C8.09959 14.865 8.07073 14.8883 8.06213 14.9075C7.97861 15.0983 7.89864 15.2912 7.81765 15.483C7.49472 16.2473 7.17128 17.0111 6.84784 17.7754C6.83366 17.8094 6.81797 17.8433 6.79874 17.8863V17.8868Z" fill="#F1AF7E"/>
<path d="M13.3477 19.3196C13.3816 19.3196 13.4069 19.3196 13.4317 19.3196C13.7794 19.3166 14.1272 19.31 14.4749 19.3125C14.5468 19.313 14.5761 19.2983 14.6029 19.2295C14.7067 18.9648 14.8201 18.7041 14.9294 18.4414C15.058 18.1321 15.1855 17.8229 15.3161 17.5141C15.3258 17.4913 15.3531 17.4594 15.3718 17.4594C15.5905 17.461 15.7423 17.507 15.837 17.7419C15.881 17.8507 15.918 17.9646 15.9407 18.0795C15.9934 18.3483 16.0344 18.6191 16.082 18.8888C16.1301 19.1632 16.2536 19.2958 16.5198 19.3419C16.7779 19.3864 17.0356 19.3479 17.2983 19.3191C17.2947 19.2847 17.2937 19.2558 17.2892 19.2275C17.2492 18.9739 17.2117 18.7193 17.1672 18.4662C17.1085 18.1326 17.0538 17.7986 16.9303 17.4792C16.8665 17.3142 16.7678 17.1846 16.6175 17.096C16.5633 17.0641 16.5608 17.0241 16.5861 16.9806C16.6018 16.9538 16.6312 16.9315 16.659 16.9158C16.7425 16.8672 16.8316 16.8272 16.9136 16.7761C17.2578 16.559 17.5438 16.2755 17.8075 15.9698C18.1132 15.6155 18.4113 15.2541 18.712 14.8957C18.7176 14.8891 18.7201 14.879 18.7272 14.8638C18.6968 14.8638 18.674 14.8638 18.6513 14.8638C18.3921 14.8638 18.1324 14.8653 17.8733 14.8638C17.477 14.8608 17.1581 15.0167 16.9176 15.33C16.7415 15.5588 16.574 15.7947 16.3943 16.0204C16.2556 16.195 16.1052 16.3605 15.9559 16.5271C15.8942 16.5959 15.8107 16.6141 15.7064 16.5898C15.9407 16.0138 16.1731 15.4424 16.4084 14.8643C16.0187 14.8643 15.637 14.8643 15.2554 14.8658C15.2392 14.8658 15.2149 14.8866 15.2078 14.9033C15.0585 15.2586 14.9132 15.615 14.7639 15.9703C14.4116 16.8065 14.0578 17.6422 13.7045 18.4778C13.5876 18.7547 13.4701 19.0316 13.3482 19.3196H13.3477Z" fill="#F1AF7E"/>
<path d="M7.44017 14.8966C7.4179 14.891 7.40423 14.8844 7.39057 14.8839C7.12281 14.8794 6.85454 14.8612 6.5883 14.8743C6.23651 14.892 5.89131 14.9624 5.54762 15.0409C4.73219 15.2271 4.14453 15.7014 3.76794 16.4419C3.58066 16.8099 3.45462 17.2007 3.36149 17.6021C3.29265 17.9002 3.24254 18.1993 3.29569 18.5096C3.36149 18.8938 3.59078 19.1626 3.97041 19.2597C4.29131 19.3417 4.61931 19.3645 4.94882 19.36C5.14269 19.3569 5.32592 19.3063 5.49093 19.195C5.73085 19.0335 5.8331 18.789 5.92066 18.5228C5.88118 18.5228 5.8498 18.5253 5.81892 18.5228C5.59216 18.502 5.3654 18.4828 5.13914 18.4575C4.98679 18.4403 4.83241 18.4256 4.69372 18.3497C4.59097 18.293 4.53174 18.2074 4.51048 18.0915C4.48315 17.9452 4.49935 17.8 4.53174 17.6582C4.65019 17.1419 4.87897 16.6788 5.21709 16.2713C5.32895 16.1362 5.46511 16.0314 5.64126 15.9889C5.99608 15.9034 6.35293 15.836 6.71939 15.8239C6.94514 15.8163 7.12787 15.7252 7.2129 15.4964C7.24429 15.4114 7.27769 15.3273 7.30958 15.2428C7.35261 15.1289 7.39563 15.0155 7.43967 14.8976L7.44017 14.8966Z" fill="#F1AF7E"/>
<path d="M14.545 14.8638C14.5045 14.8638 14.4777 14.8638 14.4503 14.8638C13.8055 14.8638 13.1601 14.8638 12.5153 14.8643C12.4439 14.8643 12.3715 14.8673 12.3012 14.8779C12.083 14.9119 11.9028 15.0075 11.8137 15.2216C11.7191 15.4484 11.633 15.6792 11.5434 15.9085C11.5419 15.9115 11.5444 15.9166 11.5465 15.9262C11.5703 15.9262 11.5956 15.9262 11.6204 15.9262C12.2085 15.9262 12.7967 15.9267 13.3849 15.9257C13.4962 15.9257 13.6081 15.9196 13.7194 15.9141C14.0039 15.8994 14.2054 15.7653 14.3086 15.4955C14.3734 15.3264 14.4367 15.1568 14.5005 14.9873C14.5141 14.9503 14.5273 14.9134 14.5455 14.8638H14.545Z" fill="#F1AF7E"/>
<path d="M10.1328 19.3184H10.2143C10.8506 19.3184 11.4873 19.3184 12.1236 19.3179C12.2056 19.3179 12.2881 19.3144 12.3696 19.3048C12.6095 19.2754 12.7973 19.1691 12.8909 18.9337C12.9587 18.7637 13.025 18.5931 13.0919 18.4225C13.106 18.3861 13.1202 18.3491 13.1405 18.2965C13.0554 18.2965 12.982 18.298 12.9086 18.2965C12.5336 18.2889 12.1585 18.2767 11.7834 18.2732C11.4995 18.2702 11.215 18.2727 10.931 18.2818C10.6471 18.2909 10.4613 18.4423 10.3626 18.706C10.3074 18.8538 10.2507 19.0011 10.1951 19.1489C10.1753 19.2015 10.1561 19.2547 10.1328 19.3189V19.3184Z" fill="#F1AF7E"/>
<path d="M10.8164 17.6794C10.8564 17.6774 10.8792 17.6759 10.9019 17.6759C11.2542 17.6759 11.6065 17.6789 11.9588 17.6769C12.3172 17.6744 12.6756 17.6708 13.0339 17.6607C13.243 17.6551 13.4333 17.5853 13.531 17.3894C13.6464 17.1571 13.736 16.9116 13.8387 16.6676C13.8175 16.6625 13.8099 16.6595 13.8023 16.659C13.4778 16.6514 13.1534 16.6413 12.8284 16.6382C12.4341 16.6347 12.0398 16.6296 11.6455 16.6398C11.4177 16.6458 11.2158 16.7309 11.115 16.9546C11.0093 17.19 10.9181 17.4319 10.8169 17.6799L10.8164 17.6794Z" fill="#F1AF7E"/>
<path d="M6.79534 17.8863C6.81457 17.8428 6.83026 17.8094 6.84444 17.7755C7.16788 17.0112 7.49132 16.2474 7.81425 15.483C7.89524 15.2912 7.97521 15.0984 8.05873 14.9075C8.06733 14.8878 8.09619 14.865 8.11593 14.865C8.54364 14.865 8.97337 14.8407 9.39804 14.903C9.69719 14.947 9.99684 14.9981 10.2752 15.1303C10.5972 15.2826 10.7789 15.5291 10.8264 15.8844C10.8644 16.1674 10.8148 16.4392 10.7475 16.7095C10.6356 17.159 10.4843 17.5948 10.2418 17.9921C10.0146 18.3636 9.72604 18.6805 9.35046 18.9088C9.01437 19.1128 8.64588 19.2292 8.2612 19.293C7.85879 19.3603 7.45437 19.3871 7.04589 19.3527C6.78775 19.3304 6.52758 19.3299 6.26842 19.3198C6.24969 19.3193 6.23096 19.3198 6.20312 19.3198C6.2092 19.295 6.21122 19.2742 6.21882 19.2565C6.30284 19.0611 6.38585 18.8658 6.47443 18.6724C6.49923 18.6177 6.53871 18.5686 6.57566 18.5205C6.66525 18.4041 6.78876 18.3474 6.93251 18.3469C7.13903 18.3464 7.34655 18.3434 7.55206 18.3626C7.78236 18.3839 8.00609 18.3576 8.23032 18.314C8.32092 18.2963 8.41203 18.2776 8.50011 18.2503C8.70612 18.186 8.85392 18.0407 8.98299 17.8762C9.26897 17.5118 9.4765 17.1078 9.57875 16.6538C9.61519 16.4918 9.63037 16.3283 9.59798 16.1643C9.57773 16.0616 9.52864 15.9781 9.43297 15.9234C9.28112 15.8369 9.11459 15.805 8.94654 15.7751C8.9015 15.767 8.88327 15.7918 8.86758 15.8288C8.73547 16.1436 8.60438 16.4584 8.46923 16.7717C8.37559 16.9884 8.27638 17.2025 8.1792 17.4176C8.16958 17.4389 8.15844 17.4591 8.14781 17.4799C7.99293 17.7851 7.74845 17.939 7.40274 17.9218C7.20483 17.9121 7.00742 17.9005 6.79483 17.8889L6.79534 17.8863Z" fill="#F1AF7E"/>
<path d="M13.3448 19.3201C13.4667 19.0321 13.5837 18.7552 13.7011 18.4783C14.0544 17.6427 14.4082 16.807 14.7605 15.9708C14.9098 15.616 15.0556 15.2591 15.2044 14.9038C15.2115 14.8871 15.2358 14.8663 15.252 14.8663C15.6336 14.8643 16.0148 14.8648 16.405 14.8648C16.1697 15.4429 15.9373 16.0143 15.703 16.5903C15.8073 16.6146 15.8903 16.5964 15.9525 16.5276C16.1018 16.3615 16.2517 16.1955 16.3909 16.0209C16.5706 15.7951 16.7381 15.5593 16.9142 15.3305C17.1547 15.0172 17.4731 14.8613 17.8694 14.8638C18.1285 14.8658 18.3882 14.8638 18.6474 14.8638C18.6701 14.8638 18.6929 14.8638 18.7233 14.8638C18.7162 14.879 18.7142 14.8886 18.7081 14.8957C18.4069 15.2541 18.1093 15.6155 17.8036 15.9698C17.5399 16.2755 17.2539 16.5589 16.9097 16.7761C16.8282 16.8277 16.7391 16.8677 16.6551 16.9158C16.6272 16.932 16.5979 16.9538 16.5822 16.9806C16.5569 17.0241 16.5594 17.0641 16.6136 17.096C16.7639 17.1846 16.8626 17.3147 16.9264 17.4792C17.0499 17.798 17.1046 18.1326 17.1633 18.4662C17.2078 18.7193 17.2453 18.9734 17.2853 19.2275C17.2898 19.2558 17.2913 19.2852 17.2944 19.3191C17.0317 19.3479 16.774 19.3864 16.5159 19.3418C16.2496 19.2963 16.1261 19.1632 16.0781 18.8888C16.031 18.619 15.9895 18.3482 15.9368 18.0795C15.9146 17.9646 15.8771 17.8507 15.8331 17.7419C15.7379 17.507 15.5861 17.4609 15.3679 17.4594C15.3492 17.4594 15.3218 17.4913 15.3122 17.5141C15.1821 17.8223 15.0546 18.1321 14.9255 18.4414C14.8162 18.7041 14.7028 18.9648 14.599 19.2295C14.5722 19.2983 14.5434 19.313 14.471 19.3125C14.1232 19.3095 13.7755 19.316 13.4278 19.3196C13.4025 19.3196 13.3777 19.3196 13.3438 19.3196L13.3448 19.3201Z" fill="#F1AF7E"/>
<path d="M7.43967 14.8967C7.39512 15.0146 7.35261 15.1285 7.30958 15.2419C7.27769 15.3264 7.24429 15.4109 7.2129 15.4955C7.12787 15.7248 6.94514 15.8154 6.71939 15.823C6.35293 15.8351 5.99608 15.9024 5.64126 15.988C5.46511 16.0305 5.32896 16.1353 5.21709 16.2704C4.87897 16.6779 4.65019 17.141 4.53174 17.6573C4.49935 17.799 4.48315 17.9438 4.51049 18.0906C4.53174 18.206 4.59147 18.292 4.69372 18.3487C4.83241 18.4252 4.98679 18.4393 5.13914 18.4565C5.3654 18.4823 5.59216 18.5011 5.81892 18.5218C5.8498 18.5249 5.88118 18.5218 5.92066 18.5218C5.8331 18.7881 5.73085 19.0326 5.49093 19.194C5.32541 19.3054 5.14218 19.356 4.94882 19.359C4.61931 19.3641 4.29132 19.3413 3.97041 19.2588C3.59078 19.1616 3.36149 18.8934 3.29569 18.5087C3.24254 18.1984 3.29265 17.8992 3.36149 17.6011C3.45412 17.2002 3.58066 16.809 3.76794 16.441C4.14402 15.7015 4.73168 15.2272 5.54711 15.0409C5.8908 14.9625 6.236 14.8921 6.58779 14.8744C6.85454 14.8612 7.12281 14.879 7.39006 14.884C7.40373 14.884 7.4174 14.8906 7.43967 14.8967Z" fill="#F1AF7E"/>
<path d="M14.5453 14.8639C14.527 14.9135 14.5144 14.9505 14.5002 14.9874C14.4364 15.157 14.3732 15.3265 14.3084 15.4956C14.2046 15.7654 14.0037 15.8995 13.7192 15.9142C13.6079 15.9198 13.496 15.9258 13.3846 15.9258C12.7965 15.9268 12.2083 15.9263 11.6201 15.9263C11.5953 15.9263 11.5705 15.9263 11.5462 15.9263C11.5447 15.9167 11.5422 15.9117 11.5432 15.9086C11.6328 15.6793 11.7183 15.4485 11.8135 15.2218C11.9031 15.0082 12.0828 14.912 12.3009 14.8781C12.3713 14.8669 12.4437 14.8644 12.515 14.8644C13.1599 14.8634 13.8053 14.8639 14.4501 14.8639C14.4774 14.8639 14.5043 14.8639 14.5448 14.8639H14.5453Z" fill="#F1AF7E"/>
<path d="M10.1328 19.3189C10.1561 19.2552 10.1753 19.202 10.1951 19.1489C10.2507 19.0011 10.3074 18.8538 10.3626 18.706C10.4608 18.4423 10.6471 18.2909 10.931 18.2818C11.215 18.2727 11.4995 18.2702 11.7834 18.2732C12.1585 18.2767 12.5336 18.2889 12.9086 18.2965C12.982 18.298 13.0554 18.2965 13.1405 18.2965C13.1202 18.3491 13.1065 18.3856 13.0919 18.4225C13.025 18.5931 12.9592 18.7637 12.8909 18.9337C12.7968 19.1691 12.6095 19.2754 12.3696 19.3048C12.2881 19.3149 12.2056 19.3179 12.1236 19.3179C11.4873 19.3189 10.8506 19.3184 10.2143 19.3184H10.1328V19.3189Z" fill="#F1AF7E"/>
<path d="M10.8169 17.6799C10.9181 17.4319 11.0093 17.19 11.115 16.9546C11.2158 16.7309 11.4177 16.6453 11.6455 16.6398C12.0393 16.6296 12.4341 16.6347 12.8284 16.6382C13.1529 16.6413 13.4778 16.6519 13.8023 16.659C13.8099 16.659 13.818 16.6625 13.8387 16.6676C13.736 16.9116 13.6464 17.1571 13.531 17.3894C13.4338 17.5853 13.243 17.6551 13.0339 17.6607C12.6756 17.6708 12.3172 17.6744 11.9588 17.6769C11.6065 17.6794 11.2542 17.6769 10.9019 17.6759C10.8792 17.6759 10.8564 17.6779 10.8164 17.6794L10.8169 17.6799Z" fill="#F1AF7E"/>
</svg>
