<svg width="22" height="24" viewBox="0 0 22 24" fill="none" xmlns="http://www.w3.org/2000/svg">
<path d="M1.41406 5.19629H20.5893V21.8973C20.5893 22.5806 20.0354 23.1344 19.3522 23.1344H2.65118C1.96794 23.1344 1.41406 22.5806 1.41406 21.8973V5.19629Z" fill="#A19991"/>
<rect x="7.59766" y="8.90723" width="6.80412" height="3.09278" rx="1" fill="#2C291F"/>
<rect x="0.175781" y="0.866211" width="21.6495" height="4.3299" rx="1" fill="#F1AF7E"/>
<mask id="mask0_8877_55152" style="mask-type:luminance" maskUnits="userSpaceOnUse" x="6" y="14" width="10" height="7">
<path d="M15.9946 14.5659H6V20.657H15.9946V14.5659Z" fill="white"/>
</mask>
<g mask="url(#mask0_8877_55152)">
<path d="M7.68331 14.6113V17.34H7.22853V15.004H6.45478V17.34H6V14.6113H7.68331Z" fill="#2C291F"/>
<path d="M8.50535 17.232C8.36911 17.1069 8.27002 16.9466 8.219 16.7688C8.14433 16.5193 8.10881 16.2597 8.11373 15.9993C8.10891 15.7316 8.1444 15.4647 8.219 15.2076C8.2691 15.024 8.36806 14.8573 8.50535 14.7255C8.62538 14.6225 8.7783 14.5659 8.93644 14.5659C9.09458 14.5659 9.24749 14.6225 9.36753 14.7255C9.50555 14.8562 9.60435 15.0228 9.65282 15.2066C9.72753 15.464 9.76302 15.7312 9.7581 15.9993C9.76299 16.26 9.72747 16.52 9.65282 16.7699C9.60311 16.9477 9.50466 17.1082 9.36858 17.2331C9.24618 17.3318 9.09368 17.3856 8.93644 17.3856C8.7792 17.3856 8.6267 17.3318 8.5043 17.2331L8.50535 17.232ZM8.61693 16.5414C8.63473 16.6604 8.67858 16.774 8.74537 16.8741C8.7664 16.9056 8.79467 16.9316 8.82783 16.9499C8.86098 16.9682 8.89805 16.9783 8.93592 16.9794C9.04855 16.9794 9.13698 16.8972 9.20226 16.733C9.27778 16.495 9.31058 16.2455 9.29911 15.9961C9.302 15.8064 9.2872 15.6167 9.25489 15.4297C9.23791 15.3068 9.19445 15.189 9.12751 15.0844C9.10873 15.0502 9.08108 15.0216 9.04746 15.0017C9.01385 14.9818 8.9755 14.9713 8.93644 14.9713C8.89737 14.9713 8.85902 14.9818 8.82541 15.0017C8.7918 15.0216 8.76415 15.0502 8.74537 15.0844C8.67924 15.1891 8.63551 15.3063 8.61693 15.4287C8.58424 15.6153 8.56909 15.8046 8.57167 15.994C8.56879 16.1775 8.58395 16.3609 8.61693 16.5414Z" fill="#2C291F"/>
<path d="M11.2601 14.6113V15.6577H11.019C10.9316 15.6625 10.8443 15.6467 10.7642 15.6114C10.701 15.5779 10.6526 15.5219 10.6284 15.4546C10.5963 15.3608 10.5816 15.262 10.5853 15.163V14.6113H10.1305V15.1609C10.1173 15.3979 10.1881 15.632 10.3305 15.822C10.4053 15.905 10.498 15.97 10.6016 16.0119C10.7052 16.0539 10.8169 16.0717 10.9284 16.0641H11.2601V17.34H11.7148V14.6113H11.2601Z" fill="#2C291F"/>
<path d="M13.7097 15.004H13.176V17.34H12.7212V15.004H12.1875V14.6113H13.7097V15.004Z" fill="#2C291F"/>
<path d="M14.6249 14.6105H14.9891C15.1392 14.6024 15.2883 14.639 15.4175 14.7158C15.5303 14.7911 15.618 14.8986 15.6692 15.0242C15.7318 15.1801 15.7711 15.3443 15.786 15.5116L15.9966 17.3339H15.5418L15.3944 16.0611H14.6227V17.3392H14.168V14.6105H14.6249ZM14.6249 15.6737H15.3513L15.3323 15.5169C15.3239 15.4161 15.303 15.3167 15.2702 15.2211C15.2471 15.1567 15.202 15.1026 15.1428 15.0684C15.0664 15.0318 14.982 15.0151 14.8975 15.02H14.6249V15.6737Z" fill="#2C291F"/>
<path d="M6.5011 17.8831C6.65273 17.8791 6.80239 17.9181 6.93272 17.9957C7.0605 18.0771 7.16012 18.1958 7.21801 18.3358C7.29196 18.5141 7.32782 18.706 7.32328 18.899C7.32796 19.0816 7.29537 19.2632 7.22748 19.4327C7.17719 19.5629 7.09589 19.6789 6.99062 19.7706C6.91944 19.8377 6.82713 19.8779 6.72954 19.8843C6.67899 19.8879 6.62829 19.8803 6.58099 19.8621C6.5337 19.8439 6.49098 19.8156 6.45583 19.7791V20.6118H6V17.8831H6.5011ZM6.4811 19.2959C6.49231 19.3446 6.51546 19.3898 6.54847 19.4274C6.55922 19.4407 6.57267 19.4515 6.58792 19.4591C6.60317 19.4667 6.61987 19.471 6.6369 19.4717C6.67686 19.4694 6.71449 19.4521 6.74217 19.4232C6.78469 19.379 6.81514 19.3247 6.8306 19.2653C6.85618 19.1746 6.86789 19.0806 6.86534 18.9863C6.86534 18.7316 6.83481 18.5516 6.77165 18.4463C6.74579 18.3977 6.70686 18.3572 6.65925 18.3295C6.61163 18.3018 6.55722 18.2879 6.50215 18.2894H6.45583V19.0853C6.45443 19.1563 6.46293 19.2272 6.4811 19.2959Z" fill="#2C291F"/>
<path d="M7.82567 20.5024C7.68884 20.3774 7.58966 20.2166 7.53933 20.0382C7.46458 19.7887 7.42907 19.5291 7.43405 19.2686C7.42923 19.0013 7.46472 18.7348 7.53933 18.478C7.589 18.2945 7.68804 18.1281 7.82567 17.9969C7.9457 17.894 8.09862 17.8374 8.25676 17.8374C8.4149 17.8374 8.56782 17.894 8.68785 17.9969C8.82527 18.1277 8.92398 18.2938 8.97314 18.477C9.04777 18.7345 9.08325 19.0017 9.07841 19.2697C9.08517 19.5302 9.05143 19.7902 8.97841 20.0403C8.92895 20.2183 8.83046 20.3788 8.69417 20.5035C8.5721 20.6029 8.41947 20.6572 8.26203 20.6572C8.10458 20.6572 7.95196 20.6029 7.82988 20.5035L7.82567 20.5024ZM7.93831 19.8129C7.95677 19.9289 8.00023 20.0396 8.06569 20.1372C8.08651 20.1684 8.11446 20.1942 8.14722 20.2125C8.17998 20.2308 8.21662 20.2411 8.25413 20.2424C8.36642 20.2424 8.45485 20.1603 8.51942 19.9961C8.59598 19.7583 8.62915 19.5087 8.61732 19.2592C8.62018 19.0694 8.60538 18.8798 8.5731 18.6928C8.55564 18.5706 8.5122 18.4536 8.44572 18.3496C8.42694 18.3154 8.3993 18.2868 8.36568 18.2669C8.33207 18.247 8.29372 18.2365 8.25465 18.2365C8.21559 18.2365 8.17724 18.247 8.14363 18.2669C8.11002 18.2868 8.08237 18.3154 8.06358 18.3496C7.99732 18.4574 7.95463 18.5779 7.93831 18.7033C7.90571 18.89 7.89055 19.0792 7.89304 19.2686C7.8904 19.4511 7.90555 19.6334 7.93831 19.8129Z" fill="#2C291F"/>
<path d="M9.38934 18.4994C9.50034 18.2938 9.67507 18.1297 9.88728 18.0319C10.1357 17.9241 10.4051 17.873 10.6758 17.8825V18.292C10.3515 18.292 10.1041 18.373 9.93255 18.5373C9.76095 18.7015 9.67463 18.9447 9.67463 19.2742C9.67463 19.6037 9.7599 19.8216 9.9315 19.9753C10.1031 20.129 10.3526 20.2069 10.6758 20.2069V20.6111C10.2105 20.6111 9.85148 20.4988 9.59883 20.2743C9.34618 20.0497 9.21985 19.7146 9.21985 19.2689C9.20985 19.0021 9.26819 18.7372 9.38934 18.4994Z" fill="#2C291F"/>
<path d="M10.9206 18.5003C11.0317 18.2943 11.2069 18.1302 11.4196 18.0329C11.6664 17.924 11.9343 17.8715 12.2039 17.8791V18.2887C11.8807 18.2887 11.6333 18.3697 11.4607 18.5339C11.288 18.6982 11.2028 18.9456 11.2028 19.2698C11.2028 19.594 11.288 19.8172 11.4596 19.9709C11.6312 20.1246 11.8807 20.2025 12.2029 20.2025V20.612C11.7375 20.612 11.3786 20.4997 11.1259 20.2752C10.8732 20.0506 10.7469 19.7155 10.7469 19.2698C10.7382 19.0027 10.798 18.7378 10.9206 18.5003Z" fill="#2C291F"/>
<path d="M12.8699 17.8828V18.8566L13.6426 18.205L14.0974 17.8218V20.6115H13.6426V18.7545L12.8699 19.4061V20.6115H12.4141V17.8828H12.8699Z" fill="#2C291F"/>
<path d="M14.7673 17.8827V18.8565L15.54 18.2048L15.9927 17.8237V20.6114H15.5379V18.7543L14.7652 19.406V20.6114H14.3125V17.8827H14.7673Z" fill="#2C291F"/>
</g>
</svg>
