<svg width="14" height="8" viewBox="0 0 14 8" fill="none" xmlns="http://www.w3.org/2000/svg">
<mask id="mask0_4990_15986" style="mask-type:luminance" maskUnits="userSpaceOnUse" x="-1" y="0" width="15" height="8">
<path d="M13.718 0H-0.000976562V8H13.718V0Z" fill="white"/>
</mask>
<g mask="url(#mask0_4990_15986)">
<path d="M13.718 0H-0.000976562V8H13.718V0Z" fill="#CB1D23"/>
<path d="M1.31949 2.89933L1.57703 2.09811L0.898438 1.60347L1.73645 1.59938L1.99808 0.802246L2.2597 1.59938L3.09772 1.60347L2.42322 2.09811L2.67667 2.89933L1.99808 2.4047L1.31949 2.89933Z" fill="#F7DE29"/>
<path d="M3.6577 3.32851L3.93977 3.44297L4.14007 3.20996L4.11555 3.51246L4.4017 3.63101L4.10328 3.7046L4.08284 4.0071L3.91933 3.74956L3.625 3.81906L3.81713 3.58605L3.6577 3.32851Z" fill="#F7DE29"/>
<path d="M5.19131 1.79514L4.89289 1.742L4.74573 2.0118L4.70485 1.7093L4.40234 1.65207L4.67623 1.52125L4.63535 1.21875L4.84792 1.43541L5.12181 1.3046L4.97874 1.5744L5.19131 1.79514Z" fill="#F7DE29"/>
<path d="M4.5536 3.15976L4.64762 2.86952L4.40234 2.68965H4.70485L4.79887 2.39941L4.89698 2.68965H5.19948L4.95421 2.86952L5.04823 3.15976L4.79887 2.97989L4.5536 3.15976Z" fill="#F7DE29"/>
<path d="M3.6746 0.507107L3.95258 0.63792L4.16106 0.413086L4.12427 0.71559L4.39816 0.846402L4.09974 0.903633L4.06295 1.21022L3.9117 0.940424L3.61328 0.997654L3.82176 0.77282L3.6746 0.507107Z" fill="#F7DE29"/>
</g>
</svg>
