<svg width="243" height="70" viewBox="0 0 243 70" fill="none" xmlns="http://www.w3.org/2000/svg">
<path d="M11.8955 18.9563V51.6695H25.2997V18.9563H33.1015H36.1335L39.9471 7.95874H36.9188H25.2997H11.8955H3.31569H0.280029V18.9563H3.31569H11.8955Z" fill="#DFDDDA"/>
<path d="M117.431 38.8787C117.431 33.144 113.559 28.0807 108.019 26.56L91.4152 22.0158C90.9716 21.8125 90.6881 21.3733 90.6881 20.8543C90.6881 20.1611 91.2479 19.6021 91.9423 19.6021H110.625L114.617 7.9585H91.9387C84.8131 7.9585 79.0181 13.744 79.0181 20.8797C79.0181 26.3494 82.4936 31.2385 87.667 33.046L104.928 37.7862C105.419 37.9168 105.757 38.3705 105.757 38.8968C105.757 39.5247 105.248 40.0292 104.623 40.0292H81.1957L85.1912 51.6692H104.619C111.68 51.6692 117.424 45.9381 117.424 38.8787H117.431Z" fill="#DFDDDA"/>
<path d="M55.816 19.907L66.8171 51.6692H79.5923L64.454 7.9585H59.9532H51.6715H47.178L32.0325 51.6692H44.8149L46.8581 45.7712H57.4956L61.0257 35.5794H50.3846L55.816 19.907Z" fill="#DFDDDA"/>
<path d="M128.781 39.9021C127.12 39.9021 125.68 40.4937 124.509 41.6661C123.339 42.842 122.742 44.2721 122.742 45.9308C122.742 47.5895 123.339 49.0268 124.509 50.1955C125.68 51.3642 127.12 51.9595 128.781 51.9595C130.442 51.9595 131.882 51.3642 133.053 50.1955C134.223 49.0195 134.82 47.5895 134.82 45.9308C134.82 44.2721 134.223 42.8348 133.053 41.6661C131.875 40.4901 130.442 39.9021 128.781 39.9021Z" fill="#DFDDDA"/>
<path d="M225.355 43.056C221.45 43.056 218.273 39.8838 218.273 35.982C218.273 32.0803 221.45 28.9153 225.355 28.9153C229.259 28.9153 232.433 32.0875 232.433 35.982C232.433 39.8766 229.256 43.056 225.355 43.056ZM224.628 18.7925C215.346 18.7925 207.795 26.3311 207.795 35.5973C207.795 44.8636 215.346 52.4021 224.628 52.4021C233.909 52.4021 241.46 44.8636 241.46 35.5973C241.46 26.3311 233.909 18.7925 224.628 18.7925Z" fill="#DFDDDA"/>
<path d="M207.872 19.5222H201.415C197.772 19.5222 194.82 22.4694 194.82 26.1062V19.5222H183.419V51.7272H194.82V29.4236H204.498L207.872 19.5186V19.5222Z" fill="#DFDDDA"/>
<path d="M162.49 42.5079C158.672 42.5079 155.568 39.4082 155.568 35.5972C155.568 31.7862 158.672 28.6865 162.49 28.6865C166.307 28.6865 169.412 31.7862 169.412 35.5972C169.412 39.4082 166.307 42.5079 162.49 42.5079ZM162.508 18.7924C161.235 18.7924 159.999 18.9339 158.803 19.2025C156.236 20.1389 154.139 21.9464 152.925 24.2294V19.6671H141.571V66.7206L152.925 62.8442V46.9395C154.204 49.3532 156.462 51.2333 159.221 52.1225C160.283 52.3331 161.377 52.4456 162.5 52.4456C171.811 52.4456 179.362 44.907 179.362 35.6117C179.362 26.3164 171.811 18.7778 162.5 18.7778L162.508 18.7887V18.7924Z" fill="#DFDDDA"/>
</svg>
