<svg width="13" height="13" viewBox="0 0 13 13" fill="none" xmlns="http://www.w3.org/2000/svg">
<g clip-path="url(#clip0_8148_4683)">
<path fill-rule="evenodd" clip-rule="evenodd" d="M8.87216 2.1844C8.76465 2.08446 8.65863 1.98591 8.55352 1.89272C8.20054 1.57978 7.7361 1.38977 7.22727 1.38977H5.77273C5.2639 1.38977 4.79946 1.57978 4.44648 1.89272C4.34137 1.98591 4.23535 2.08446 4.12784 2.1844C3.54999 2.72155 2.92894 3.29886 2.17398 3.29886C1.24947 3.29886 0.5 4.04833 0.5 4.97285V9.20886C0.5 10.9154 1.88344 12.2989 3.59 12.2989H9.41C11.1166 12.2989 12.5 10.9154 12.5 9.20886V4.97285C12.5 4.04833 11.7505 3.29886 10.826 3.29886C10.0711 3.29886 9.45001 2.72155 8.87216 2.1844ZM6.5 9.52478C7.67912 9.52478 8.635 8.56891 8.635 7.38978C8.635 6.21065 7.67912 5.25478 6.5 5.25478C5.32087 5.25478 4.365 6.21065 4.365 7.38978C4.365 8.56891 5.32087 9.52478 6.5 9.52478Z" fill="white"/>
</g>
<defs>
<clipPath id="clip0_8148_4683">
<rect width="12" height="12" fill="white" transform="translate(0.5 0.298828)"/>
</clipPath>
</defs>
</svg>
