<svg width="27" height="27" viewBox="0 0 27 27" fill="none" xmlns="http://www.w3.org/2000/svg">
<rect x="3" y="4" width="16" height="20" rx="2" fill="#A19991"/>
<rect x="5.5" y="10.5" width="12" height="10" rx="0.5" stroke="#2C291F"/>
<path d="M16.2852 16.4067L18.4065 14.2854L24.7704 20.6494C25.161 21.0399 25.161 21.6731 24.7704 22.0636L24.0633 22.7707C23.6728 23.1612 23.0396 23.1612 22.6491 22.7707L16.2852 16.4067Z" fill="#2C291F"/>
<path fill-rule="evenodd" clip-rule="evenodd" d="M11.5328 12.212C10.828 13.8519 11.1551 15.828 12.5089 17.1539L12.5766 17.2201C14.3204 18.9278 17.114 18.9132 18.8398 17.1873C20.5656 15.4615 20.5802 12.668 18.8726 10.9242L18.8063 10.8565C17.5064 9.52912 15.5816 9.18871 13.9612 9.84016L16.4699 12.3488C17.1327 13.0116 17.1327 14.0862 16.4699 14.749C15.8071 15.4117 14.7325 15.4117 14.0698 14.749L11.5328 12.212Z" fill="#F1AF7E"/>
<circle cx="7" cy="7" r="0.5" fill="white" stroke="#2C291F"/>
<circle cx="11" cy="7" r="0.5" fill="white" stroke="#2C291F"/>
<circle cx="15" cy="7" r="0.5" fill="white" stroke="#2C291F"/>
</svg>
