<svg width="27" height="27" viewBox="0 0 27 27" fill="none" xmlns="http://www.w3.org/2000/svg">
<path d="M10.4098 1.00406C12.4183 0.351478 14.5817 0.351477 16.5902 1.00406L18.3449 1.57421C20.3534 2.22679 22.1037 3.49845 23.3449 5.20693L24.4294 6.69962C25.6707 8.40809 26.3393 10.4657 26.3393 12.5775V14.4225C26.3393 16.5343 25.6707 18.5919 24.4294 20.3004L23.3449 21.7931C22.1037 23.5016 20.3534 24.7732 18.3449 25.4258L16.5902 25.9959C14.5817 26.6485 12.4183 26.6485 10.4098 25.9959L8.65507 25.4258C6.64664 24.7732 4.89635 23.5016 3.65507 21.7931L2.57057 20.3004C1.32929 18.5919 0.660737 16.5343 0.660737 14.4225V12.5775C0.660737 10.4657 1.32929 8.40809 2.57057 6.69962L3.65507 5.20693C4.89635 3.49845 6.64664 2.22679 8.65507 1.57421L10.4098 1.00406Z" fill="#F1AF7E"/>
<path d="M10.855 5.35942C12.5741 4.80085 14.4259 4.80085 16.145 5.35942C17.8642 5.918 19.3623 7.00648 20.4248 8.46885C21.4873 9.93122 22.0595 11.6924 22.0595 13.5C22.0595 15.3076 21.4873 17.0688 20.4248 18.5312C19.3623 19.9935 17.8642 21.082 16.145 21.6406C14.4259 22.1992 12.5741 22.1992 10.855 21.6406C9.13585 21.082 7.63769 19.9935 6.57521 18.5312C5.51274 17.0688 4.94049 15.3076 4.94049 13.5C4.94049 11.6924 5.51274 9.93122 6.57521 8.46885C7.63769 7.00648 9.13585 5.918 10.855 5.35942Z" fill="#6C645C"/>
<path d="M16.6975 20.7083L17.3249 11.925H18.6749L19.3023 20.7083C19.3311 21.1119 19.1139 21.493 18.752 21.674L18.4471 21.8264C18.1656 21.9672 17.8342 21.9672 17.5527 21.8264L17.2478 21.674C16.8859 21.493 16.6687 21.1119 16.6975 20.7083Z" fill="#2C291F"/>
<ellipse cx="17.9998" cy="8.55" rx="2.7" ry="4.05" fill="#2C291F"/>
<path d="M7.69753 20.7083L8.3249 11.925H9.6749L10.3023 20.7083C10.3311 21.1119 10.1139 21.493 9.75203 21.674L9.44712 21.8264C9.16559 21.9672 8.83422 21.9672 8.55269 21.8264L8.24777 21.674C7.88589 21.493 7.6687 21.1119 7.69753 20.7083Z" fill="#2C291F"/>
<path d="M6.2998 11.25V4.5H7.6498V11.25H6.2998Z" fill="#2C291F"/>
<path d="M8.32471 11.25V4.5H9.67471V11.25H8.32471Z" fill="#2C291F"/>
<path d="M10.3496 11.25V4.5H11.6996V11.25H10.3496Z" fill="#2C291F"/>
<path d="M6.2998 11.25V10.575H11.6998V11.25L10.6873 12.6H7.3123L6.2998 11.25Z" fill="#2C291F"/>
</svg>
