<svg width="27" height="27" viewBox="0 0 27 27" fill="none" xmlns="http://www.w3.org/2000/svg">
<path d="M3 19L11.7803 23.1811C12.8682 23.6992 14.1318 23.6992 15.2197 23.1811L24 19L13.5 14.5L3 19Z" fill="#2C291F"/>
<path d="M13.5 2.5V14.5L3 19V8.97819C3 7.7781 3.71519 6.69349 4.81824 6.22075L13.5 2.5Z" fill="#6C645C"/>
<path d="M13.5 2.5V14.5L24 19V8.97819C24 7.7781 23.2848 6.69349 22.1818 6.22075L13.5 2.5Z" fill="#2C291F"/>
<path d="M12.5465 9.55012L18.2489 15.2526C18.6395 15.6431 18.6395 16.2763 18.2489 16.6668L16.167 18.7488C15.7765 19.1393 15.1433 19.1393 14.7528 18.7488L9.05031 13.0463L9.05031 9.55012L12.5465 9.55012Z" fill="#F1AF7E"/>
<path d="M9.05073 9.55005L12.5469 9.55005L9.05073 13.0462L9.05073 9.55005Z" fill="#2C291F"/>
</svg>
