<svg width="20" height="20" viewBox="0 0 20 20" fill="none" xmlns="http://www.w3.org/2000/svg">
<g clip-path="url(#clip0_7135_102742)">
<path d="M12.6582 11.5685L9.34456 9.08325C9.04668 8.85984 8.62158 9.07239 8.62158 9.44474V14.4152C8.62158 14.7876 9.04668 15.0001 9.34456 14.7767L12.6582 12.2915C12.8992 12.1107 12.8992 11.7492 12.6582 11.5685Z" fill="#DD782D"/>
<path d="M3.5376 11.9302L11.2037 11.9302" stroke="#DD782D" stroke-width="1.94866" stroke-linecap="round"/>
<path d="M17.0005 7.29883V17.4516C17.0005 17.9195 16.6212 18.2988 16.1532 18.2988H2.00049" stroke="#2C291F" stroke-width="1.94866" stroke-linecap="round"/>
<path d="M16.085 1.44287H4.20019C3.52394 1.44287 2.90118 1.81054 2.5745 2.40264L1.01204 5.2346C0.558099 6.05737 0.972632 7.08961 1.86955 7.36989L2.10807 7.44443C2.75943 7.64798 3.45428 7.6681 4.11632 7.50259L5.86694 7.06494C6.48995 6.90919 7.14269 6.91766 7.76145 7.08954L9.13647 7.47149C9.8051 7.65722 10.5124 7.65188 11.1781 7.45607L12.2973 7.12691C12.963 6.9311 13.6703 6.92576 14.3389 7.11149L15.6641 7.47959C16.3144 7.66022 17.0016 7.66022 17.6518 7.47959L18.2382 7.31672C19.1466 7.06439 19.5931 6.04054 19.16 5.20314L17.7341 2.44656C17.4152 1.83004 16.7791 1.44287 16.085 1.44287Z" fill="#2C291F" stroke="#2C291F" stroke-width="0.371341"/>
</g>
<defs>
<clipPath id="clip0_7135_102742">
<rect width="20" height="20" fill="white"/>
</clipPath>
</defs>
</svg>
