<svg width="27" height="27" viewBox="0 0 27 27" fill="none" xmlns="http://www.w3.org/2000/svg">
<g clip-path="url(#clip0_7179_24501)">
<path d="M3 9.31567C3 8.76339 3.44772 8.31567 4 8.31567H23C23.5523 8.31567 24 8.76339 24 9.31567V24.5C24 25.0523 23.5523 25.5 23 25.5H4C3.44772 25.5 3 25.0523 3 24.5V9.31567Z" fill="#A19991"/>
<rect x="3" y="4" width="5" height="9" rx="1" fill="#2C291F"/>
<rect x="8" y="4" width="5" height="9" rx="1" fill="#2C291F"/>
<rect x="13" y="4" width="6" height="9" rx="1" fill="#2C291F"/>
<rect x="19" y="4" width="5" height="9" rx="1" fill="#2C291F"/>
<path d="M20.5844 2.99359C21.3224 5.19917 18.1428 7.04012 13.9321 8.44901C9.72147 9.85789 6.07423 10.3012 5.33625 8.09561C4.59826 5.89003 7.41341 2.95992 11.6241 1.55104C15.8347 0.142151 19.8464 0.788001 20.5844 2.99359Z" fill="#F1AF7E"/>
<path d="M10.4822 5.57506L7.80234 3.66089L6.271 5.19223L8.95084 6.34073L10.4822 5.57506Z" fill="#2C291F"/>
<path d="M14.3098 3.27695L12.0128 1.74561L9.71582 2.51128L12.7785 4.04262L14.3098 3.27695Z" fill="#2C291F"/>
<path d="M18.1389 2.12873L16.6076 0.980225L13.9277 1.36306L16.6076 2.51157L18.1389 2.12873Z" fill="#2C291F"/>
<path d="M4.5 15C4.5 14.7239 4.72386 14.5 5 14.5H22C22.2761 14.5 22.5 14.7239 22.5 15V24.5C22.5 24.7761 22.2761 25 22 25H5C4.72386 25 4.5 24.7761 4.5 24.5V15Z" stroke="#2C291F"/>
<path d="M7.5 20.5L10.5 17.5" stroke="#2C291F" stroke-linecap="round"/>
<path d="M8 22.5L10 20.5" stroke="#2C291F" stroke-linecap="round"/>
<path d="M13 22.5L15.5 20" stroke="#2C291F" stroke-linecap="round"/>
</g>
<defs>
<clipPath id="clip0_7179_24501">
<rect width="27" height="27" fill="white"/>
</clipPath>
</defs>
</svg>
