<svg width="27" height="27" viewBox="0 0 27 27" fill="none" xmlns="http://www.w3.org/2000/svg">
<path d="M1 8C1 6.89543 1.89543 6 3 6H15C16.1046 6 17 6.89543 17 8V25C17 26.1046 16.1046 27 15 27H3C1.89543 27 1 26.1046 1 25V8Z" fill="#6C645C"/>
<path d="M23 14C23 15.1046 22.1046 16 21 16L17 16C15.8954 16 15 15.1046 15 14L15 10C15 8.89543 15.8954 8 17 8L21 8C22.1046 8 23 8.89543 23 10L23 14Z" fill="#F1AF7E"/>
<path d="M23 18C23 19.1046 22.1046 20 21 20L20 20C18.8954 20 18 19.1046 18 18L18 10C18 8.89543 18.8954 8 20 8L21 8C22.1046 8 23 8.89543 23 10L23 18Z" fill="#2C291F"/>
<path d="M7.23664 13.5729C8.38273 13.2006 9.61727 13.2006 10.7634 13.5729C11.9094 13.9453 12.9082 14.671 13.6165 15.6459C14.3248 16.6208 14.7063 17.7949 14.7063 19C14.7063 20.2051 14.3248 21.3792 13.6165 22.3541C12.9082 23.329 11.9094 24.0547 10.7634 24.4271C9.61727 24.7994 8.38273 24.7994 7.23664 24.4271C6.09056 24.0547 5.09179 23.329 4.38347 22.3541C3.67516 21.3792 3.29366 20.2051 3.29366 19C3.29366 17.7949 3.67516 16.6208 4.38347 15.6459C5.09179 14.671 6.09056 13.9453 7.23664 13.5729Z" fill="#F1AF7E"/>
<path d="M7.82443 15.382C8.58848 15.1337 9.41152 15.1337 10.1756 15.382C10.9396 15.6302 11.6055 16.114 12.0777 16.7639C12.5499 17.4139 12.8042 18.1966 12.8042 19C12.8042 19.8034 12.5499 20.5861 12.0777 21.2361C11.6055 21.886 10.9396 22.3698 10.1756 22.618C9.41152 22.8663 8.58848 22.8663 7.82443 22.618C7.06038 22.3698 6.39453 21.886 5.92232 21.2361C5.45011 20.5861 5.19577 19.8034 5.19577 19C5.19577 18.1966 5.45011 17.4139 5.92232 16.7639C6.39453 16.114 7.06038 15.6302 7.82443 15.382Z" fill="#2C291F"/>
<rect x="3" y="8" width="2" height="2" rx="1" fill="#2C291F"/>
<path d="M10.5094 8.44284L18.0601 5.15991L25.2973 8.44955C26.2763 8.89457 25.9589 10.3599 24.8835 10.3599H10.9081C9.82353 10.3599 9.51475 8.87528 10.5094 8.44284Z" stroke="#2C291F"/>
<path d="M18.06 5.16V4.12C18.06 3.83281 17.8272 3.6 17.54 3.6V3.6C16.9656 3.6 16.5 3.13458 16.5 2.5602C16.5 2.47578 16.5 2.38876 16.5 2.30016C16.5 1.58219 17.082 1 17.8 1L18.62 1C19.1723 1 19.62 1.44772 19.62 2V2.56" stroke="#2C291F"/>
</svg>
