<svg width="27" height="27" viewBox="0 0 27 27" fill="none" xmlns="http://www.w3.org/2000/svg">
<path d="M2 8C2 6.89543 2.89543 6 4 6H18.0991C18.9402 6 19.6913 6.52614 19.9787 7.31651L21.3796 11.1689C21.4592 11.3879 21.5 11.6192 21.5 11.8523V16C21.5 17.1046 20.6046 18 19.5 18H4C2.89543 18 2 17.1046 2 16V8Z" fill="#A19991"/>
<rect x="13" y="11" width="12" height="7" rx="2" fill="#A19991"/>
<circle cx="6.5" cy="17.5" r="2.5" fill="#2C291F"/>
<circle cx="19.5" cy="17.5" r="2.5" fill="#2C291F"/>
<rect x="4" y="8" width="5" height="4" rx="1" fill="#2C291F"/>
<rect x="10" y="8" width="5" height="4" rx="1" fill="#2C291F"/>
<path d="M16 9C16 8.44772 16.4477 8 17 8H17.807C18.2238 8 18.597 8.25857 18.7433 8.64888L19.4933 10.6489C19.7385 11.3026 19.2552 12 18.557 12H17C16.4477 12 16 11.5523 16 11V9Z" fill="#F1AF7E"/>
</svg>
