<svg width="20" height="20" viewBox="0 0 20 20" fill="none" xmlns="http://www.w3.org/2000/svg">
<path d="M9.6666 18.0999H2.7999C2.30285 18.0999 1.8999 17.697 1.8999 17.1999V2.7999C1.8999 2.30285 2.30285 1.8999 2.7999 1.8999H10.7713C11.2684 1.8999 11.6713 2.30285 11.6713 2.7999V6.78565" stroke="#2C291F" stroke-width="1.953"/>
<path d="M2.1665 7.39942L11.667 7.39942" stroke="#2C291F" stroke-width="1.95"/>
<path fill-rule="evenodd" clip-rule="evenodd" d="M8.90708 6.78613C8.41002 6.78613 8.00708 7.18908 8.00708 7.68613V18.1004C8.00708 18.5975 8.41002 19.0004 8.90708 19.0004H18.0999C18.597 19.0004 18.9999 18.5975 18.9999 18.1004V7.68613C18.9999 7.18908 18.597 6.78613 18.0999 6.78613H8.90708ZM13.5999 16.7994C15.0911 16.7994 16.2999 15.5906 16.2999 14.0994C16.2999 12.6082 15.0911 11.3994 13.5999 11.3994C12.1088 11.3994 10.8999 12.6082 10.8999 14.0994C10.8999 15.5906 12.1088 16.7994 13.5999 16.7994Z" fill="#80B8B7"/>
<circle cx="13.5999" cy="14.0994" r="2.7" fill="#2C291F"/>
</svg>
