<svg width="27" height="27" viewBox="0 0 27 27" fill="none" xmlns="http://www.w3.org/2000/svg">
<path d="M4.5 9H22.5V23C22.5 24.1046 21.6046 25 20.5 25H6.5C5.39543 25 4.5 24.1046 4.5 23V9Z" fill="#A19991"/>
<path d="M4.5 2C4.5 0.895431 5.39543 0 6.5 0H20.5C21.6046 0 22.5 0.895431 22.5 2V8H4.5V2Z" fill="#A19991"/>
<path d="M7 25H10V26C10 26.5523 9.55228 27 9 27H8C7.44772 27 7 26.5523 7 26V25Z" fill="#2C291F"/>
<path d="M17 25H20V26C20 26.5523 19.5523 27 19 27H18C17.4477 27 17 26.5523 17 26V25Z" fill="#2C291F"/>
<path d="M13.6465 11.9038V16.5H9.05029" stroke="#F1AF7E"/>
<path d="M13.6465 21.0962L13.6465 16.5L18.2427 16.5" stroke="#F1AF7E"/>
<path d="M16.8965 13.25L13.6465 16.5L10.3965 13.25" stroke="#F1AF7E"/>
<path d="M10.3965 19.75L13.6465 16.5L16.8965 19.75" stroke="#F1AF7E"/>
<rect x="20" y="10" width="1" height="6" fill="#2C291F"/>
<rect x="20" y="3" width="1" height="4" fill="#2C291F"/>
</svg>
