<svg width="181" height="52" viewBox="0 0 181 52" fill="none" xmlns="http://www.w3.org/2000/svg">
<path d="M8.87796 14.6707V39.1257H18.8819V14.6707H24.7046H26.9675L29.8137 6.44946H27.5536H18.8819H8.87796H2.47459H0.208984V14.6707H2.47459H8.87796Z" fill="#DDDADA"/>
<path d="M87.6413 29.564C87.6413 25.277 84.7517 21.492 80.6166 20.3551L68.225 16.9581C67.894 16.8061 67.6823 16.4778 67.6823 16.0898C67.6823 15.5716 68.1002 15.1537 68.6184 15.1537H82.562L85.5412 6.44946H68.6157C63.2976 6.44946 58.9727 10.7745 58.9727 16.1088C58.9727 20.1977 61.5666 23.8525 65.4276 25.2038L78.3103 28.7473C78.6766 28.845 78.9289 29.1842 78.9289 29.5776C78.9289 30.047 78.5491 30.4241 78.0824 30.4241H60.5979L63.5798 39.1257H78.0797C83.3489 39.1257 87.6359 34.8414 87.6359 29.564H87.6413Z" fill="#DDDADA"/>
<path d="M41.6566 15.3816L49.8671 39.1257H59.4016L48.1034 6.44946H44.7444H38.5635H35.2098L23.9062 39.1257H33.4462L34.9711 34.7166H42.9102L45.5448 27.0976H37.603L41.6566 15.3816Z" fill="#DDDADA"/>
<path d="M96.1122 30.3291C94.8723 30.3291 93.7978 30.7714 92.9241 31.6478C92.0504 32.5269 91.6055 33.5959 91.6055 34.8359C91.6055 36.0759 92.0504 37.1503 92.9241 38.024C93.7978 38.8977 94.8723 39.3427 96.1122 39.3427C97.3522 39.3427 98.4267 38.8977 99.3004 38.024C100.174 37.1449 100.619 36.0759 100.619 34.8359C100.619 33.5959 100.174 32.5214 99.3004 31.6478C98.4213 30.7687 97.3522 30.3291 96.1122 30.3291Z" fill="#DDDADA"/>
<path d="M168.189 32.687C165.275 32.687 162.904 30.3155 162.904 27.3988C162.904 24.482 165.275 22.116 168.189 22.116C171.103 22.116 173.472 24.4874 173.472 27.3988C173.472 30.3101 171.101 32.687 168.189 32.687ZM167.647 14.5486C160.719 14.5486 155.084 20.1841 155.084 27.1111C155.084 34.0382 160.719 39.6737 167.647 39.6737C174.574 39.6737 180.209 34.0382 180.209 27.1111C180.209 20.1841 174.574 14.5486 167.647 14.5486Z" fill="#DDDADA"/>
<path d="M155.14 15.094H150.321C147.603 15.094 145.4 17.2972 145.4 20.0159V15.094H136.891V39.1691H145.4V22.4959H152.622L155.14 15.0913V15.094Z" fill="#DDDADA"/>
<path d="M121.27 32.2771C118.422 32.2771 116.104 29.96 116.104 27.111C116.104 24.262 118.422 21.9449 121.27 21.9449C124.119 21.9449 126.437 24.262 126.437 27.111C126.437 29.96 124.119 32.2771 121.27 32.2771ZM121.284 14.5485C120.334 14.5485 119.412 14.6543 118.519 14.8551C116.604 15.5551 115.038 16.9063 114.132 18.613V15.2024H105.658V50.3775L114.132 47.4797V35.5901C115.087 37.3944 116.772 38.7999 118.831 39.4646C119.624 39.622 120.44 39.7061 121.279 39.7061C128.227 39.7061 133.863 34.0706 133.863 27.1219C133.863 20.1731 128.227 14.5376 121.279 14.5376L121.284 14.5457V14.5485Z" fill="#DDDADA"/>
</svg>
