<svg width="181" height="52" viewBox="0 0 181 52" fill="none" xmlns="http://www.w3.org/2000/svg">
<path d="M8.87796 14.1707V38.6257H18.8819V14.1707H24.7046H26.9675L29.8137 5.94946H27.5536H18.8819H8.87796H2.47459H0.208984V14.1707H2.47459H8.87796Z" fill="#20563C"/>
<path d="M87.6413 29.064C87.6413 24.777 84.7517 20.992 80.6166 19.8551L68.225 16.4581C67.894 16.3061 67.6823 15.9778 67.6823 15.5898C67.6823 15.0716 68.1002 14.6537 68.6184 14.6537H82.562L85.5412 5.94946H68.6157C63.2976 5.94946 58.9727 10.2745 58.9727 15.6088C58.9727 19.6977 61.5666 23.3525 65.4276 24.7038L78.3103 28.2473C78.6766 28.345 78.9289 28.6842 78.9289 29.0776C78.9289 29.547 78.5491 29.9241 78.0824 29.9241H60.5979L63.5798 38.6257H78.0797C83.3489 38.6257 87.6359 34.3414 87.6359 29.064H87.6413Z" fill="#20563C"/>
<path d="M41.6566 14.8816L49.8671 38.6257H59.4016L48.1034 5.94946H44.7444H38.5635H35.2098L23.9062 38.6257H33.4462L34.9711 34.2166H42.9102L45.5448 26.5976H37.603L41.6566 14.8816Z" fill="#20563C"/>
<path d="M96.1122 29.8291C94.8723 29.8291 93.7978 30.2714 92.9241 31.1478C92.0504 32.0269 91.6055 33.0959 91.6055 34.3359C91.6055 35.5759 92.0504 36.6503 92.9241 37.524C93.7978 38.3977 94.8723 38.8427 96.1122 38.8427C97.3522 38.8427 98.4267 38.3977 99.3004 37.524C100.174 36.6449 100.619 35.5759 100.619 34.3359C100.619 33.0959 100.174 32.0214 99.3004 31.1478C98.4213 30.2687 97.3522 29.8291 96.1122 29.8291Z" fill="#20563C"/>
<path d="M168.189 32.187C165.275 32.187 162.904 29.8155 162.904 26.8988C162.904 23.982 165.275 21.616 168.189 21.616C171.103 21.616 173.472 23.9874 173.472 26.8988C173.472 29.8101 171.101 32.187 168.189 32.187ZM167.647 14.0486C160.719 14.0486 155.084 19.6841 155.084 26.6111C155.084 33.5382 160.719 39.1737 167.647 39.1737C174.574 39.1737 180.209 33.5382 180.209 26.6111C180.209 19.6841 174.574 14.0486 167.647 14.0486Z" fill="#20563C"/>
<path d="M155.14 14.594H150.321C147.603 14.594 145.4 16.7972 145.4 19.5159V14.594H136.891V38.6691H145.4V21.9959H152.622L155.14 14.5913V14.594Z" fill="#20563C"/>
<path d="M121.27 31.7771C118.422 31.7771 116.104 29.46 116.104 26.611C116.104 23.762 118.422 21.4449 121.27 21.4449C124.119 21.4449 126.437 23.762 126.437 26.611C126.437 29.46 124.119 31.7771 121.27 31.7771ZM121.284 14.0485C120.334 14.0485 119.412 14.1543 118.519 14.3551C116.604 15.0551 115.038 16.4063 114.132 18.113V14.7024H105.658V49.8775L114.132 46.9797V35.0901C115.087 36.8944 116.772 38.2999 118.831 38.9646C119.624 39.122 120.44 39.2061 121.279 39.2061C128.227 39.2061 133.863 33.5706 133.863 26.6219C133.863 19.6731 128.227 14.0376 121.279 14.0376L121.284 14.0457V14.0485Z" fill="#20563C"/>
</svg>
