<svg width="37" height="36" viewBox="0 0 37 36" fill="none" xmlns="http://www.w3.org/2000/svg">
<circle cx="18.0234" cy="18" r="18" fill="#22CFD5"/>
<path d="M20.1673 7.40088L19.7918 21.2083H16.2677L15.8826 7.40088H20.1673ZM18.0297 27.3706C17.3943 27.3706 16.8486 27.1459 16.3929 26.6966C15.9371 26.2409 15.7125 25.6952 15.7189 25.0597C15.7125 24.4307 15.9371 23.8915 16.3929 23.4421C16.8486 22.9928 17.3943 22.7681 18.0297 22.7681C18.6396 22.7681 19.1756 22.9928 19.6377 23.4421C20.0999 23.8915 20.3342 24.4307 20.3406 25.0597C20.3342 25.4834 20.2219 25.8718 20.0036 26.2248C19.7918 26.5714 19.5126 26.8507 19.1659 27.0625C18.8193 27.2679 18.4406 27.3706 18.0297 27.3706Z" fill="white"/>
</svg>
