<svg width="26" height="27" viewBox="0 0 26 27" fill="none" xmlns="http://www.w3.org/2000/svg">
<path d="M20.5 8.60059C21.6046 8.60059 22.5 9.49602 22.5 10.6006L22.5 14.6006L3.5 14.6006L3.5 10.6006C3.5 9.49602 4.39543 8.60059 5.5 8.60059L20.5 8.60059Z" fill="#6C645C"/>
<path d="M22.5 15.6006L22.5 20.6006C22.5 21.7052 21.6046 22.6006 20.5 22.6006L5.5 22.6006C4.39543 22.6006 3.5 21.7052 3.5 20.6006L3.5 15.6006L22.5 15.6006Z" fill="#2C291F"/>
<path d="M16.1191 8.63441L16.1191 6.44434C16.1191 5.89205 15.6714 5.44434 15.1191 5.44434L10.8794 5.44434C10.3271 5.44434 9.87939 5.89205 9.87939 6.44434L9.87939 8.63441" stroke="#2C291F"/>
<path d="M14.5 15.6006L14.5 16.6006C14.5 17.1529 14.0523 17.6006 13.5 17.6006L12.5 17.6006C11.9477 17.6006 11.5 17.1529 11.5 16.6006L11.5 15.6006L14.5 15.6006Z" fill="#F1AF7E"/>
</svg>
