<svg width="32" height="31" viewBox="0 0 32 31" fill="none" xmlns="http://www.w3.org/2000/svg">
<path d="M14.7927 6.4062C15.5627 6.19404 16.3757 6.19404 17.1457 6.4062L17.185 6.41702C18.7221 6.84054 19.787 8.23858 19.787 9.83299V10.777C19.787 12.7399 18.7051 14.543 16.9731 15.4666L16.8029 15.5574C16.2818 15.8353 15.6566 15.8353 15.1355 15.5574L14.9653 15.4666C13.2333 14.543 12.1514 12.7399 12.1514 10.777V9.83299C12.1514 8.23858 13.2163 6.84054 14.7534 6.41701L14.7927 6.4062Z" fill="#A19991"/>
<path d="M12.4609 19.4577C11.5035 19.8616 10.5972 20.428 9.78349 21.1576C9.19506 21.6852 8.43945 23.3308 8.43945 23.3308H23.9395C23.9395 23.3308 23.2696 21.7819 22.8003 21.3371C21.8768 20.462 20.8218 19.8044 19.7007 19.3653C18.9321 19.0643 18.3544 18.3645 18.3544 17.539V17.457C18.3544 17.457 17.2704 18.5068 15.9689 18.4588C14.7467 18.4137 13.7544 17.573 13.7544 17.573V17.6508C13.7544 18.4563 13.2031 19.1447 12.4609 19.4577Z" fill="#2C291F"/>
<path d="M9.78349 21.1576L9.33998 20.6629L9.33998 20.6629L9.78349 21.1576ZM12.4609 19.4577L12.2027 18.8456L12.4609 19.4577ZM19.7007 19.3653L19.943 18.7467L19.7007 19.3653ZM22.8003 21.3371L22.3433 21.8193L22.3433 21.8193L22.8003 21.3371ZM13.7544 17.573L14.1839 17.0661C13.9864 16.8988 13.7098 16.8614 13.4751 16.9702C13.2403 17.079 13.09 17.3142 13.09 17.573H13.7544ZM18.3544 17.457H19.0188C19.0188 17.1903 18.8592 16.9494 18.6136 16.8453C18.3679 16.7412 18.0839 16.7942 17.8922 16.9798L18.3544 17.457ZM8.43945 23.3308L7.8357 23.0536C7.74125 23.2593 7.75802 23.4989 7.88019 23.6894C8.00236 23.8799 8.21312 23.9952 8.43945 23.9952V23.3308ZM23.9395 23.3308V23.9952C24.1632 23.9952 24.3718 23.8826 24.4947 23.6956C24.6175 23.5087 24.638 23.2724 24.5492 23.0671L23.9395 23.3308ZM15.9689 18.4588L15.9444 19.1227L15.9689 18.4588ZM10.227 21.6522C10.9851 20.9725 11.8286 20.4455 12.7191 20.0699L12.2027 18.8456C11.1784 19.2776 10.2093 19.8835 9.33998 20.6629L10.227 21.6522ZM19.4584 19.9839C20.5013 20.3924 21.483 21.0041 22.3433 21.8193L23.2572 20.8549C22.2706 19.9199 21.1424 19.2165 19.943 18.7467L19.4584 19.9839ZM14.4188 17.6508V17.573H13.09V17.6508H14.4188ZM19.0188 17.539V17.457H17.69V17.539H19.0188ZM8.43945 23.3308C9.04321 23.608 9.04319 23.6081 9.04317 23.6081C9.04317 23.6081 9.04316 23.6081 9.04315 23.6082C9.04314 23.6082 9.04315 23.6082 9.04316 23.6081C9.04319 23.6081 9.04326 23.6079 9.04338 23.6077C9.04362 23.6071 9.04403 23.6062 9.04462 23.605C9.0458 23.6024 9.04769 23.5983 9.05025 23.5929C9.05536 23.5819 9.06317 23.5652 9.07344 23.5435C9.09399 23.5002 9.12435 23.4369 9.16272 23.3589C9.23968 23.2027 9.34784 22.9897 9.47298 22.7621C9.74175 22.2733 10.0292 21.8296 10.227 21.6522L9.33998 20.6629C8.94936 21.0132 8.56479 21.6561 8.30864 22.122C8.17133 22.3717 8.0538 22.6032 7.9707 22.7719C7.92904 22.8565 7.89577 22.9259 7.8727 22.9746C7.86116 22.9989 7.85216 23.0181 7.84592 23.0315C7.8428 23.0382 7.84037 23.0435 7.83866 23.0472C7.8378 23.049 7.83712 23.0505 7.83663 23.0515C7.83638 23.0521 7.83618 23.0525 7.83602 23.0529C7.83595 23.053 7.83588 23.0532 7.83582 23.0533C7.8358 23.0534 7.83576 23.0534 7.83575 23.0535C7.83572 23.0535 7.8357 23.0536 8.43945 23.3308ZM22.3433 21.8193C22.3957 21.869 22.4889 21.9884 22.6116 22.1863C22.7271 22.3727 22.8456 22.5903 22.9542 22.8029C23.0621 23.0142 23.1565 23.2133 23.2241 23.3599C23.2578 23.433 23.2846 23.4926 23.3028 23.5335C23.3119 23.5539 23.3188 23.5696 23.3233 23.58C23.3256 23.5852 23.3273 23.5891 23.3284 23.5915C23.3289 23.5927 23.3293 23.5936 23.3295 23.5941C23.3296 23.5944 23.3297 23.5945 23.3297 23.5946C23.3297 23.5946 23.3297 23.5946 23.3297 23.5946C23.3297 23.5946 23.3297 23.5946 23.3297 23.5946C23.3297 23.5945 23.3297 23.5945 23.9395 23.3308C24.5492 23.0671 24.5492 23.067 24.5492 23.067C24.5492 23.067 24.5492 23.0669 24.5491 23.0668C24.5491 23.0667 24.549 23.0666 24.549 23.0664C24.5488 23.0661 24.5486 23.0657 24.5484 23.0652C24.548 23.0642 24.5474 23.0629 24.5467 23.0612C24.5452 23.0577 24.543 23.0528 24.5403 23.0466C24.5348 23.0341 24.5269 23.0161 24.5167 22.9933C24.4965 22.9477 24.4673 22.8828 24.4308 22.8037C24.3581 22.6461 24.2558 22.4301 24.1375 22.1986C24.02 21.9684 23.883 21.7154 23.7409 21.4862C23.606 21.2686 23.4395 21.0276 23.2572 20.8549L22.3433 21.8193ZM8.43945 23.9952H23.9395V22.6664H8.43945V23.9952ZM18.3544 17.457C17.8922 16.9798 17.8924 16.9796 17.8925 16.9795C17.8925 16.9795 17.8927 16.9793 17.8928 16.9793C17.8929 16.9791 17.8931 16.979 17.8932 16.9788C17.8935 16.9786 17.8936 16.9784 17.8938 16.9783C17.8941 16.978 17.8941 16.978 17.8938 16.9782C17.8934 16.9786 17.8919 16.98 17.8895 16.9822C17.8847 16.9867 17.8761 16.9946 17.8639 17.0055C17.8394 17.0273 17.8006 17.0607 17.7494 17.1017C17.6463 17.1843 17.496 17.295 17.3116 17.404C16.9321 17.6284 16.4651 17.8123 15.9934 17.7949L15.9444 19.1227C16.7742 19.1533 17.5 18.8363 17.9878 18.5478C18.2371 18.4004 18.4391 18.2517 18.5799 18.1389C18.6507 18.0823 18.7068 18.034 18.7467 17.9986C18.7666 17.9808 18.7826 17.9663 18.7943 17.9554C18.8001 17.9499 18.8049 17.9454 18.8086 17.9419C18.8105 17.9401 18.8121 17.9386 18.8134 17.9373C18.8141 17.9367 18.8147 17.9361 18.8152 17.9356C18.8155 17.9354 18.8157 17.9351 18.8159 17.9349C18.816 17.9348 18.8162 17.9346 18.8163 17.9346C18.8164 17.9344 18.8166 17.9343 18.3544 17.457ZM15.9934 17.7949C15.5213 17.7774 15.0697 17.6032 14.7183 17.414C14.5461 17.3213 14.4072 17.23 14.3129 17.1631C14.2659 17.1299 14.2307 17.1031 14.2086 17.0858C14.1975 17.0772 14.1898 17.0709 14.1856 17.0675C14.1836 17.0658 14.1823 17.0648 14.182 17.0646C14.1819 17.0644 14.182 17.0645 14.1823 17.0647C14.1824 17.0649 14.1826 17.065 14.1829 17.0653C14.183 17.0654 14.1832 17.0655 14.1833 17.0656C14.1834 17.0657 14.1835 17.0658 14.1836 17.0659C14.1837 17.066 14.1839 17.0661 13.7544 17.573C13.325 18.0799 13.3251 18.08 13.3253 18.0801C13.3253 18.0802 13.3255 18.0803 13.3256 18.0804C13.3258 18.0806 13.326 18.0808 13.3263 18.081C13.3268 18.0815 13.3274 18.0819 13.328 18.0825C13.3293 18.0835 13.3308 18.0848 13.3325 18.0863C13.3361 18.0892 13.3406 18.0929 13.346 18.0974C13.357 18.1063 13.3718 18.1182 13.3903 18.1326C13.4272 18.1615 13.479 18.2007 13.5442 18.247C13.6742 18.3391 13.8597 18.4608 14.0884 18.5839C14.5386 18.8263 15.1943 19.095 15.9444 19.1227L15.9934 17.7949ZM19.943 18.7467C19.3749 18.5242 19.0188 18.0373 19.0188 17.539H17.69C17.69 18.6917 18.4893 19.6044 19.4584 19.9839L19.943 18.7467ZM12.7191 20.0699C13.6558 19.6747 14.4188 18.7754 14.4188 17.6508H13.09C13.09 18.1372 12.7504 18.6146 12.2027 18.8456L12.7191 20.0699Z" fill="#2C291F"/>
<path d="M16 24L16 22.6571C16 22.2942 16.2942 22 16.6571 22L19.3429 22C19.7058 22 20 22.2942 20 22.6571L20 24L16 24Z" fill="#F1AF7E"/>
</svg>
