<svg width="26" height="27" viewBox="0 0 26 27" fill="none" xmlns="http://www.w3.org/2000/svg">
<path d="M2.5 4.36719L2.5 17.3672C2.5 18.4718 3.39543 19.3672 4.5 19.3672L15.5 19.3672C16.6046 19.3672 17.5 18.4718 17.5 17.3672L17.5 9.36719L17.5 4.36719C17.5 3.26262 16.6046 2.36719 15.5 2.36719L4.5 2.36719C3.39543 2.36719 2.5 3.26262 2.5 4.36719Z" fill="#F1AF7E"/>
<path d="M2.5 4.26902L2.5 18.2308C2.5 18.9106 2.84534 19.5439 3.41684 19.9121L9.91684 24.0996C11.2478 24.9571 13 24.0015 13 22.4183L13 8.45657C13 7.77674 12.6547 7.14346 12.0832 6.77527L5.58316 2.58772C4.25223 1.73028 2.5 2.6858 2.5 4.26902Z" fill="#A19991" stroke="#A19991" stroke-width="1.04"/>
<path d="M15 10.7222C14.7128 10.7222 14.48 10.955 14.48 11.2422C14.48 11.5294 14.7128 11.7622 15 11.7622L15 10.7222ZM15 11.7622L22.5 11.7622L22.5 10.7222L15 10.7222L15 11.7622Z" fill="#2C291F"/>
<path d="M23.592 10.7861L20.5155 8.54783C20.185 8.30739 19.7214 8.54346 19.7214 8.95214L19.7214 13.4304C19.7214 13.8392 20.1852 14.0752 20.5157 13.8346L23.5921 11.5946C23.8664 11.3948 23.8663 10.9857 23.592 10.7861Z" fill="#2C291F"/>
</svg>
