<svg width="26" height="27" viewBox="0 0 26 27" fill="none" xmlns="http://www.w3.org/2000/svg">
<rect x="25.5" y="7.28906" width="12.4999" height="24.9997" rx="2" transform="rotate(90 25.5 7.28906)" fill="#6C645C"/>
<path d="M12.8614 16.3158L12.9366 14.2424L11.1892 15.3545L10.7383 14.5628L12.5796 13.6015L10.7383 12.6402L11.1892 11.8485L12.9366 12.9606L12.8614 10.8872H13.7633L13.6882 12.9606L15.4355 11.8485L15.8865 12.6402L14.0451 13.6015L15.8865 14.5628L15.4355 15.3545L13.6882 14.2424L13.7633 16.3158H12.8614Z" fill="#2C291F"/>
<path d="M19.4752 16.3158L19.5503 14.2424L17.8029 15.3545L17.352 14.5628L19.1933 13.6015L17.352 12.6402L17.8029 11.8485L19.5503 12.9606L19.4752 10.8872H20.377L20.3019 12.9606L22.0492 11.8485L22.5002 12.6402L20.6589 13.6015L22.5002 14.5628L22.0492 15.3545L20.3019 14.2424L20.377 16.3158H19.4752Z" fill="#2C291F"/>
<path d="M5.73879 16.3158L5.81804 14.2424L3.9755 15.3545L3.5 14.5628L5.44161 13.6015L3.5 12.6402L3.9755 11.8485L5.81804 12.9606L5.73879 10.8872H6.68978L6.61053 12.9606L8.45308 11.8485L8.92857 12.6402L6.98697 13.6015L8.92857 14.5628L8.45308 15.3545L6.61053 14.2424L6.68978 16.3158H5.73879Z" fill="#F1AF7E"/>
</svg>
