<svg width="26" height="27" viewBox="0 0 26 27" fill="none" xmlns="http://www.w3.org/2000/svg">
<path d="M8.5 6.60156V9.10156L18.5 10.6016V6.60156C18.5 6.04928 18.0523 5.60156 17.5 5.60156H9.5C8.94772 5.60156 8.5 6.04928 8.5 6.60156Z" fill="#F1AF7E"/>
<path d="M6.08941 16.8769L4.2168 7.98193L20.9653 8.4149C21.6218 8.43187 22.0984 9.04553 21.9524 9.68579L20.5056 16.03C20.4037 16.4769 20.0212 16.8044 19.564 16.8363L7.17947 17.7001C6.66158 17.7362 6.19636 17.3849 6.08941 16.8769Z" fill="#6C645C"/>
<path d="M5.24812 4.37793H1.64453V5.33398L3.70373 5.81201L6.22056 15.6813L6.79252 9.63623L5.24812 4.37793Z" fill="#6C645C"/>
<circle cx="7.82287" cy="20.8522" r="2.05919" fill="#2C291F"/>
<circle cx="17.0885" cy="20.8522" r="2.05919" fill="#2C291F"/>
</svg>
