<svg width="32" height="31" viewBox="0 0 32 31" fill="none" xmlns="http://www.w3.org/2000/svg">
<path d="M14.7898 6.40424C15.5598 6.19209 16.3728 6.19209 17.1428 6.40424L17.182 6.41506C18.7192 6.83859 19.7841 8.23662 19.7841 9.83103V10.775C19.7841 12.7379 18.7022 14.541 16.9702 15.4647L16.7999 15.5555C16.2789 15.8334 15.6537 15.8334 15.1326 15.5555L14.9623 15.4647C13.2303 14.541 12.1484 12.7379 12.1484 10.775V9.83103C12.1484 8.23663 13.2134 6.83859 14.7505 6.41506L14.7898 6.40424Z" fill="#6C645C"/>
<path d="M12.4589 19.4543C11.5015 19.8581 10.5952 20.4246 9.78154 21.1542C9.19311 21.6818 8.4375 23.3274 8.4375 23.3274H23.9375C23.9375 23.3274 23.2677 21.7784 22.7983 21.3337C21.8749 20.4586 20.8199 19.801 19.6988 19.3619C18.9302 19.0609 18.3524 18.361 18.3524 17.5356V17.4536C18.3524 17.4536 17.2684 18.5034 15.9669 18.4553C14.7447 18.4103 13.7525 17.5696 13.7525 17.5696V17.6473C13.7525 18.4529 13.2012 19.1412 12.4589 19.4543Z" fill="#2C291F"/>
<path d="M9.78154 21.1542L9.33802 20.6595L9.33802 20.6595L9.78154 21.1542ZM12.4589 19.4543L12.2007 18.8422L12.2007 18.8422L12.4589 19.4543ZM19.6988 19.3619L19.941 18.7433L19.941 18.7433L19.6988 19.3619ZM22.7983 21.3337L22.3413 21.8159L22.3413 21.8159L22.7983 21.3337ZM13.7525 17.5696L14.1819 17.0627C13.9845 16.8954 13.7079 16.858 13.4731 16.9668C13.2383 17.0756 13.0881 17.3108 13.0881 17.5696H13.7525ZM18.3524 17.4536H19.0168C19.0168 17.1868 18.8572 16.9459 18.6116 16.8419C18.366 16.7378 18.0819 16.7908 17.8903 16.9764L18.3524 17.4536ZM8.4375 23.3274L7.83374 23.0502C7.7393 23.2558 7.75607 23.4955 7.87824 23.686C8.0004 23.8765 8.21117 23.9917 8.4375 23.9917V23.3274ZM23.9375 23.3274V23.9917C24.1612 23.9917 24.3699 23.8792 24.4927 23.6922C24.6156 23.5052 24.6361 23.269 24.5473 23.0637L23.9375 23.3274ZM15.9669 18.4553L15.9424 19.1193L15.9669 18.4553ZM10.2251 21.6488C10.9831 20.9691 11.8266 20.4421 12.7171 20.0664L12.2007 18.8422C11.1764 19.2742 10.2073 19.8801 9.33802 20.6595L10.2251 21.6488ZM19.4565 19.9805C20.4993 20.3889 21.4811 21.0007 22.3413 21.8159L23.2553 20.8514C22.2686 19.9164 21.1404 19.213 19.941 18.7433L19.4565 19.9805ZM14.4168 17.6473V17.5696H13.0881V17.6473H14.4168ZM19.0168 17.5356V17.4536H17.6881V17.5356H19.0168ZM8.4375 23.3274C9.04126 23.6046 9.04124 23.6046 9.04122 23.6047C9.04122 23.6047 9.0412 23.6047 9.0412 23.6047C9.04119 23.6048 9.04119 23.6047 9.04121 23.6047C9.04123 23.6047 9.04131 23.6045 9.04143 23.6042C9.04166 23.6037 9.04208 23.6028 9.04267 23.6015C9.04385 23.599 9.04574 23.5949 9.04829 23.5894C9.05341 23.5785 9.06122 23.5618 9.07149 23.5401C9.09204 23.4968 9.1224 23.4334 9.16077 23.3555C9.23773 23.1992 9.34588 22.9863 9.47103 22.7587C9.7398 22.2699 10.0272 21.8262 10.2251 21.6488L9.33802 20.6595C8.9474 21.0098 8.56283 21.6527 8.30669 22.1185C8.16938 22.3683 8.05185 22.5997 7.96875 22.7685C7.92709 22.8531 7.89381 22.9225 7.87075 22.9712C7.85921 22.9955 7.85021 23.0147 7.84397 23.0281C7.84085 23.0348 7.83841 23.04 7.8367 23.0437C7.83585 23.0456 7.83517 23.0471 7.83467 23.0481C7.83443 23.0487 7.83423 23.0491 7.83407 23.0494C7.83399 23.0496 7.83393 23.0498 7.83387 23.0499C7.83384 23.0499 7.83381 23.05 7.8338 23.05C7.83377 23.0501 7.83374 23.0502 8.4375 23.3274ZM22.3413 21.8159C22.3938 21.8656 22.487 21.985 22.6097 22.1829C22.7252 22.3692 22.8437 22.5869 22.9522 22.7995C23.0601 23.0108 23.1546 23.2099 23.2221 23.3565C23.2558 23.4296 23.2826 23.4892 23.3008 23.53C23.3099 23.5505 23.3168 23.5662 23.3214 23.5766C23.3237 23.5818 23.3254 23.5857 23.3264 23.5881C23.327 23.5893 23.3273 23.5902 23.3275 23.5907C23.3277 23.5909 23.3277 23.5911 23.3278 23.5912C23.3278 23.5912 23.3278 23.5912 23.3278 23.5912C23.3278 23.5912 23.3277 23.5912 23.3277 23.5912C23.3277 23.5911 23.3277 23.5911 23.9375 23.3274C24.5473 23.0637 24.5473 23.0636 24.5472 23.0636C24.5472 23.0635 24.5472 23.0635 24.5472 23.0634C24.5471 23.0633 24.5471 23.0632 24.547 23.063C24.5469 23.0627 24.5467 23.0623 24.5465 23.0618C24.5461 23.0608 24.5455 23.0595 24.5447 23.0577C24.5432 23.0543 24.5411 23.0494 24.5383 23.0431C24.5328 23.0306 24.5249 23.0127 24.5148 22.9899C24.4945 22.9443 24.4653 22.8794 24.4289 22.8003C24.3562 22.6426 24.2538 22.4267 24.1356 22.1952C24.018 21.9649 23.881 21.7119 23.739 21.4828C23.604 21.2651 23.4375 21.0241 23.2553 20.8514L22.3413 21.8159ZM8.4375 23.9917H23.9375V22.663H8.4375V23.9917ZM18.3524 17.4536C17.8903 16.9764 17.8904 16.9762 17.8905 16.9761C17.8906 16.976 17.8907 16.9759 17.8908 16.9758C17.891 16.9757 17.8911 16.9755 17.8912 16.9754C17.8915 16.9752 17.8917 16.975 17.8918 16.9749C17.8921 16.9746 17.8921 16.9746 17.8919 16.9748C17.8914 16.9752 17.89 16.9766 17.8876 16.9788C17.8828 16.9833 17.8741 16.9912 17.8619 17.0021C17.8374 17.0239 17.7987 17.0573 17.7475 17.0983C17.6444 17.1809 17.494 17.2916 17.3096 17.4006C16.9301 17.625 16.4631 17.8088 15.9914 17.7914L15.9424 19.1193C16.7722 19.1499 17.498 18.8328 17.9859 18.5444C18.2352 18.397 18.4372 18.2483 18.578 18.1355C18.6487 18.0788 18.7049 18.0306 18.7447 17.9952C18.7647 17.9774 18.7806 17.9628 18.7923 17.952C18.7982 17.9465 18.803 17.942 18.8067 17.9385C18.8086 17.9367 18.8101 17.9352 18.8115 17.9339C18.8121 17.9333 18.8127 17.9327 18.8132 17.9322C18.8135 17.9319 18.8138 17.9317 18.814 17.9315C18.8141 17.9314 18.8143 17.9312 18.8143 17.9312C18.8145 17.931 18.8146 17.9309 18.3524 17.4536ZM15.9914 17.7914C15.5193 17.774 15.0678 17.5998 14.7163 17.4106C14.5442 17.3179 14.4052 17.2266 14.3109 17.1597C14.264 17.1264 14.2287 17.0996 14.2066 17.0824C14.1956 17.0737 14.1879 17.0675 14.1837 17.0641C14.1816 17.0624 14.1804 17.0614 14.1801 17.0611C14.1799 17.061 14.18 17.0611 14.1803 17.0613C14.1805 17.0615 14.1807 17.0616 14.1809 17.0619C14.1811 17.062 14.1812 17.0621 14.1814 17.0622C14.1815 17.0623 14.1816 17.0624 14.1816 17.0624C14.1818 17.0626 14.1819 17.0627 13.7525 17.5696C13.323 18.0765 13.3231 18.0766 13.3233 18.0767C13.3234 18.0768 13.3235 18.0769 13.3236 18.077C13.3238 18.0772 13.3241 18.0774 13.3243 18.0776C13.3248 18.078 13.3254 18.0785 13.326 18.079C13.3273 18.0801 13.3288 18.0814 13.3306 18.0828C13.3341 18.0858 13.3386 18.0895 13.3441 18.0939C13.355 18.1029 13.3698 18.1148 13.3883 18.1292C13.4253 18.1581 13.4771 18.1973 13.5423 18.2435C13.6722 18.3357 13.8577 18.4574 14.0864 18.5805C14.5366 18.8229 15.1924 19.0916 15.9424 19.1193L15.9914 17.7914ZM19.941 18.7433C19.373 18.5208 19.0168 18.0338 19.0168 17.5356H17.6881C17.6881 18.6882 18.4874 19.6009 19.4565 19.9805L19.941 18.7433ZM12.7171 20.0664C13.6539 19.6713 14.4168 18.772 14.4168 17.6473H13.0881C13.0881 18.1338 12.7485 18.6111 12.2007 18.8422L12.7171 20.0664Z" fill="#2C291F"/>
<path d="M16 24L16 22.6571C16 22.2942 16.2942 22 16.6571 22L19.3429 22C19.7058 22 20 22.2942 20 22.6571L20 24L16 24Z" fill="#F1AF7E"/>
</svg>
