<svg width="26" height="27" viewBox="0 0 26 27" fill="none" xmlns="http://www.w3.org/2000/svg">
<path d="M20.5 8.60156C21.6046 8.60156 22.5 9.49699 22.5 10.6016L22.5 14.6016L3.5 14.6016L3.5 10.6016C3.5 9.49699 4.39543 8.60156 5.5 8.60156L20.5 8.60156Z" fill="#A19991"/>
<path d="M22.5 15.6016L22.5 20.6016C22.5 21.7061 21.6046 22.6016 20.5 22.6016L5.5 22.6016C4.39543 22.6016 3.5 21.7061 3.5 20.6016L3.5 15.6016L22.5 15.6016Z" fill="#2C291F"/>
<path d="M16.1191 8.63539L16.1191 6.44531C16.1191 5.89303 15.6714 5.44531 15.1191 5.44531L10.8794 5.44531C10.3271 5.44531 9.87939 5.89303 9.87939 6.44531L9.87939 8.63539" stroke="#2C291F"/>
<path d="M14.5 15.6016L14.5 16.6016C14.5 17.1538 14.0523 17.6016 13.5 17.6016L12.5 17.6016C11.9477 17.6016 11.5 17.1538 11.5 16.6016L11.5 15.6016L14.5 15.6016Z" fill="#F1AF7E"/>
</svg>
