<svg width="26" height="27" viewBox="0 0 26 27" fill="none" xmlns="http://www.w3.org/2000/svg">
<path d="M8.5 6.60156V9.10156L18.5 10.6016V6.60156C18.5 6.04928 18.0523 5.60156 17.5 5.60156H9.5C8.94772 5.60156 8.5 6.04928 8.5 6.60156Z" fill="#F1AF7E"/>
<path d="M6.09039 16.8793L4.21777 7.98438L20.9663 8.41734C21.6228 8.43431 22.0994 9.04797 21.9534 9.68823L20.5066 16.0325C20.4047 16.4793 20.0222 16.8068 19.565 16.8387L7.18045 17.7025C6.66255 17.7387 6.19734 17.3873 6.09039 16.8793Z" fill="#A19991"/>
<path d="M5.24715 4.37891H1.64355V5.33496L3.70275 5.81299L6.21958 15.6823L6.79154 9.63721L5.24715 4.37891Z" fill="#A19991"/>
<circle cx="7.82091" cy="20.8522" r="2.05919" fill="#2C291F"/>
<circle cx="17.0875" cy="20.8522" r="2.05919" fill="#2C291F"/>
</svg>
