<svg width="26" height="27" viewBox="0 0 26 27" fill="none" xmlns="http://www.w3.org/2000/svg">
<path d="M6.5 5.60156C6.5 4.49699 7.39543 3.60156 8.5 3.60156H17.5C18.6046 3.60156 19.5 4.49699 19.5 5.60156V12.6016H6.5V5.60156Z" fill="#A19991"/>
<path d="M19.5 21.6016C19.5 22.7061 18.6046 23.6016 17.5 23.6016L8.5 23.6016C7.39543 23.6016 6.5 22.7061 6.5 21.6016L6.5 13.6016L19.5 13.6016L19.5 21.6016Z" fill="#A19991"/>
<path d="M10.4004 9.16156L10.4004 8.60156C10.4004 8.04928 10.8481 7.60156 11.4004 7.60156L14.6004 7.60156C15.1527 7.60156 15.6004 8.04928 15.6004 8.60156L15.6004 9.16156" stroke="#2C291F" stroke-width="1.04"/>
<path d="M10.4004 19.1616L10.4004 18.6016C10.4004 18.0493 10.8481 17.6016 11.4004 17.6016L14.6004 17.6016C15.1527 17.6016 15.6004 18.0493 15.6004 18.6016L15.6004 19.1616" stroke="#2C291F" stroke-width="1.04"/>
</svg>
