<svg width="230" height="31" viewBox="0 0 230 31" fill="none" xmlns="http://www.w3.org/2000/svg">
<path d="M133.957 18.0002H129.154V11.837L120.481 0.852074H126.386L131.549 7.66822L136.958 0.852074H142.648L133.951 11.843V18.0062L133.957 18.0002ZM98.1993 18.0002H93.5275V0.852074H100.619L106.225 11.5614L111.927 0.852074H118.923V18.0002H114.275V5.7815L107.783 18.0002H104.644L98.1993 5.7815V18.0002ZM81.153 13.8495H91.6228V18.0002H76.3553V0.852074H81.159V13.8495H81.153ZM230 18.0002H228.155V10.3336H211.624V18.0002H209.779V0.852074H211.624V8.53072H228.155V0.852074H230V18.0002ZM207.234 18.0002H192.685C191.972 18.0002 191.158 17.8026 190.577 17.3953C189.996 16.994 189.528 16.4549 189.181 15.7841C188.828 15.1073 188.654 14.3646 188.654 13.55V5.30233C188.654 4.48775 188.828 3.74504 189.181 3.06822C189.528 2.39739 189.996 1.85832 190.577 1.45702C191.158 1.05572 191.978 0.852074 192.685 0.852074H207.234V2.66692H192.685C192.044 2.66692 191.499 2.91848 191.056 3.42759C190.613 3.93072 190.391 4.55962 190.391 5.30233V13.55C190.391 14.2927 190.613 14.9156 191.056 15.4307C191.499 15.9398 192.038 16.1974 192.685 16.1974H207.234V18.0002ZM186.084 18.0002H167.403V0.852074H186.084V2.66692H169.2V8.53072H184.042V10.3336H169.2V16.1974H186.084V18.0002ZM156.059 18.0002H154.058V2.66692H145.062V0.852074H165.049V2.66692H156.053V18.0002H156.059ZM56.5238 18.0002H51.283L59.872 0.852074H65.9994L74.4267 18.0002H69.1559L67.6345 15.1432H62.8428L59.89 11.0164H65.9095L62.8608 4.94895C60.7165 9.29738 58.6202 13.6219 56.5179 18.0002H56.5238Z" fill="white"/>
<mask id="mask0_4704_46" style="mask-type:luminance" maskUnits="userSpaceOnUse" x="12" y="10" width="20" height="8">
<path d="M27.7618 17.2815L31.4574 10.2198H16.2858L12.5962 17.2635L27.7618 17.2815Z" fill="white"/>
</mask>
<g mask="url(#mask0_4704_46)">
<path d="M31.4574 10.2198H12.5962V17.2815H31.4574V10.2198Z" fill="url(#paint0_linear_4704_46)"/>
</g>
<path fill-rule="evenodd" clip-rule="evenodd" d="M3.69557 0.852074H36.3568L32.6612 7.91379H0L3.69557 0.852074Z" fill="#1CDCE3"/>
<path fill-rule="evenodd" clip-rule="evenodd" d="M16.2858 10.2198L24.4316 23.6424L20.736 30.7042L12.5962 17.2635L16.2858 10.2198Z" fill="#1CDCE3"/>
<defs>
<linearGradient id="paint0_linear_4704_46" x1="27.63" y1="10.4953" x2="13.4527" y2="18.725" gradientUnits="userSpaceOnUse">
<stop stop-color="#1CDCE3"/>
<stop offset="0.1" stop-color="#1BD6DD"/>
<stop offset="0.24" stop-color="#19C7CD"/>
<stop offset="0.39" stop-color="#16ADB3"/>
<stop offset="0.55" stop-color="#118A8F"/>
<stop offset="0.72" stop-color="#0B5D60"/>
<stop offset="0.89" stop-color="#042627"/>
<stop offset="1"/>
</linearGradient>
</defs>
</svg>
