<svg width="147" height="19" viewBox="0 0 147 19" fill="none" xmlns="http://www.w3.org/2000/svg">
<path d="M85.2594 10.9143H82.202V6.99157L76.682 0H80.4408L83.7269 4.33828L87.1693 0H90.7909L85.2556 6.99538V10.9181L85.2594 10.9143ZM62.5006 10.9143H59.5271V0H64.0407L67.6089 6.81621L71.2381 0H75.6908V10.9143H72.7325V3.13744L68.6001 10.9143H66.6025L62.5006 3.13744V10.9143ZM51.6511 8.27247H58.3148V10.9143H48.5975V0H51.6549V8.27247H51.6511ZM146.388 10.9143H145.214V6.03471H134.692V10.9143H133.518V0H134.692V4.88724H145.214V0H146.388V10.9143ZM131.898 10.9143H122.638C122.184 10.9143 121.666 10.7885 121.296 10.5293C120.926 10.2739 120.629 9.93078 120.408 9.50381C120.183 9.07303 120.072 8.60032 120.072 8.08186V2.83246C120.072 2.314 120.183 1.84129 120.408 1.41051C120.629 0.983547 120.926 0.640449 121.296 0.385032C121.666 0.129615 122.188 0 122.638 0H131.898V1.1551H122.638C122.23 1.1551 121.883 1.31521 121.601 1.63925C121.319 1.95947 121.178 2.35975 121.178 2.83246V8.08186C121.178 8.55457 121.319 8.95104 121.601 9.27889C121.883 9.60293 122.226 9.76685 122.638 9.76685H131.898V10.9143ZM118.437 10.9143H106.547V0H118.437V1.1551H107.69V4.88724H117.137V6.03471H107.69V9.76685H118.437V10.9143ZM99.3264 10.9143H98.0531V1.1551H92.3272V0H105.049V1.1551H99.3226V10.9143H99.3264ZM35.9753 10.9143H32.6396L38.1063 0H42.0062L47.37 10.9143H44.0152L43.0469 9.0959H39.9972L38.1178 6.4693H41.949L40.0086 2.60754C38.6439 5.3752 37.3096 8.12761 35.9715 10.9143H35.9753Z" fill="black"/>
<mask id="mask0_7578_3480" style="mask-type:luminance" maskUnits="userSpaceOnUse" x="8" y="5" width="13" height="6">
<path d="M17.6701 10.4569L20.0222 5.96228H10.3659L8.01758 10.4454L17.6701 10.4569Z" fill="white"/>
</mask>
<g mask="url(#mask0_7578_3480)">
<path d="M20.0222 5.96228H8.01758V10.4569H20.0222V5.96228Z" fill="url(#paint0_linear_7578_3480)"/>
</g>
<path fill-rule="evenodd" clip-rule="evenodd" d="M2.35213 0H23.14L20.7879 4.49458H0L2.35213 0Z" fill="#1CDCE3"/>
<path fill-rule="evenodd" clip-rule="evenodd" d="M10.3659 5.96228L15.5505 14.5054L13.1984 19L8.01758 10.4454L10.3659 5.96228Z" fill="#1CDCE3"/>
<defs>
<linearGradient id="paint0_linear_7578_3480" x1="17.5862" y1="6.13764" x2="8.56272" y2="11.3756" gradientUnits="userSpaceOnUse">
<stop stop-color="#1CDCE3"/>
<stop offset="0.1" stop-color="#1BD6DD"/>
<stop offset="0.24" stop-color="#19C7CD"/>
<stop offset="0.39" stop-color="#16ADB3"/>
<stop offset="0.55" stop-color="#118A8F"/>
<stop offset="0.72" stop-color="#0B5D60"/>
<stop offset="0.89" stop-color="#042627"/>
<stop offset="1"/>
</linearGradient>
</defs>
</svg>
