<svg width="431" height="161" viewBox="0 0 431 161" fill="none" xmlns="http://www.w3.org/2000/svg">
<path d="M42.9907 40.5073V40.0989H42.5822H11.1287H0.408467V0.408467H11.1287H42.5822H91.7217H134.317H144.846L131.147 40.0989H120.323H91.7217H91.3133V40.5073V160.592H42.9907V40.5073Z" stroke="#C2A894" stroke-opacity="0.67" stroke-width="0.816935"/>
<path d="M334.595 52.1624L334.565 52.1485C332.783 51.3313 331.651 49.5657 331.651 47.4992C331.651 44.7198 333.895 42.4785 336.676 42.4785H405.147L419.559 0.408467H336.662C310.662 0.408467 289.516 21.5353 289.516 47.5928C289.516 67.561 302.192 85.4106 321.062 92.0147L384.576 109.47C384.577 109.47 384.578 109.47 384.578 109.47C386.572 110.002 387.931 111.842 387.931 113.955C387.931 116.495 385.873 118.535 383.347 118.535H297.694L312.119 160.592H383.334C409.094 160.592 430.052 139.665 430.052 113.888V113.48H430.077C429.895 92.7103 415.821 74.4258 395.737 68.9089L334.595 52.1624ZM334.595 52.1624L334.628 52.1712L395.737 68.9088L334.595 52.1624Z" stroke="#C2A894" stroke-opacity="0.67" stroke-width="0.816935"/>
<path d="M204.391 43.8765L204.005 42.7601L203.618 43.8764L183.65 101.603L183.463 102.145H184.036H222.584L209.888 138.867H171.072H170.781L170.685 139.142L163.269 160.592H117.14L172.539 0.408467H188.768H219.215H235.47L290.842 160.592H244.74L204.391 43.8765Z" stroke="#C2A894" stroke-opacity="0.67" stroke-width="0.816935"/>
</svg>
