<svg width="27" height="27" viewBox="0 0 27 27" fill="none" xmlns="http://www.w3.org/2000/svg">
<path d="M13.5 3.5L21.5 3.5V25.5H13.5L13.5 3.5Z" stroke="#A19991"/>
<rect x="13" y="1" width="9" height="5" rx="1" fill="#A19991"/>
<rect x="16.2083" y="11.8335" width="2.16667" height="1.08333" rx="0.2" fill="#A19991"/>
<rect x="17.2917" y="7.5" width="4.33333" height="1.08333" rx="0.2" fill="#A19991"/>
<rect x="17.2917" y="9.66675" width="4.33333" height="1.08333" rx="0.2" fill="#A19991"/>
<path d="M17.2917 5.99976V11.8334" stroke="#2C291F"/>
<path d="M24.5 25C24.7761 25 25 25.2239 25 25.5L25 26.5C25 26.7761 24.7761 27 24.5 27L2.5 27C2.22386 27 2 26.7761 2 26.5L2 25.5C2 25.2239 2.22386 25 2.5 25L24.5 25Z" fill="#2C291F"/>
<path d="M23.5 22C23.7761 22 24 22.2239 24 22.5L24 25.5C24 25.7761 23.7761 26 23.5 26L3.5 26C3.22386 26 3 25.7761 3 25.5L3 22.5C3 22.2239 3.22386 22 3.5 22L23.5 22Z" fill="#2C291F"/>
<rect x="18" y="3" width="2" height="2" rx="1" fill="#2C291F"/>
<path d="M10.1106 24.9998H6.88937C6.60333 24.9998 6.35556 24.8013 6.29303 24.5222L5.29555 20.0692C5.09912 19.1922 5 18.2963 5 17.3976V15.6109C5 15.2734 5.2736 14.9998 5.61111 14.9998H11.3889C11.7264 14.9998 12 15.2734 12 15.6109V17.3976C12 18.2963 11.9009 19.1922 11.7044 20.0692L10.707 24.5222C10.6444 24.8013 10.3967 24.9998 10.1106 24.9998Z" fill="#F1AF7E"/>
<rect x="5" y="13.9998" width="7" height="1" rx="0.5" fill="#2C291F"/>
</svg>
