<svg width="27" height="27" viewBox="0 0 27 27" fill="none" xmlns="http://www.w3.org/2000/svg">
<rect x="1" y="10" width="25" height="15" rx="1" fill="#A19991"/>
<rect x="1" y="23" width="25" height="1" fill="#2C291F"/>
<rect x="2" y="25" width="2" height="1" fill="#2C291F"/>
<path d="M2 5H25.5" stroke="#A19991"/>
<rect x="17" y="13" width="8" height="5" rx="1" fill="#F1AF7E"/>
<path d="M1.5 3C1.5 2.17157 2.17157 1.5 3 1.5H24C24.8284 1.5 25.5 2.17157 25.5 3V11.5H1.5V3Z" stroke="#A19991"/>
<circle cx="19" cy="20" r="1" fill="#2C291F"/>
<circle cx="23" cy="20" r="1" fill="#2C291F"/>
<rect x="23" y="25" width="2" height="1" fill="#2C291F"/>
<path d="M1 11.5L26 11.5" stroke="#2C291F"/>
<path d="M1 15L15 15" stroke="#2C291F"/>
<path d="M15.5 11L15.5 23" stroke="#2C291F"/>
<path d="M8 15L8 23" stroke="#2C291F"/>
</svg>
