<svg width="27" height="27" viewBox="0 0 27 27" fill="none" xmlns="http://www.w3.org/2000/svg">
<path d="M11.6396 1.78146V3.04246H15.3581V1.78146C15.3581 1.34987 15.0082 1 14.5766 1H12.421C11.9894 1 11.6396 1.34987 11.6396 1.78146Z" fill="#F1AF7E"/>
<path d="M17.038 26.0006H9.95748C9.22641 26.0006 8.61721 25.4406 8.55581 24.7121L7.40463 11.0522C7.25595 9.28797 7.60027 7.51708 8.39921 5.93706C8.56186 5.61539 8.89165 5.4126 9.2521 5.4126H17.7434C18.1039 5.4126 18.4337 5.61539 18.5963 5.93706C19.3953 7.51708 19.7396 9.28797 19.5909 11.0522L18.4397 24.7121C18.3783 25.4406 17.7691 26.0006 17.038 26.0006Z" fill="#6C645C"/>
<path d="M10.1512 3.87685V4.40891H16.8446V3.87685C16.8446 3.09999 16.2148 2.47021 15.4379 2.47021H11.5579C10.781 2.47021 10.1512 3.09999 10.1512 3.87685Z" fill="#6C645C"/>
<path d="M6.43394 8.98626C6.43394 8.63667 6.71734 8.35327 7.06693 8.35327H19.9292C20.2788 8.35327 20.5622 8.63667 20.5622 8.98626V12.132C20.5622 12.4816 20.2788 12.765 19.9292 12.765H7.06693C6.71734 12.765 6.43394 12.4816 6.43394 12.132V8.98626Z" fill="#2C291F"/>
</svg>
