<svg width="27" height="27" viewBox="0 0 27 27" fill="none" xmlns="http://www.w3.org/2000/svg">
<path d="M4.32482 7.87423C4.50463 7.35203 5.07371 7.07447 5.59591 7.25428L6.74048 7.64839L4.58145 13.9187L3.43688 13.5246C2.91468 13.3448 2.63712 12.7757 2.81693 12.2535L4.32482 7.87423Z" fill="#6C645C"/>
<path d="M8.04553 7.87423C8.22533 7.35203 8.79442 7.07447 9.31661 7.25428L10.4612 7.64839L8.30216 13.9187L7.15758 13.5246C6.63539 13.3448 6.35782 12.7757 6.53763 12.2535L8.04553 7.87423Z" fill="#6C645C"/>
<path d="M11.7662 7.87423C11.946 7.35203 12.5151 7.07447 13.0373 7.25428L14.1819 7.64839L12.0229 13.9187L10.8783 13.5246C10.3561 13.3448 10.0785 12.7757 10.2583 12.2535L11.7662 7.87423Z" fill="#6C645C"/>
<rect x="15" y="3" width="9" height="10" rx="1" fill="#6C645C"/>
<path d="M2 13.5C2 13.2239 2.22386 13 2.5 13H24.5C24.7761 13 25 13.2239 25 13.5V14.5C25 14.7761 24.7761 15 24.5 15H2.5C2.22386 15 2 14.7761 2 14.5V13.5Z" fill="#2C291F"/>
<path d="M2 14.5C2 14.2239 2.22386 14 2.5 14C2.77614 14 3 14.2239 3 14.5V24.5C3 24.7761 2.77614 25 2.5 25C2.22386 25 2 24.7761 2 24.5V14.5Z" fill="#2C291F"/>
<path d="M16.5 22C16.7761 22 17 22.2239 17 22.5C17 22.7761 16.7761 23 16.5 23L2.5 23C2.22386 23 2 22.7761 2 22.5C2 22.2239 2.22386 22 2.5 22L16.5 22Z" fill="#2C291F"/>
<path d="M22 15.5C22 15.2239 22.2239 15 22.5 15C22.7761 15 23 15.2239 23 15.5V24.5C23 24.7761 22.7761 25 22.5 25C22.2239 25 22 24.7761 22 24.5V15.5Z" fill="#2C291F"/>
<path d="M16 15.5C16 15.2239 16.2239 15 16.5 15C16.7761 15 17 15.2239 17 15.5V24.5C17 24.7761 16.7761 25 16.5 25C16.2239 25 16 24.7761 16 24.5V15.5Z" fill="#2C291F"/>
<path d="M15 15.5C15 15.2239 15.2239 15 15.5 15H23.5C23.7761 15 24 15.2239 24 15.5V23.5C24 23.7761 23.7761 24 23.5 24H15.5C15.2239 24 15 23.7761 15 23.5V15.5Z" fill="#6C645C"/>
<rect x="21" y="17" width="1.8" height="1.8" rx="0.9" fill="#2C291F"/>
<rect x="21" y="20" width="1.8" height="1.8" rx="0.9" fill="#2C291F"/>
<rect x="17" y="6" width="5" height="6" rx="0.5" fill="#F1AF7E"/>
</svg>
