<svg width="27" height="27" viewBox="0 0 27 27" fill="none" xmlns="http://www.w3.org/2000/svg">
<path d="M13 13C13 11.8954 13.8954 11 15 11H23C24.1046 11 25 11.8954 25 13V23C25 24.1046 24.1046 25 23 25H15C13.8954 25 13 24.1046 13 23V13Z" fill="#F1AF7E"/>
<path d="M15 9.5C15 9.22386 15.2239 9 15.5 9H17.5C17.7761 9 18 9.22386 18 9.5V11H15V9.5Z" fill="#2C291F"/>
<path d="M24.5 13V10.5C24.5 9.94772 24.0523 9.5 23.5 9.5H20.2193C19.8479 9.5 19.5071 9.70582 19.3343 10.0345L18 12.5714" stroke="#F1AF7E"/>
<path d="M10.1854 6.35505L8.55859 4.74072L9.50967 4.16507L12 7.20601L10.1854 6.35505Z" fill="black"/>
<path d="M5.22363 6.10059H8.55879V8.32403H5.22363V6.10059Z" fill="#2C291F"/>
<path d="M4.11172 3.87754L4.43734 4.20316C4.94067 4.70649 5.22344 5.38916 5.22344 6.10098H8.5586C8.91667 5.38484 9.5251 4.82501 10.2685 4.52764L11.8938 3.87754V2.70996C11.8938 2.43382 11.6699 2.20996 11.3938 2.20996H4.61172C4.33558 2.20996 4.11172 2.43382 4.11172 2.70996V3.87754Z" fill="#F1AF7E"/>
<path d="M4.06331 13.255L5.22344 8.32446H8.5586L9.20989 10.2783C9.5106 11.1805 9.54782 12.1496 9.31719 13.0722L8.91801 14.6689C8.70451 15.5229 9.07448 16.416 9.8293 16.8689L10.8524 17.4828C11.1536 17.6635 11.3379 17.989 11.3379 18.3403V24.0003C11.3379 24.5525 10.8902 25.0003 10.3379 25.0003H4C3.44772 25.0003 3 24.5525 3 24.0003V22.4166C3 19.3319 3.35681 16.2576 4.06331 13.255Z" fill="#6C645C"/>
</svg>
