<svg width="27" height="27" viewBox="0 0 27 27" fill="none" xmlns="http://www.w3.org/2000/svg">
<path d="M4.5 7.19995H22.5V25C22.5 26.1045 21.6046 27 20.5 27H6.5C5.39543 27 4.5 26.1045 4.5 25V7.19995Z" fill="#A19991"/>
<path d="M11.6485 9.6016C12.8519 9.21059 14.1481 9.21059 15.3515 9.6016C16.5549 9.9926 17.6036 10.7545 18.3473 11.7782C19.0911 12.8019 19.4917 14.0347 19.4917 15.3C19.4917 16.5653 19.0911 17.7981 18.3474 18.8218C17.6036 19.8455 16.5549 20.6074 15.3515 20.9984C14.1481 21.3894 12.8519 21.3894 11.6485 20.9984C10.4451 20.6074 9.39638 19.8455 8.65265 18.8218C7.90891 17.7981 7.50834 16.5653 7.50834 15.3C7.50834 14.0347 7.90891 12.8019 8.65265 11.7782C9.39638 10.7545 10.4451 9.9926 11.6485 9.6016Z" fill="#F1AF7E"/>
<path d="M12.1775 11.2298C13.037 10.9505 13.963 10.9505 14.8225 11.2298C15.6821 11.509 16.4312 12.0533 16.9624 12.7845C17.4936 13.5157 17.7798 14.3963 17.7798 15.3C17.7798 16.2038 17.4936 17.0844 16.9624 17.8156C16.4312 18.5468 15.6821 19.0911 14.8225 19.3703C13.963 19.6496 13.037 19.6496 12.1775 19.3703C11.3179 19.0911 10.5688 18.5468 10.0376 17.8156C9.50637 17.0844 9.22025 16.2038 9.22025 15.3C9.22025 14.3963 9.50637 13.5157 10.0376 12.7845C10.5688 12.0533 11.3179 11.509 12.1775 11.2298Z" fill="#2C291F"/>
<path d="M4.5 2C4.5 0.89543 5.39543 0 6.5 0H20.5C21.6046 0 22.5 0.895431 22.5 2V6.3H4.5V2Z" fill="#A19991"/>
<rect x="18" y="1.80005" width="2.7" height="2.7" rx="1.35" fill="#2C291F"/>
<rect x="14.4" y="1.80005" width="1.8" height="1.8" rx="0.9" fill="#2C291F"/>
<rect x="10.8" y="1.80005" width="1.8" height="1.8" rx="0.9" fill="#2C291F"/>
<rect x="7.2" y="1.80005" width="1.8" height="1.8" rx="0.9" fill="#2C291F"/>
</svg>
