<svg width="27" height="27" viewBox="0 0 27 27" fill="none" xmlns="http://www.w3.org/2000/svg">
<rect x="2" y="7" width="23" height="16" rx="1" fill="#A19991"/>
<rect x="20" y="13" width="2" height="2" rx="1" fill="#2C291F"/>
<path d="M2 9H25V11H2V9Z" fill="#2C291F"/>
<path d="M10 14C10 13.4477 10.4477 13 11 13H16C16.5523 13 17 13.4477 17 14V18C17 18.5523 16.5523 19 16 19H11C10.4477 19 10 18.5523 10 18V14Z" fill="#2C291F"/>
<path d="M2 5C2 4.44772 2.44772 4 3 4H24C24.5523 4 25 4.44772 25 5C25 5.55228 24.5523 6 24 6H3C2.44772 6 2 5.55228 2 5Z" fill="#2C291F"/>
<rect x="20" y="17" width="2" height="2" fill="#F1AF7E"/>
</svg>
