<svg width="27" height="27" viewBox="0 0 27 27" fill="none" xmlns="http://www.w3.org/2000/svg">
<path d="M5 19C5.55228 19 6 19.4477 6 20L6 22C6 22.5523 5.55228 23 5 23C4.44772 23 4 22.5523 4 22L4 20C4 19.4477 4.44772 19 5 19Z" fill="#2C291F"/>
<path d="M22 19C22.5523 19 23 19.4477 23 20L23 22C23 22.5523 22.5523 23 22 23C21.4477 23 21 22.5523 21 22L21 20C21 19.4477 21.4477 19 22 19Z" fill="#2C291F"/>
<rect x="1" y="5" width="25" height="16" rx="1" fill="#A19991"/>
<rect x="22" y="9" width="2" height="2" rx="1" fill="#2C291F"/>
<rect x="22" y="12" width="2" height="2" rx="1" fill="#2C291F"/>
<path d="M20 5L20 21L19 21L19 5L20 5Z" fill="#2C291F"/>
<path d="M3 8C3 7.44772 3.44772 7 4 7H16C16.5523 7 17 7.44772 17 8V18C17 18.5523 16.5523 19 16 19H4C3.44772 19 3 18.5523 3 18V8Z" fill="#F1AF7E"/>
</svg>
