<svg width="27" height="27" viewBox="0 0 27 27" fill="none" xmlns="http://www.w3.org/2000/svg">
<path d="M23 10.8999H25.0999C25.6522 10.8999 26.0999 11.3476 26.0999 11.8999V15.2999C26.0999 15.8522 25.6522 16.2999 25.0999 16.2999H22.5" stroke="#2C291F" stroke-width="0.9"/>
<path d="M21.4 9H4.7C3.59543 9 2.7 9.89543 2.7 11V14.0614C2.7 15.9997 3.50376 17.8513 4.91981 19.175L7.51395 21.6H18.586L21.1802 19.175C22.5962 17.8513 23.4 15.9997 23.4 14.0614V11C23.4 9.89543 22.5046 9 21.4 9Z" fill="#A19991"/>
<path d="M8.1 8.1001L8.775 7.4251C9.14779 7.05231 9.14779 6.44789 8.775 6.0751V6.0751C8.40221 5.70231 8.40221 5.09789 8.775 4.7251L9.9 3.6001" stroke="#2C291F" stroke-width="0.9"/>
<path d="M12.6 8.1001L13.275 7.4251C13.6478 7.05231 13.6478 6.44789 13.275 6.0751V6.0751C12.9022 5.70231 12.9022 5.09789 13.275 4.7251L14.4 3.6001" stroke="#2C291F" stroke-width="0.9"/>
<path d="M17.1 8.1001L17.775 7.4251C18.1478 7.05231 18.1478 6.44789 17.775 6.0751V6.0751C17.4022 5.70231 17.4022 5.09789 17.775 4.7251L18.9 3.6001" stroke="#2C291F" stroke-width="0.9"/>
<path d="M23.8629 21.6001H2.23713C1.37265 21.6001 0.915461 22.6229 1.492 23.267L2.11855 23.967C2.30825 24.179 2.57923 24.3001 2.86367 24.3001H23.2363C23.5208 24.3001 23.7918 24.179 23.9815 23.967L24.608 23.267C25.1845 22.6229 24.7274 21.6001 23.8629 21.6001Z" fill="#F1AF7E"/>
</svg>
