<svg width="27" height="27" viewBox="0 0 27 27" fill="none" xmlns="http://www.w3.org/2000/svg">
<path d="M20.0233 3.36337C21.9876 2.81965 23.9106 4.35082 23.8207 6.38694L23.1998 20.4548C23.1042 22.6189 21.6261 24.4753 19.5385 25.0531L16.5642 25.8765C15.5466 26.1581 14.4659 26.1104 13.477 25.7402L8.70624 23.9539C7.71739 23.5836 6.87113 22.9098 6.28877 22.029L3.47909 17.7796C2.89673 16.8989 2.60814 15.8563 2.65471 14.8015L2.7908 11.7183C2.88632 9.55429 4.36443 7.69789 6.45205 7.12001L20.0233 3.36337Z" fill="#F1AF7E"/>
<path d="M21.3591 2.94668C22.6451 2.60212 23.9025 3.58684 23.8763 4.91799L23.6089 18.469C23.5827 19.798 22.6849 20.9514 21.4029 21.303L17.4408 22.3895C16.8236 22.5588 16.1684 22.5262 15.571 22.2965L10.9796 20.5316C10.3833 20.3024 9.87574 19.8888 9.53083 19.3511L6.7951 15.0862C6.46071 14.5649 6.29586 13.9528 6.32318 13.3341L6.51028 9.09542C6.56799 7.78785 7.46674 6.66862 8.731 6.32991L21.3591 2.94668Z" fill="#6C645C"/>
<rect x="9.9" y="9.8999" width="0.9" height="0.9" rx="0.45" fill="#2C291F"/>
<rect x="13.5" y="12.6001" width="2.7" height="2.7" rx="1" fill="#2C291F"/>
<rect x="16.2" y="15.3" width="0.9" height="0.9" rx="0.45" fill="#2C291F"/>
<rect x="18.9" y="18" width="0.9" height="0.9" rx="0.45" fill="#2C291F"/>
<rect x="12.6" y="7.19995" width="2.7" height="2.7" rx="1" fill="#2C291F"/>
<rect x="17.1" y="5.3999" width="0.9" height="0.9" rx="0.45" fill="#2C291F"/>
<rect x="18.9" y="8.1001" width="0.9" height="0.9" rx="0.45" fill="#2C291F"/>
<rect x="8.1" y="13.5" width="2.7" height="2.7" rx="1" fill="#2C291F"/>
<rect x="19.8" y="9" width="2.7" height="2.7" rx="1" fill="#2C291F"/>
<rect x="20.7" y="4.5" width="0.9" height="0.9" rx="0.45" fill="#2C291F"/>
<rect x="19.8" y="14.3999" width="2.7" height="2.7" rx="1" fill="#2C291F"/>
<rect x="14.4" y="18" width="2.7" height="2.7" rx="1" fill="#2C291F"/>
</svg>
