<svg width="27" height="27" viewBox="0 0 27 27" fill="none" xmlns="http://www.w3.org/2000/svg">
<path d="M25 22H2V23H25V22Z" fill="#A19991"/>
<path d="M0.900002 4.98228L13.5 4.5L26.1 4.98228V13.5H0.900002V4.98228Z" fill="#A19991"/>
<path d="M0 15.3001L0.9 12.6001H26.1L27 15.3001H0Z" fill="#2C291F"/>
<path d="M1 25.2V20.7H3.7L2.35 25.2H1Z" fill="#2C291F"/>
<path d="M25.7 25.2V20.7H23L24.35 25.2H25.7Z" fill="#2C291F"/>
<path d="M3.6 7.19995V8.54995L4.05 8.99995V10.8L3.6 11.25V12.6H4.95L5.4 12.15H10.8L11.25 12.6H12.6V11.25L12.15 10.8V8.99995L12.6 8.54995V7.19995H11.25L10.8 7.64995H5.4L4.95 7.19995H3.6Z" fill="#F1AF7E"/>
<path d="M14.4 7.19995V8.54995L14.85 8.99995V10.8L14.4 11.25V12.6H15.75L16.2 12.15H21.6L22.05 12.6H23.4V11.25L22.95 10.8V8.99995L23.4 8.54995V7.19995H22.05L21.6 7.64995H16.2L15.75 7.19995H14.4Z" fill="#F1AF7E"/>
<path d="M27 15.3H0V19.7C0 20.2523 0.447715 20.7 1 20.7H26C26.5523 20.7 27 20.2523 27 19.7V15.3Z" fill="#A19991"/>
<rect x="0.900002" y="3.6001" width="0.9" height="1.8" fill="#A19991"/>
<rect x="25.2" y="3.6001" width="0.9" height="1.8" fill="#A19991"/>
</svg>
