<svg width="27" height="27" viewBox="0 0 27 27" fill="none" xmlns="http://www.w3.org/2000/svg">
<path fill-rule="evenodd" clip-rule="evenodd" d="M3.6001 2C3.6001 0.895429 4.49553 0 5.6001 0H13.5H14.4001H16.9C18.0046 0 18.9 0.89543 18.9 2V25C18.9 26.1046 18.0046 27 16.9 27H16.2001V27.0001H5.6001C4.49553 27.0001 3.6001 26.1047 3.6001 25.0001V14.6001C3.6001 13.4955 4.49553 12.6001 5.6001 12.6001H13.5V8.1H5.6001C4.49553 8.1 3.6001 7.20457 3.6001 6.1V2Z" fill="#A19991"/>
<rect x="5.4" y="1.80005" width="8.1" height="4.5" rx="0.9" fill="#F1AF7E"/>
<path d="M19.3909 3.6001L21.7161 6.13505M24.3 11.8608V9.91492C24.3 9.21842 24.0308 8.54886 23.5488 8.04615L21.7161 6.13505M24.3 11.8608V21.6001C24.3 22.5942 23.4941 23.4001 22.5 23.4001H18.9M24.3 11.8608H22.7161C22.1638 11.8608 21.7161 11.4131 21.7161 10.8608V6.13505" stroke="#2C291F" stroke-width="1.8"/>
</svg>
