<svg width="27" height="27" viewBox="0 0 27 27" fill="none" xmlns="http://www.w3.org/2000/svg">
<path d="M25.2 9.8999H1.8V8.2086C1.8 6.68148 2.31827 5.19958 3.27002 4.00532C4.39456 2.59424 6.03763 1.69261 7.8319 1.50201L12.4437 1.01211C13.1459 0.937516 13.8541 0.937516 14.5563 1.01211L19.1681 1.50201C20.9624 1.69261 22.6054 2.59424 23.73 4.00532C24.6817 5.19958 25.2 6.68148 25.2 8.2086V9.8999Z" fill="#A19991"/>
<path d="M1.8 17.1001H25.2V18.7914C25.2 20.3185 24.6817 21.8004 23.73 22.9947C22.6055 24.4058 20.9624 25.3074 19.1681 25.498L14.5563 25.9879C13.8541 26.0625 13.1459 26.0625 12.4437 25.9879L7.8319 25.498C6.03763 25.3074 4.39456 24.4058 3.27002 22.9947C2.31827 21.8004 1.8 20.3185 1.8 18.7914V17.1001Z" fill="#A19991"/>
<path d="M0 10.8999C0 10.3476 0.447715 9.8999 1 9.8999H26C26.5523 9.8999 27 10.3476 27 10.8999V11.5999C27 12.1522 26.5523 12.5999 26 12.5999H1C0.447715 12.5999 0 12.1522 0 11.5999V10.8999Z" fill="#2C291F"/>
<rect y="15.3" width="27" height="2.7" rx="1" fill="#2C291F"/>
<rect x="7.2" y="5.3999" width="0.9" height="0.9" rx="0.45" fill="#F0F0F0"/>
<rect x="3.6" y="6.30005" width="0.9" height="0.9" rx="0.45" fill="#F0F0F0"/>
<rect x="10.8" y="3.6001" width="0.9" height="0.9" rx="0.45" fill="#F0F0F0"/>
<rect x="13.5" y="4.5" width="0.9" height="0.9" rx="0.45" fill="#F0F0F0"/>
<rect x="10.8" y="6.30005" width="0.9" height="0.9" rx="0.45" fill="#F0F0F0"/>
<rect x="14.4" y="2.69995" width="0.9" height="0.9" rx="0.45" fill="#F0F0F0"/>
<rect x="8.1" y="2.69995" width="0.9" height="0.9" rx="0.45" fill="#F0F0F0"/>
<rect x="20.7" y="5.3999" width="0.9" height="0.9" rx="0.45" fill="#F0F0F0"/>
<rect x="5.4" y="4.5" width="0.9" height="0.9" rx="0.45" fill="#F0F0F0"/>
<rect x="16.2" y="5.3999" width="0.9" height="0.9" rx="0.45" fill="#F0F0F0"/>
<rect x="18.9" y="3.6001" width="0.9" height="0.9" rx="0.45" fill="#F0F0F0"/>
<rect x="0.900002" y="12.6001" width="25.2" height="2.7" fill="#F1AF7E"/>
<path d="M1.9928 16.3929L0.899902 15.3H4.4999L3.40701 16.3929C3.01648 16.7835 2.38332 16.7835 1.9928 16.3929Z" fill="#F1AF7E"/>
<path d="M5.09289 16.3929L4 15.3H7.6L6.50711 16.3929C6.11658 16.7835 5.48342 16.7835 5.09289 16.3929Z" fill="#F1AF7E"/>
<path d="M8.19299 16.3929L7.1001 15.3H10.7001L9.6072 16.3929C9.21668 16.7835 8.58352 16.7835 8.19299 16.3929Z" fill="#F1AF7E"/>
<path d="M11.2931 16.3929L10.2002 15.3H13.8002L12.7073 16.3929C12.3168 16.7835 11.6836 16.7835 11.2931 16.3929Z" fill="#F1AF7E"/>
<path d="M14.3932 16.3929L13.3003 15.3H16.9003L15.8074 16.3929C15.4169 16.7835 14.7837 16.7835 14.3932 16.3929Z" fill="#F1AF7E"/>
<path d="M17.4933 16.3929L16.4004 15.3H20.0004L18.9075 16.3929C18.517 16.7835 17.8838 16.7835 17.4933 16.3929Z" fill="#F1AF7E"/>
<path d="M20.5934 16.3929L19.5005 15.3H23.1005L22.0076 16.3929C21.6171 16.7835 20.9839 16.7835 20.5934 16.3929Z" fill="#F1AF7E"/>
<path d="M23.6935 16.3929L22.6006 15.3H26.2006L25.1077 16.3929C24.7172 16.7835 24.084 16.7835 23.6935 16.3929Z" fill="#F1AF7E"/>
</svg>
