<svg width="27" height="27" viewBox="0 0 27 27" fill="none" xmlns="http://www.w3.org/2000/svg">
<path d="M15.75 27V20.7H18L17.1 27H15.75Z" fill="#2C291F"/>
<path d="M27 27V6.75H25.2V17.1H21.15V18.45H25.2V21.15H21.15V22.5H25.2V27H27Z" fill="#2C291F"/>
<rect x="3.6" y="11.25" width="18.9" height="2.7" fill="#6C645C"/>
<path d="M15.8001 5.3999H11.3001L12.2001 7.6499L11.9365 7.91351C11.529 8.32098 11.3001 8.87364 11.3001 9.4499C11.3001 10.0262 11.529 10.5788 11.9365 10.9863L12.2001 11.2499H14.9001L15.1637 10.9863C15.5712 10.5788 15.8001 10.0262 15.8001 9.4499C15.8001 8.87364 15.5712 8.32098 15.1637 7.91351L14.9001 7.6499L15.8001 5.3999Z" fill="#F1AF7E"/>
<path d="M5.4 27V20.7H7.65L6.75 27H5.4Z" fill="#2C291F"/>
<path d="M20.25 27V20.7H18L18.9 27H20.25Z" fill="#2C291F"/>
<path d="M11.25 27V20.7H9L9.9 27H11.25Z" fill="#2C291F"/>
<path d="M0 27V6.75H1.8V17.1H4.5V18.45H1.8V21.15H4.5V22.5H1.8V27H0Z" fill="#2C291F"/>
<path d="M3.6 14.3999H22.5V24.2999L21.5231 24.0557C19.7929 23.6231 17.9922 23.5512 16.233 23.8444L15.4843 23.9692C14.1692 24.1884 12.8283 24.204 11.5086 24.0154L9.72094 23.76C8.05613 23.5222 6.361 23.6097 4.7295 24.0175L3.6 24.2999V14.3999Z" fill="#6C645C"/>
</svg>
