<svg width="27" height="27" viewBox="0 0 27 27" fill="none" xmlns="http://www.w3.org/2000/svg">
<g clip-path="url(#clip0_7174_157244)">
<rect y="14.3999" width="7.2" height="12.6" fill="#A19991"/>
<path d="M16.272 4.05V0H10.728V4.05L8.01473 6.38604C7.57462 6.76496 7.54877 7.43783 7.95851 7.8494L8.208 8.1H18.792L19.0415 7.8494C19.4512 7.43783 19.4254 6.76496 18.9853 6.38604L16.272 4.05Z" fill="#2C291F"/>
<path d="M9.9 13.5L10.575 12.825C10.9478 12.4522 10.9478 11.8478 10.575 11.475V11.475C10.2022 11.1022 10.2022 10.4978 10.575 10.125L11.7 9" stroke="#F1AF7E" stroke-width="0.9"/>
<path d="M14.4 13.5L15.075 12.825C15.4478 12.4522 15.4478 11.8478 15.075 11.475V11.475C14.7022 11.1022 14.7022 10.4978 15.075 10.125L16.2 9" stroke="#F1AF7E" stroke-width="0.9"/>
<rect x="19.8" y="14.3999" width="7.2" height="12.6" fill="#A19991"/>
<rect x="8.1" y="14.3999" width="10.8" height="1.8" fill="#2C291F"/>
<rect x="8.1" y="17.1001" width="10.8" height="9.9" fill="#2C291F"/>
<path d="M10.8 19.8999C10.8 19.3476 11.2477 18.8999 11.8 18.8999H15.2C15.7523 18.8999 16.2 19.3476 16.2 19.8999V24.1999C16.2 24.7522 15.7523 25.1999 15.2 25.1999H11.8C11.2477 25.1999 10.8 24.7522 10.8 24.1999V19.8999Z" fill="#F1AF7E"/>
</g>
<defs>
<clipPath id="clip0_7174_157244">
<rect width="27" height="27" fill="white"/>
</clipPath>
</defs>
</svg>
