<svg width="182" height="52" viewBox="0 0 182 52" fill="none" xmlns="http://www.w3.org/2000/svg">
<path d="M9.37796 14.6706V39.1256H19.3819V14.6706H25.2046H27.4675L30.3137 6.44934H28.0536H19.3819H9.37796H2.97459H0.708984V14.6706H2.97459H9.37796Z" fill="#DDDADA"/>
<path d="M88.1413 29.5639C88.1413 25.2769 85.2517 21.4918 81.1166 20.355L68.725 16.9579C68.394 16.806 68.1823 16.4777 68.1823 16.0897C68.1823 15.5714 68.6002 15.1536 69.1184 15.1536H83.062L86.0412 6.44934H69.1157C63.7976 6.44934 59.4727 10.7743 59.4727 16.1087C59.4727 20.1976 62.0666 23.8524 65.9276 25.2036L78.8103 28.7472C79.1766 28.8449 79.4289 29.184 79.4289 29.5775C79.4289 30.0469 79.0491 30.424 78.5824 30.424H61.0979L64.0798 39.1256H78.5797C83.8489 39.1256 88.1359 34.8413 88.1359 29.5639H88.1413Z" fill="#DDDADA"/>
<path d="M42.1566 15.3815L50.3671 39.1256H59.9016L48.6034 6.44934H45.2444H39.0635H35.7098L24.4062 39.1256H33.9462L35.4711 34.7164H43.4102L46.0448 27.0975H38.103L42.1566 15.3815Z" fill="#DDDADA"/>
<path d="M96.6122 30.329C95.3723 30.329 94.2978 30.7712 93.4241 31.6476C92.5504 32.5267 92.1055 33.5958 92.1055 34.8358C92.1055 36.0757 92.5504 37.1502 93.4241 38.0239C94.2978 38.8976 95.3723 39.3425 96.6122 39.3425C97.8522 39.3425 98.9267 38.8976 99.8004 38.0239C100.674 37.1448 101.119 36.0757 101.119 34.8358C101.119 33.5958 100.674 32.5213 99.8004 31.6476C98.9213 30.7685 97.8522 30.329 96.6122 30.329Z" fill="#DDDADA"/>
<path d="M168.689 32.6868C165.775 32.6868 163.404 30.3154 163.404 27.3986C163.404 24.4818 165.775 22.1158 168.689 22.1158C171.603 22.1158 173.972 24.4873 173.972 27.3986C173.972 30.31 171.601 32.6868 168.689 32.6868ZM168.147 14.5485C161.219 14.5485 155.584 20.184 155.584 27.111C155.584 34.0381 161.219 39.6736 168.147 39.6736C175.074 39.6736 180.709 34.0381 180.709 27.111C180.709 20.184 175.074 14.5485 168.147 14.5485Z" fill="#DDDADA"/>
<path d="M155.64 15.0938H150.821C148.103 15.0938 145.9 17.297 145.9 20.0157V15.0938H137.391V39.1688H145.9V22.4956H153.122L155.64 15.0911V15.0938Z" fill="#DDDADA"/>
<path d="M121.77 32.2771C118.922 32.2771 116.604 29.96 116.604 27.111C116.604 24.262 118.922 21.9449 121.77 21.9449C124.619 21.9449 126.937 24.262 126.937 27.111C126.937 29.96 124.619 32.2771 121.77 32.2771ZM121.784 14.5485C120.834 14.5485 119.912 14.6543 119.019 14.8551C117.104 15.5551 115.538 16.9063 114.632 18.613V15.2024H106.158V50.3775L114.632 47.4797V35.5901C115.587 37.3944 117.272 38.7999 119.331 39.4646C120.124 39.622 120.94 39.7061 121.779 39.7061C128.727 39.7061 134.363 34.0706 134.363 27.1219C134.363 20.1731 128.727 14.5376 121.779 14.5376L121.784 14.5457V14.5485Z" fill="#DDDADA"/>
</svg>
