<svg width="25" height="16" viewBox="0 0 25 16" fill="none" xmlns="http://www.w3.org/2000/svg">
<path fill-rule="evenodd" clip-rule="evenodd" d="M23.5347 9.83044C24.7007 8.7705 24.7007 7.0195 23.5347 5.95956C21.2909 3.92003 17.2796 1 12.7046 1C8.12961 1 4.11832 3.92003 1.87456 5.95956C0.708481 7.0195 0.708481 8.7705 1.87456 9.83044C4.11832 11.87 8.12961 14.79 12.7046 14.79C17.2796 14.79 21.2909 11.87 23.5347 9.83044ZM12.7028 11.609C15.0462 11.609 16.9459 9.94675 16.9459 7.89629C16.9459 5.84582 15.0462 4.18359 12.7028 4.18359C10.3594 4.18359 8.45975 5.84582 8.45975 7.89629C8.45975 9.94675 10.3594 11.609 12.7028 11.609Z" fill="#B5B5B5"/>
<path d="M2.97461 14.4199L8.23603 11M22.9746 1.41992L11 9.20342" stroke="#B5B5B5" stroke-width="1.5" stroke-linecap="round"/>
</svg>
