<svg width="20" height="21" viewBox="0 0 20 21" fill="none" xmlns="http://www.w3.org/2000/svg">
<ellipse cx="10.1602" cy="15.6812" rx="2.5" ry="2" fill="#6C645C"/>
<rect x="8.66016" y="2.5" width="3" height="2" rx="0.332989" fill="#6C645C"/>
<path d="M4.87872 11.4855L3.67738 13.145C3.28869 13.6819 3.38083 14.4012 3.98028 14.684C5.00768 15.1687 6.93161 15.769 10.1593 15.769C13.3504 15.769 15.2671 15.1822 16.303 14.7005C16.9193 14.414 17.0031 13.6739 16.5865 13.1369L15.3194 11.5033C14.9174 10.9851 14.6993 10.3479 14.6993 9.69204V8.40876C14.6993 5.85316 12.6275 3.78143 10.0719 3.78143C7.51635 3.78143 5.44462 5.85316 5.44462 8.40876V9.73881C5.44462 10.3661 5.24658 10.9774 4.87872 11.4855Z" fill="#F1AF7E"/>
</svg>
