<?xml version="1.0" encoding="utf-8"?>
<!-- Generator: Adobe Illustrator 26.0.1, SVG Export Plug-In . SVG Version: 6.00 Build 0)  -->
<svg version="1.1" id="Layer_1" xmlns="http://www.w3.org/2000/svg" xmlns:xlink="http://www.w3.org/1999/xlink" x="0px" y="0px"
	 viewBox="0 0 19 19" style="enable-background:new 0 0 19 19;" xml:space="preserve">
<style type="text/css">
	.st0{fill-rule:evenodd;clip-rule:evenodd;fill:#FFFFFF;}
	.st1{fill-rule:evenodd;clip-rule:evenodd;fill:#FFFFFF;filter:url(#Adobe_OpacityMaskFilter);}
	.st2{mask:url(#path-1-inside-1_7814_10615_00000162319024933448647870000013261178609857178270_);}
	.st3{fill:#FFFFFF;}
	.st4{opacity:0.6;}
	.st5{opacity:0.6;enable-background:new    ;}
</style>
<g>
	<path class="st0" d="M8.7,6.3c-0.5,0-0.9,0.4-0.9,0.9v10.4c0,0.5,0.4,0.9,0.9,0.9h9.2c0.5,0,0.9-0.4,0.9-0.9V7.2
		c0-0.5-0.4-0.9-0.9-0.9H8.7z M13.4,16.3c1.5,0,2.7-1.2,2.7-2.7c0-1.5-1.2-2.7-2.7-2.7s-2.7,1.2-2.7,2.7
		C10.7,15.1,11.9,16.3,13.4,16.3z"/>
</g>
<defs>
	<filter id="Adobe_OpacityMaskFilter" filterUnits="userSpaceOnUse" x="5.9" y="4.3" width="14.9" height="16.1">
		<feColorMatrix  type="matrix" values="1 0 0 0 0  0 1 0 0 0  0 0 1 0 0  0 0 0 1 0"/>
	</filter>
</defs>
<mask maskUnits="userSpaceOnUse" x="5.9" y="4.3" width="14.9" height="16.1" id="path-1-inside-1_7814_10615_00000162319024933448647870000013261178609857178270_">
	<path class="st1" d="M8.7,6.3c-0.5,0-0.9,0.4-0.9,0.9v10.4c0,0.5,0.4,0.9,0.9,0.9h9.2c0.5,0,0.9-0.4,0.9-0.9V7.2
		c0-0.5-0.4-0.9-0.9-0.9H8.7z M13.4,16.3c1.5,0,2.7-1.2,2.7-2.7c0-1.5-1.2-2.7-2.7-2.7s-2.7,1.2-2.7,2.7
		C10.7,15.1,11.9,16.3,13.4,16.3z"/>
</mask>
<g class="st2">
	<path class="st3" d="M9.8,7.2c0,0.6-0.5,1.1-1.1,1.1V4.3c-1.6,0-2.9,1.3-2.9,2.9H9.8z M9.8,17.6V7.2H5.9v10.4H9.8z M8.7,16.5
		c0.6,0,1.1,0.5,1.1,1.1H5.9c0,1.6,1.3,2.9,2.9,2.9V16.5z M17.9,16.5H8.7v3.9h9.2V16.5z M16.9,17.6c0-0.6,0.5-1.1,1.1-1.1v3.9
		c1.6,0,2.9-1.3,2.9-2.9H16.9z M16.9,7.2v10.4h3.9V7.2H16.9z M17.9,8.2c-0.6,0-1.1-0.5-1.1-1.1h3.9c0-1.6-1.3-2.9-2.9-2.9V8.2z
		 M8.7,8.2h9.2V4.3H8.7V8.2z M14.2,13.6c0,0.4-0.3,0.7-0.7,0.7v3.9c2.6,0,4.7-2.1,4.7-4.7H14.2z M13.4,12.9c0.4,0,0.7,0.3,0.7,0.7
		h3.9c0-2.6-2.1-4.7-4.7-4.7V12.9z M12.7,13.6c0-0.4,0.3-0.7,0.7-0.7V8.9c-2.6,0-4.7,2.1-4.7,4.7H12.7z M13.4,14.3
		c-0.4,0-0.7-0.3-0.7-0.7H8.8c0,2.6,2.1,4.7,4.7,4.7V14.3z"/>
</g>
<g class="st4">
	<g>
		<path class="st3" d="M9.5,18.6H2.6c-1,0-1.9-0.8-1.9-1.9V2.3c0-1,0.8-1.9,1.9-1.9h8c1,0,1.9,0.8,1.9,1.9v4h-2V2.4H2.7v14.2h6.8
			V18.6z"/>
	</g>
	<g>
		<rect x="2" y="5.9" class="st3" width="9.5" height="2"/>
	</g>
</g>
<g class="st5">
	<circle class="st3" cx="13.4" cy="13.6" r="2.7"/>
</g>
</svg>
