<svg width="20" height="20" viewBox="0 0 20 20" fill="none" xmlns="http://www.w3.org/2000/svg">
<path d="M9.70353 17.2H3.5998C3.15798 17.2 2.7998 16.8418 2.7998 16.4V3.59999C2.7998 3.15816 3.15798 2.79999 3.5998 2.79999H10.6855C11.1274 2.79999 11.4855 3.15816 11.4855 3.59999V7.14287" stroke="#6C645C" stroke-width="1.736"/>
<path d="M3.03711 7.68823L11.482 7.68823" stroke="#6C645C" stroke-width="1.73333"/>
<path fill-rule="evenodd" clip-rule="evenodd" d="M9.02852 7.14309C8.58669 7.14309 8.22852 7.50126 8.22852 7.94309V17.2002C8.22852 17.6421 8.58669 18.0002 9.02852 18.0002H17.1999C17.6418 18.0002 17.9999 17.6421 17.9999 17.2002V7.94309C17.9999 7.50126 17.6418 7.14309 17.1999 7.14309H9.02852ZM13.1999 16.0438C14.5254 16.0438 15.5999 14.9693 15.5999 13.6438C15.5999 12.3183 14.5254 11.2438 13.1999 11.2438C11.8745 11.2438 10.7999 12.3183 10.7999 13.6438C10.7999 14.9693 11.8745 16.0438 13.1999 16.0438Z" fill="#F1AF7E"/>
<circle opacity="0.6" cx="13.1998" cy="13.6438" r="2.4" fill="white"/>
</svg>
