<svg width="16" height="16" viewBox="0 0 16 16" fill="none" xmlns="http://www.w3.org/2000/svg">
<path d="M7.73289 14.48H2.23953C1.84189 14.48 1.51953 14.1577 1.51953 13.76V2.24002C1.51953 1.84238 1.84189 1.52002 2.23953 1.52002H8.61668C9.01432 1.52002 9.33668 1.84237 9.33668 2.24002V5.42862" stroke="#2C291F" stroke-width="1.5624"/>
<path d="M1.73242 5.91943L9.33281 5.91943" stroke="#2C291F" stroke-width="1.56"/>
<path fill-rule="evenodd" clip-rule="evenodd" d="M7.12527 5.42871C6.72763 5.42871 6.40527 5.75107 6.40527 6.14871V14.4801C6.40527 14.8778 6.72763 15.2001 7.12527 15.2001H14.4796C14.8772 15.2001 15.1996 14.8778 15.1996 14.4801V6.14871C15.1996 5.75107 14.8772 5.42871 14.4796 5.42871H7.12527ZM10.8796 13.4393C12.0725 13.4393 13.0396 12.4723 13.0396 11.2793C13.0396 10.0864 12.0725 9.11934 10.8796 9.11934C9.68662 9.11934 8.71956 10.0864 8.71956 11.2793C8.71956 12.4723 9.68662 13.4393 10.8796 13.4393Z" fill="#80B8B7"/>
<circle cx="10.8797" cy="11.2794" r="2.16" fill="#2C291F"/>
</svg>
