<svg width="18" height="18" viewBox="0 0 18 18" fill="none" xmlns="http://www.w3.org/2000/svg">
<g clip-path="url(#clip0_8117_99803)">
<path d="M1 15V3C1 1.34315 2.34315 0 4 0H11.9151C12.4607 0 12.9826 0.222882 13.3599 0.616993L15.4447 2.79496C15.8011 3.16721 16 3.66265 16 4.17797V15C16 16.6569 14.6569 18 13 18H4C2.34315 18 1 16.6569 1 15Z" fill="#BCB19A"/>
<path d="M12 4V1.34123C12 0.846283 12.5984 0.598411 12.9484 0.948392L15.0516 3.05161C15.4016 3.40159 15.1537 4 14.6588 4H12Z" fill="#2C291F"/>
<path d="M4.45987 12.2276C4.69436 12.2276 4.89733 12.2666 5.06878 12.3448C5.24276 12.423 5.37639 12.5339 5.46968 12.6776C5.56297 12.8213 5.60961 12.9915 5.60961 13.1882C5.60961 13.3824 5.56297 13.5525 5.46968 13.6988C5.37639 13.8425 5.24276 13.9534 5.06878 14.0316C4.89733 14.1072 4.69436 14.1451 4.45987 14.1451H3.9266V14.875H3.31391V12.2276H4.45987ZM4.42583 13.6458C4.60989 13.6458 4.74983 13.6068 4.84564 13.5286C4.94145 13.4479 4.98936 13.3344 4.98936 13.1882C4.98936 13.0394 4.94145 12.926 4.84564 12.8478C4.74983 12.7671 4.60989 12.7268 4.42583 12.7268H3.9266V13.6458H4.42583ZM6.04703 12.2276H7.24972C7.53716 12.2276 7.79056 12.283 8.00992 12.394C8.2318 12.5024 8.40325 12.6562 8.52427 12.8554C8.64782 13.0546 8.70959 13.2865 8.70959 13.5513C8.70959 13.816 8.64782 14.048 8.52427 14.2472C8.40325 14.4464 8.2318 14.6014 8.00992 14.7124C7.79056 14.8208 7.53716 14.875 7.24972 14.875H6.04703V12.2276ZM7.21947 14.372C7.48421 14.372 7.69474 14.2989 7.85107 14.1526C8.00992 14.0039 8.08934 13.8034 8.08934 13.5513C8.08934 13.2991 8.00992 13.1 7.85107 12.9537C7.69474 12.805 7.48421 12.7306 7.21947 12.7306H6.65972V14.372H7.21947ZM9.78435 12.7192V13.4189H11.0097V13.9106H9.78435V14.875H9.17165V12.2276H11.1724V12.7192H9.78435Z" fill="#2C291F"/>
</g>
<defs>
<clipPath id="clip0_8117_99803">
<rect width="18" height="18" fill="white"/>
</clipPath>
</defs>
</svg>
