<svg width="20" height="20" viewBox="0 0 20 20" fill="none" xmlns="http://www.w3.org/2000/svg">
<path fill-rule="evenodd" clip-rule="evenodd" d="M16.885 14.4983C16.8608 14.3344 16.8973 14.1679 16.9818 14.0254C17.7464 12.7365 18.1856 11.2306 18.1856 9.62178C18.1856 4.8601 14.3385 1 9.5928 1C4.84713 1 1 4.8601 1 9.62178C1 14.3835 4.84713 18.2436 9.5928 18.2436C10.7576 18.2436 11.8682 18.011 12.8812 17.5897C13.0281 17.5286 13.1909 17.5144 13.3447 17.5555L16.4847 18.3952C16.9646 18.5235 17.4191 18.1184 17.3466 17.6269L16.885 14.4983Z" fill="white"/>
<path d="M9.96612 7.57207C9.86586 7.67267 9.70295 7.67267 9.60269 7.57207L9.45685 7.42574C8.53471 6.50049 7.03634 6.50049 6.1142 7.42574C5.19645 8.34658 5.19645 9.83629 6.11421 10.7571L9.45014 14.1043C9.63456 14.2894 9.93424 14.2894 10.1187 14.1043L13.4546 10.7571C14.3724 9.83629 14.3724 8.34658 13.4546 7.42574C12.5325 6.50049 11.0341 6.50049 10.112 7.42574L9.96612 7.57207Z" fill="#94CC87"/>
</svg>
