<svg width="50" height="51" viewBox="0 0 50 51" fill="none" xmlns="http://www.w3.org/2000/svg">
<path d="M5.55469 35.6851L21.8144 43.4279C23.8292 44.3873 26.1691 44.3873 28.1838 43.4279L44.4436 35.6851L24.9991 27.3518L5.55469 35.6851Z" fill="#2C291F"/>
<path d="M24.9991 5.12964V27.3519L5.55469 35.6852V17.1263C5.55469 14.9039 6.87912 12.8954 8.92181 12.0199L24.9991 5.12964Z" fill="#A19991"/>
<path d="M25.0009 5.12964V27.3519L44.4453 35.6852V17.1263C44.4453 14.9039 43.1209 12.8954 41.0782 12.0199L25.0009 5.12964Z" fill="#434034"/>
<path d="M25 28L48 37" stroke="#A19991" stroke-dasharray="2 1"/>
<path d="M25 28L2 37" stroke="#A19991" stroke-dasharray="2 1"/>
<path d="M25 28L25 2" stroke="#2C291F" stroke-dasharray="2 1"/>
<path d="M23.2339 18.1831L33.7941 28.7433C34.5173 29.4665 34.5173 30.639 33.7941 31.3622L29.9386 35.2176C29.2154 35.9408 28.0429 35.9408 27.3197 35.2176L16.7595 24.6574L16.7595 18.1831L23.2339 18.1831Z" fill="#F1AF7E"/>
<path d="M16.76 18.1875L23.2344 18.1875L16.76 24.6618L16.76 18.1875Z" fill="#2C291F"/>
</svg>
