<svg width="50" height="51" viewBox="0 0 50 51" fill="none" xmlns="http://www.w3.org/2000/svg">
<path d="M3.70312 15.3148C3.70312 13.2693 5.36133 11.6111 7.40683 11.6111H33.5163C35.0738 11.6111 36.4648 12.5854 36.9971 14.0491L39.5912 21.1831C39.7388 21.5887 39.8142 22.0171 39.8142 22.4488V30.1296C39.8142 32.1751 38.156 33.8333 36.1105 33.8333H7.40683C5.36133 33.8333 3.70312 32.1751 3.70312 30.1296V15.3148Z" fill="#A19991"/>
<rect x="24.0742" y="20.8701" width="22.2222" height="12.963" rx="3.7037" fill="#A19991"/>
<circle cx="12.0359" cy="32.9072" r="4.62963" fill="#2C291F"/>
<circle cx="36.1101" cy="32.9072" r="4.62963" fill="#2C291F"/>
<rect x="7.40625" y="15.3145" width="9.25926" height="7.40741" rx="1.85185" fill="#2C291F"/>
<rect x="18.5176" y="15.3145" width="9.25926" height="7.40741" rx="1.85185" fill="#2C291F"/>
<path d="M29.6289 17.1663C29.6289 16.1436 30.458 15.3145 31.4808 15.3145H32.9752C33.7471 15.3145 34.4381 15.7933 34.7091 16.5161L36.098 20.2198C36.552 21.4304 35.6571 22.7219 34.3641 22.7219H31.4808C30.458 22.7219 29.6289 21.8928 29.6289 20.87V17.1663Z" fill="#F1AF7E"/>
</svg>
