<svg width="25" height="16" viewBox="0 0 25 16" fill="none" xmlns="http://www.w3.org/2000/svg">
<path fill-rule="evenodd" clip-rule="evenodd" d="M23.56 9.83044C24.7261 8.7705 24.7261 7.0195 23.56 5.95956C21.3163 3.92003 17.305 1 12.73 1C8.155 1 4.14371 3.92003 1.89995 5.95956C0.733871 7.0195 0.733871 8.7705 1.89995 9.83044C4.14371 11.87 8.155 14.79 12.73 14.79C17.305 14.79 21.3163 11.87 23.56 9.83044ZM12.7282 11.609C15.0716 11.609 16.9713 9.94675 16.9713 7.89629C16.9713 5.84582 15.0716 4.18359 12.7282 4.18359C10.3848 4.18359 8.48514 5.84582 8.48514 7.89629C8.48514 9.94675 10.3848 11.609 12.7282 11.609Z" fill="#B5B5B5"/>
</svg>
