<svg width="17" height="16" viewBox="0 0 17 16" fill="none" xmlns="http://www.w3.org/2000/svg">
<path d="M1.95172 7.69748C1.95172 11.5068 5.02942 14.5949 8.82596 14.5949C12.6225 14.5949 15.7002 11.5068 15.7002 7.69748C15.7002 3.88813 12.6225 0.800049 8.82596 0.800049C5.02942 0.800049 1.95172 3.88813 1.95172 7.69748Z" fill="#6C645C"/>
<path d="M8.21786 6.05391L7.58569 6.56826C7.58569 6.56826 7.84241 7.25279 8.42555 7.96951C9.08162 8.77588 9.62674 9.07687 9.62674 9.07687L10.2589 8.56253L11.842 9.95477L10.7105 10.9094C10.5263 11.0648 10.2687 11.0972 10.0598 10.977C9.48868 10.6485 8.32082 9.8911 7.37006 8.72254C6.4224 7.55779 6.03265 6.40514 5.88925 5.8547C5.83555 5.6486 5.91464 5.43666 6.07742 5.29932L7.24957 4.31039L8.21786 6.05391Z" fill="#F1AF7E"/>
</svg>
