<svg width="16" height="16" viewBox="0 0 16 16" fill="none" xmlns="http://www.w3.org/2000/svg">
<path fill-rule="evenodd" clip-rule="evenodd" d="M2.49218 11.5986C2.51153 11.4676 2.48236 11.3343 2.41475 11.2204C1.80306 10.1893 1.45172 8.98454 1.45172 7.69748C1.45172 3.88813 4.52942 0.800049 8.32596 0.800049C12.1225 0.800049 15.2002 3.88813 15.2002 7.69748C15.2002 11.5068 12.1225 14.5949 8.32596 14.5949C7.39413 14.5949 6.50561 14.4089 5.69526 14.0718C5.57771 14.0229 5.44746 14.0116 5.32446 14.0444L2.81244 14.7162C2.42846 14.8189 2.06489 14.4948 2.1229 14.1016L2.49218 11.5986Z" fill="#16C772"/>
<path d="M7.71786 6.05391L7.08569 6.56826C7.08569 6.56826 7.34241 7.25279 7.92555 7.96951C8.58162 8.77588 9.12674 9.07687 9.12674 9.07687L9.75892 8.56253L11.342 9.95477L10.2105 10.9094C10.0263 11.0648 9.76873 11.0972 9.55982 10.977C8.98868 10.6485 7.82082 9.8911 6.87006 8.72254C5.9224 7.55779 5.53265 6.40514 5.38925 5.8547C5.33555 5.6486 5.41464 5.43666 5.57742 5.29932L6.74957 4.31039L7.71786 6.05391Z" fill="white" fill-opacity="0.79"/>
</svg>
