<svg width="331" height="130" viewBox="0 0 331 130" fill="none" xmlns="http://www.w3.org/2000/svg">
<path d="M45.7688 514.437H529.925C543.143 514.437 553.9 503.721 553.9 490.388C553.9 479.23 546.763 469.587 536.374 466.808L179.148 368.237C72.2898 330.714 0.5 229.237 0.5 115.707C0.5 -32.4115 120.213 -152.5 267.408 -152.5H736.064L653.79 88.6384H267.483C252.834 88.6384 241.025 100.488 241.025 115.179C241.025 126.161 247.001 135.475 256.364 139.786L256.401 139.803L256.44 139.814L600.067 234.315C714.357 265.836 794.276 370.683 794.5 489.51H794.35V490.01C794.35 636.543 675.691 755.5 529.85 755.5H128.117L45.7688 514.437Z" stroke="#D6C7A9"/>
</svg>
