<svg width="12" height="13" viewBox="0 0 12 13" fill="none" xmlns="http://www.w3.org/2000/svg">
<path d="M10.4199 5.11365C10.4199 5.38979 10.1961 5.61365 9.91994 5.61365H8.40663C7.96463 5.61365 7.74002 5.08222 8.04802 4.76522L8.17002 4.63966C8.36125 4.44285 8.35997 4.12507 8.13893 3.96245C6.8496 3.01394 5.02558 3.082 3.85767 4.23708C2.57067 5.51465 2.57067 7.57479 3.85767 8.85707C5.14467 10.1299 7.22838 10.1299 8.51537 8.85707C9.04492 8.33142 9.35578 7.73501 9.44795 7.01739C9.48112 6.75915 9.68815 6.54707 9.94851 6.54707C10.2089 6.54707 10.422 6.75889 10.3877 7.01698C10.2755 7.86066 9.87144 8.8242 9.17537 9.51236C7.52066 11.1529 4.83352 11.1529 3.17881 9.51236C1.52881 7.8765 1.51467 5.21765 3.16938 3.58179C4.70293 2.06572 7.09491 1.95471 8.75417 3.24877C8.97327 3.41964 9.2908 3.41932 9.4844 3.22003L9.56132 3.14086C9.87415 2.81886 10.4199 3.04033 10.4199 3.48927V5.11365ZM6.05924 4.61422C6.25451 4.61422 6.41281 4.77252 6.41281 4.96779V6.3333C6.41281 6.50968 6.50574 6.67302 6.65737 6.76313L7.77725 7.42866C7.93493 7.52237 7.98674 7.72619 7.89294 7.88382C7.79926 8.04126 7.59576 8.09305 7.43821 7.99955L5.95049 7.11665C5.79871 7.02658 5.70566 6.86316 5.70566 6.68667V4.96779C5.70566 4.77252 5.86396 4.61422 6.05924 4.61422Z" fill="#ADA9A6"/>
</svg>
