<svg width="83" height="83" viewBox="0 0 83 83" fill="none" xmlns="http://www.w3.org/2000/svg">
<g clip-path="url(#clip0_7145_4292)">
<path d="M14.6342 40.5568L2.83008 31.8733H32.0114L41.0289 3.77271L50.0465 31.8733H79.2278L67.4237 40.5568M61.5217 44.8986L55.6196 49.2403L64.6371 77.3409L41.0289 59.9738L17.4207 77.3409L26.4383 49.2403L20.5362 44.8986" stroke="#1CDCE3" stroke-width="2"/>
<path d="M45.8836 29.0729L66.2132 16.5482L72.0031 10.7583L76.1963 8.96678L77.4969 10.2674L75.7054 14.4606L69.9155 20.2505L57.3908 40.5801L60.8779 65.611L55.6266 70.8624L44.7802 54.0914L42.6456 59.2278L43.7137 71.0678L40.0738 72.006L33.92 65.8521L34.9045 63.0665L31.7525 59.9145L28.4437 61.7223L24.7414 58.02L26.5492 54.7112L23.3972 51.5592L20.6116 52.5438L14.4577 46.3899L15.3959 42.75L27.2359 43.8181L32.3724 41.6836L15.6014 30.8371L20.8527 25.5858L45.8836 29.0729Z" fill="white"/>
<path d="M49.0312 33.489L58.0148 24.5055L61.3059 24.9942L61.7578 28.2485L52.7743 37.232L49.0312 33.489Z" fill="#B0A9A9"/>
</g>
<defs>
<clipPath id="clip0_7145_4292">
<rect width="83" height="83" fill="white"/>
</clipPath>
</defs>
</svg>
