<svg width="83" height="83" viewBox="0 0 83 83" fill="none" xmlns="http://www.w3.org/2000/svg">
<path d="M20 72C23.9752 72.5661 35.7643 71.5663 48.6835 60.8106C58.5028 52.6357 65.5779 53.4513 78.0003 53.4513" stroke="#1CDCE3" stroke-width="2"/>
<path d="M23.1426 35.7142C37.9997 21.4511 60.8569 19.7143 73.4281 21.4511" stroke="#1CDCE3" stroke-width="2"/>
<path d="M58.5723 54.5714C42.9955 51.28 37.1543 34 6.00083 34" stroke="#1CDCE3" stroke-width="2"/>
<path d="M30 18.5713H54V38.4284L51.5 41.4284H32.5L30 38.4284V18.5713Z" fill="white"/>
<path d="M33.4277 17L36.5 14H47.0353L50.5706 17V38.5H44H38H33.4277V17Z" fill="#B0A9A9"/>
<path d="M35.5 40.5H48.5V52.5H35.5V40.5Z" fill="white"/>
<path d="M39.1445 43.7683H45.0173V77.9999H39.1445V43.7683Z" fill="white"/>
<path d="M38.8732 44.2856H46L28 76L22 73.9999L38.8732 44.2856Z" fill="white"/>
<path d="M46.0642 44.2856H39.1429L56 76L62 73.9999L46.0642 44.2856Z" fill="white"/>
<path d="M48.5 41.5H35.5L38 44.5H46L48.5 41.5Z" fill="#B0A9A9"/>
<circle cx="41.9989" cy="27.1429" r="3.42857" fill="white"/>
<circle cx="42" cy="41.5" r="37.5" stroke="#1CDCE3" stroke-width="2"/>
</svg>
