<svg width="83" height="83" viewBox="0 0 83 83" fill="none" xmlns="http://www.w3.org/2000/svg">
<path d="M45.1112 2L45.9553 1.46375L45.1112 1V2ZM37.0929 2V1L36.2489 1.46375L37.0929 2ZM47.6525 6H48.6525L48.4966 5.46375L47.6525 6ZM47.6525 9.54348H46.6525L47.4504 10.5228L47.6525 9.54348ZM51.2099 10.4938L50.8966 11.4435L52.0759 10.9938L51.2099 10.4938ZM52.9799 7.42802L52.5171 6.54158L52.1139 6.92802L52.9799 7.42802ZM57.1807 5.23456L57.6807 4.36853L56.7179 4.34812L57.1807 5.23456ZM64.1248 9.24371L65.1239 9.20134L64.6248 8.37769L64.1248 9.24371ZM64.3256 13.9785L65.1916 14.4785L65.3247 13.9361L64.3256 13.9785ZM62.5531 17.0486L61.687 16.5486L61.8875 17.7949L62.5531 17.0486ZM65.1565 19.6501L64.4107 20.3162L65.6565 20.5161L65.1565 19.6501ZM68.2251 17.8784L68.2674 16.8793L67.7251 17.0124L68.2251 17.8784ZM72.9598 18.0792L73.8258 17.5792L73.0022 17.0801L72.9598 18.0792ZM76.969 25.0233L77.8554 25.4862L77.835 24.5233L76.969 25.0233ZM74.7755 29.2241L75.2755 30.0901L75.6619 29.687L74.7755 29.2241ZM71.7199 30.9883L71.2199 30.1223L70.7704 31.3023L71.7199 30.9883ZM72.6741 34.5506L71.6948 34.7533L72.6741 35.5506V34.5506ZM76.2018 34.5506L76.738 33.7065L76.2018 33.5506V34.5506ZM80.2018 37.0919H81.2018L80.738 36.2478L80.2018 37.0919ZM80.2018 45.1102L80.738 45.9543L81.2018 45.1102H80.2018ZM76.2018 47.6515V48.6515L76.738 48.4955L76.2018 47.6515ZM72.6816 47.6515V46.6515L71.7022 47.4499L72.6816 47.6515ZM71.7297 51.2206L70.78 50.9075L71.2297 52.0866L71.7297 51.2206ZM74.7747 52.9786L75.6611 52.5157L75.2747 52.1126L74.7747 52.9786ZM76.9681 57.1794L77.8342 57.6794L77.8546 56.7166L76.9681 57.1794ZM72.959 64.1235L73.0014 65.1226L73.825 64.6235L72.959 64.1235ZM68.2242 64.3243L67.7242 65.1903L68.2666 65.3234L68.2242 64.3243ZM65.1774 62.5652L65.6774 61.6992L64.431 61.8998L65.1774 62.5652ZM62.5665 65.1782L61.9005 64.4322L61.7004 65.6782L62.5665 65.1782ZM64.325 68.2241L65.3241 68.2665L65.191 67.7241L64.325 68.2241ZM64.1242 72.9588L64.6242 73.8249L65.1233 73.0012L64.1242 72.9588ZM57.1801 76.968L56.7173 77.8544L57.6801 77.834L57.1801 76.968ZM52.9793 74.7745L52.1133 75.2745L52.5165 75.661L52.9793 74.7745ZM51.2269 71.7393L52.0929 71.2393L50.9131 70.7898L51.2269 71.7393ZM47.6522 72.6953L47.4501 71.7159L46.6522 72.6953H47.6522ZM47.6522 76.2018L48.4963 76.738L48.6522 76.2018H47.6522ZM45.1109 80.2018V81.2018L45.955 80.738L45.1109 80.2018ZM37.0926 80.2018L36.2486 80.738L37.0926 81.2018V80.2018ZM34.5513 76.2018H33.5513L33.7073 76.738L34.5513 76.2018ZM34.5513 72.6952H35.5513L34.7535 71.7159L34.5513 72.6952ZM30.977 71.7393L31.2908 70.7898L30.111 71.2393L30.977 71.7393ZM29.2245 74.7748L29.6873 75.6613L30.0905 75.2748L29.2245 74.7748ZM25.0237 76.9683L24.5237 77.8343L25.4865 77.8547L25.0237 76.9683ZM18.0796 72.9591L17.0805 73.0015L17.5796 73.8252L18.0796 72.9591ZM17.8788 68.2244L17.0128 67.7244L16.8797 68.2668L17.8788 68.2244ZM19.6375 65.1782L20.5035 65.6782L20.3035 64.4322L19.6375 65.1782ZM17.0265 62.5652L17.773 61.8998L16.5265 61.6992L17.0265 62.5652ZM13.9788 64.3248L13.9365 65.3239L14.4788 65.1908L13.9788 64.3248ZM9.2441 64.124L8.37807 64.624L9.20173 65.1231L9.2441 64.124ZM5.23495 57.1799L4.34851 56.717L4.36892 57.6799L5.23495 57.1799ZM7.42841 52.9791L6.92841 52.1131L6.54197 52.5162L7.42841 52.9791ZM10.4742 51.2206L10.9742 52.0866L11.424 50.9075L10.4742 51.2206ZM9.52224 47.6512L10.5017 47.4497L9.52224 46.6512V47.6512ZM6 47.6512L5.46375 48.4952L6 48.6512V47.6512ZM2 45.1099H1L1.46375 45.954L2 45.1099ZM2 37.0916L1.46375 36.2475L1 37.0916H2ZM6 34.5503V33.5503L5.46375 33.7063L6 34.5503ZM9.52992 34.5503V35.5503L10.5092 34.753L9.52992 34.5503ZM10.4843 30.9878L11.4337 31.3018L10.9843 30.1217L10.4843 30.9878ZM7.42786 29.2231L6.54143 29.686L6.92786 30.0892L7.42786 29.2231ZM5.2344 25.0223L4.36837 24.5223L4.34796 25.4852L5.2344 25.0223ZM9.24355 18.0783L9.20118 17.0792L8.37753 17.5783L9.24355 18.0783ZM13.9783 17.8775L14.4783 17.0114L13.9359 16.8784L13.9783 17.8775ZM17.0478 19.6497L16.5478 20.5157L17.7936 20.3158L17.0478 19.6497ZM19.6513 17.0482L20.3169 17.7945L20.5174 16.5482L19.6513 17.0482ZM17.8787 13.9779L16.8796 13.9355L17.0127 14.4779L17.8787 13.9779ZM18.0795 9.24312L17.5795 8.37709L17.0804 9.20074L18.0795 9.24312ZM25.0236 5.23396L25.4864 4.34753L24.5236 4.36794L25.0236 5.23396ZM29.2244 7.42743L30.0904 6.92743L29.6872 6.54099L29.2244 7.42743ZM30.9946 10.4936L30.1286 10.9936L31.3079 11.4433L30.9946 10.4936ZM34.5516 9.54344L34.7537 10.5228L35.5516 9.54344H34.5516ZM34.5516 6L33.7076 5.46375L33.5516 6H34.5516ZM45.1112 1L37.0929 1V3H45.1112V1ZM48.4966 5.46375L45.9553 1.46375L44.2672 2.53625L46.8084 6.53625L48.4966 5.46375ZM48.6525 9.54348V6H46.6525V9.54348H48.6525ZM47.4504 10.5228C48.6246 10.7652 49.7747 11.0734 50.8966 11.4435L51.5231 9.54415C50.3288 9.15017 49.1045 8.82206 47.8546 8.56412L47.4504 10.5228ZM52.1139 6.92802L50.3438 9.99382L52.0759 10.9938L53.8459 7.92802L52.1139 6.92802ZM56.7179 4.34812L52.5171 6.54158L53.4428 8.31445L57.6436 6.12099L56.7179 4.34812ZM64.6248 8.37769L57.6807 4.36853L56.6807 6.10058L63.6248 10.1097L64.6248 8.37769ZM65.3247 13.9361L65.1239 9.20134L63.1257 9.28609L63.3265 14.0208L65.3247 13.9361ZM63.4191 17.5486L65.1916 14.4785L63.4596 13.4785L61.687 16.5486L63.4191 17.5486ZM61.8875 17.7949C62.7755 18.5869 63.6181 19.4288 64.4107 20.3162L65.9023 18.9839C65.0593 18.04 64.1632 17.1446 63.2186 16.3023L61.8875 17.7949ZM67.7251 17.0124L64.6565 18.784L65.6565 20.5161L68.7251 18.7445L67.7251 17.0124ZM73.0022 17.0801L68.2674 16.8793L68.1827 18.8775L72.9174 19.0783L73.0022 17.0801ZM77.835 24.5233L73.8258 17.5792L72.0938 18.5792L76.1029 25.5233L77.835 24.5233ZM75.6619 29.687L77.8554 25.4862L76.0825 24.5605L73.8891 28.7613L75.6619 29.687ZM72.2199 31.8543L75.2755 30.0901L74.2755 28.3581L71.2199 30.1223L72.2199 31.8543ZM70.7704 31.3023C71.142 32.4257 71.4514 33.5774 71.6948 34.7533L73.6533 34.3479C73.3943 33.0962 73.0648 31.8703 72.6693 30.6743L70.7704 31.3023ZM76.2018 33.5506H72.6741V35.5506H76.2018V33.5506ZM80.738 36.2478L76.738 33.7065L75.6655 35.3947L79.6655 37.9359L80.738 36.2478ZM81.2018 45.1102V37.0919H79.2018V45.1102H81.2018ZM76.738 48.4955L80.738 45.9543L79.6655 44.2661L75.6655 46.8074L76.738 48.4955ZM72.6816 48.6515H76.2018V46.6515H72.6816V48.6515ZM71.7022 47.4499C71.4597 48.6281 71.151 49.782 70.78 50.9075L72.6795 51.5336C73.0744 50.3354 73.4031 49.1071 73.6611 47.853L71.7022 47.4499ZM75.2747 52.1126L72.2297 50.3546L71.2297 52.0866L74.2747 53.8446L75.2747 52.1126ZM77.8546 56.7166L75.6611 52.5157L73.8882 53.4414L76.0817 57.6423L77.8546 56.7166ZM73.825 64.6235L77.8342 57.6794L76.1021 56.6794L72.093 63.6235L73.825 64.6235ZM68.2666 65.3234L73.0014 65.1226L72.9166 63.1244L68.1819 63.3252L68.2666 65.3234ZM64.6774 63.4312L67.7242 65.1903L68.7242 63.4583L65.6774 61.6992L64.6774 63.4312ZM64.431 61.8998C63.6363 62.7912 62.7913 63.6369 61.9005 64.4322L63.2324 65.9241C64.18 65.0782 65.0787 64.1788 65.9239 63.2306L64.431 61.8998ZM65.191 67.7241L63.4325 64.6782L61.7004 65.6782L63.459 68.7241L65.191 67.7241ZM65.1233 73.0012L65.3241 68.2665L63.3259 68.1817L63.1251 72.9165L65.1233 73.0012ZM57.6801 77.834L64.6242 73.8249L63.6242 72.0928L56.6801 76.102L57.6801 77.834ZM52.5165 75.661L56.7173 77.8544L57.643 76.0816L53.4422 73.8881L52.5165 75.661ZM50.3609 72.2393L52.1133 75.2745L53.8454 74.2745L52.0929 71.2393L50.3609 72.2393ZM50.9131 70.7898C49.7859 71.1623 48.6302 71.4724 47.4501 71.7159L47.8543 73.6747C49.1104 73.4154 50.3407 73.0854 51.5407 72.6888L50.9131 70.7898ZM48.6522 76.2018V72.6953H46.6522V76.2018H48.6522ZM45.955 80.738L48.4963 76.738L46.8082 75.6655L44.2669 79.6655L45.955 80.738ZM37.0926 81.2018H45.1109V79.2018H37.0926V81.2018ZM33.7073 76.738L36.2486 80.738L37.9367 79.6655L35.3954 75.6655L33.7073 76.738ZM33.5513 72.6952V76.2018H35.5513V72.6952H33.5513ZM34.7535 71.7159C33.5735 71.4723 32.418 71.1623 31.2908 70.7898L30.6633 72.6888C31.8632 73.0853 33.0933 73.4154 34.3492 73.6746L34.7535 71.7159ZM30.0905 75.2748L31.8431 72.2393L30.111 71.2393L28.3584 74.2748L30.0905 75.2748ZM25.4865 77.8547L29.6873 75.6613L28.7616 73.8884L24.5608 76.0819L25.4865 77.8547ZM17.5796 73.8252L24.5237 77.8343L25.5237 76.1023L18.5796 72.0931L17.5796 73.8252ZM16.8797 68.2668L17.0805 73.0015L19.0787 72.9168L18.8779 68.182L16.8797 68.2668ZM18.7715 64.6782L17.0128 67.7244L18.7448 68.7244L20.5035 65.6782L18.7715 64.6782ZM20.3035 64.4322C19.4126 63.6369 18.5677 62.7912 17.773 61.8998L16.28 63.2306C17.1253 64.1788 18.024 65.0782 18.9715 65.9242L20.3035 64.4322ZM14.4788 65.1908L17.5265 63.4312L16.5265 61.6992L13.4788 63.4587L14.4788 65.1908ZM9.20173 65.1231L13.9365 65.3239L14.0212 63.3257L9.28647 63.1249L9.20173 65.1231ZM4.36892 57.6799L8.37807 64.624L10.1101 63.624L6.10097 56.6799L4.36892 57.6799ZM6.54197 52.5162L4.34851 56.717L6.12138 57.6427L8.31484 53.4419L6.54197 52.5162ZM9.97423 50.3545L6.92841 52.1131L7.92841 53.8451L10.9742 52.0866L9.97423 50.3545ZM11.424 50.9075C11.0529 49.7819 10.7442 48.6279 10.5017 47.4497L8.54276 47.8527C8.80081 49.1069 9.1295 50.3353 9.5245 51.5336L11.424 50.9075ZM6 48.6512H9.52224V46.6512H6V48.6512ZM1.46375 45.954L5.46375 48.4952L6.53625 46.8071L2.53625 44.2659L1.46375 45.954ZM1 37.0916L1 45.1099H3L3 37.0916H1ZM5.46375 33.7063L1.46375 36.2475L2.53625 37.9357L6.53625 35.3944L5.46375 33.7063ZM9.52992 33.5503H6V35.5503H9.52992V33.5503ZM10.5092 34.753C10.7526 33.577 11.0621 32.4252 11.4337 31.3018L9.53484 30.6738C9.13928 31.8698 8.80979 33.0959 8.55068 34.3476L10.5092 34.753ZM6.92786 30.0892L9.98427 31.8538L10.9843 30.1217L7.92786 28.3571L6.92786 30.0892ZM4.34796 25.4852L6.54143 29.686L8.31429 28.7603L6.12083 24.5595L4.34796 25.4852ZM8.37753 17.5783L4.36837 24.5223L6.10042 25.5223L10.1096 18.5783L8.37753 17.5783ZM13.9359 16.8784L9.20118 17.0792L9.28593 19.0774L14.0207 18.8766L13.9359 16.8784ZM17.5478 18.7836L14.4783 17.0114L13.4783 18.7435L16.5478 20.5157L17.5478 18.7836ZM17.7936 20.3158C18.5863 19.4284 19.4288 18.5865 20.3169 17.7945L18.9858 16.3018C18.0412 17.1442 17.1451 18.0396 16.302 18.9835L17.7936 20.3158ZM17.0127 14.4779L18.7853 17.5482L20.5174 16.5482L18.7447 13.4779L17.0127 14.4779ZM17.0804 9.20074L16.8796 13.9355L18.8778 14.0202L19.0786 9.28549L17.0804 9.20074ZM24.5236 4.36794L17.5795 8.37709L18.5795 10.1091L25.5236 6.09999L24.5236 4.36794ZM29.6872 6.54099L25.4864 4.34753L24.5607 6.1204L28.7615 8.31386L29.6872 6.54099ZM31.8607 9.99364L30.0904 6.92743L28.3583 7.92743L30.1286 10.9936L31.8607 9.99364ZM31.3079 11.4433C32.4297 11.0733 33.5797 10.7651 34.7537 10.5228L34.3495 8.56408C33.0998 8.82199 31.8756 9.15005 30.6814 9.54396L31.3079 11.4433ZM33.5516 6V9.54344H35.5516V6H33.5516ZM36.2489 1.46375L33.7076 5.46375L35.3957 6.53625L37.937 2.53625L36.2489 1.46375Z" fill="#1CDCE3"/>
<circle cx="41" cy="41" r="5" stroke="#1CDCE3" stroke-width="2" stroke-linejoin="bevel"/>
<path d="M33.6191 61.5794L38.1485 57.0215H42.6778L47.2929 61.5794V75.461L42.6778 80.0189H38.1485L33.6191 75.461V61.5794Z" fill="#B0A9A9"/>
<path d="M29.1207 18.5677L35.4779 17.6322L39.1043 20.346L40.0684 26.7603L24.9241 46.9975L18.4982 47.8816L14.8719 45.1679L13.9764 38.8049L29.1207 18.5677Z" fill="#B0A9A9"/>
<path d="M53.9907 36.1647L52.2961 41.6135L54.9363 46.749L61.3247 48.2819L58.2728 42.4826L60.9693 37.5387L66.4966 38.1807L69.719 44.1457L72.5211 38.5444L69.4671 32.9479L63.81 30.8988L59.5135 22.9456L49.6941 28.2114L53.9907 36.1647Z" fill="#B0A9A9"/>
<path d="M24.6738 76.0872L28.5 71H52.5L56.2393 76.0872V83.0001H24.6738V76.0872Z" fill="white"/>
<ellipse cx="23.586" cy="44.8963" rx="2.78519" ry="2.78519" fill="#B0A9A9"/>
<path d="M15.4363 49.3032L14.9756 42.8941L17.9512 39.4793L24.4194 38.9942L45.1941 57.097L45.5985 63.5708L42.6229 66.9856L36.2109 67.406L15.4363 49.3032Z" fill="white"/>
<path d="M28.5988 30L24 25.3626L24 20.7252L28.5988 16L56.4012 16L61 20.7252L61 25.3626L56.4012 30L28.5988 30Z" fill="white"/>
<ellipse cx="21.1217" cy="45.1163" rx="2.27896" ry="2.27896" transform="rotate(0.319079 21.1217 45.1163)" fill="#B0A9A9"/>
<ellipse cx="31.2897" cy="23.2916" rx="2.27896" ry="2.27896" transform="rotate(0.319079 31.2897 23.2916)" fill="#B0A9A9"/>
<ellipse cx="53.8737" cy="23.2916" rx="2.27896" ry="2.27896" transform="rotate(0.319079 53.8737 23.2916)" fill="#B0A9A9"/>
<ellipse cx="38.1334" cy="60.0245" rx="2.27896" ry="2.27896" transform="rotate(0.319079 38.1334 60.0245)" fill="#B0A9A9"/>
</svg>
